<?xml version="1.0" encoding="UTF-8"?>
<svg width="50px" height="30px" viewBox="0 0 50 30" version="1.1" xmlns="http://www.w3.org/2000/svg" xmlns:xlink="http://www.w3.org/1999/xlink">
    <!-- Generator: Sketch 64 (93537) - https://sketch.com -->
    <title>Path</title>
    <desc>Created with Sketch.</desc>
    <g id="Page-1" stroke="none" stroke-width="1" fill="none" fill-rule="evenodd">
        <g id="arrow_black" transform="translate(-1.000000, 0.000000)" fill="#AFBDCB" fill-rule="nonzero">
            <g id="right-arrow-(1)" transform="translate(25.949587, 15.241984) rotate(90.000000) translate(-25.949587, -15.241984) translate(10.949587, -9.758016)">
                <path d="M28.4006856,22.8679169 L6.32486389,0.792498488 C5.81427708,0.281508369 5.13268804,0 4.40592863,0 C3.67916918,0 2.99758015,0.281508369 2.48699335,0.792498488 L0.861262351,2.41782618 C-0.19661222,3.47691067 -0.19661222,5.19822544 0.861262351,6.25569673 L19.3988707,24.7933051 L0.840693687,43.3514822 C0.330106877,43.8624722 0.0481952006,44.5436579 0.0481952006,45.270014 C0.0481952006,45.9971769 0.330106877,46.6783626 0.840693687,47.1897561 L2.46642468,48.8146804 C2.9774148,49.3256705 3.65860053,49.6071789 4.38535994,49.6071789 C5.11211939,49.6071789 5.79370842,49.3256705 6.30429523,48.8146804 L28.4006856,26.7190966 C28.9124824,26.2064932 29.1935874,25.5220811 29.1919879,24.794515 C29.1935874,24.0641258 28.9124824,23.380117 28.4006856,22.8679169 Z" id="Path"></path>
            </g>
        </g>
    </g>
</svg>