<svg xmlns="http://www.w3.org/2000/svg" width="156" height="196" viewBox="0 0 156 196">
  <path fill="#93D500" d="M126.75,39.0866 C119.988,39.0911 113.437,41.4382 108.21,45.7287 C102.984,50.0191 99.405,55.9878 98.084,62.6193 C96.762,69.2507 97.779,76.1353 100.961,82.102 C104.143,88.068 109.294,92.747 115.538,95.344 C114.053,98.902 111.548,101.941 108.337,104.075 C105.127,106.21 101.355,107.345 97.4999963,107.337 L58.5001,107.337 C51.6267,107.365 44.889,109.252 39.0001,112.797 L39.0001,56.8316 C45.5054,54.5316 50.9882,50.0059 54.4795,44.0544 C57.9707,38.1029 59.2456,31.1087 58.0788,24.3082 C56.912,17.5076 53.3787,11.3384 48.1032,6.891 C42.8278,2.4436 36.15,0.0044 29.2501,0.0044 C22.3501,0.0044 15.6723,2.4436 10.3969,6.891 C5.1215,11.3384 1.5881,17.5076 0.4213,24.3082 C-0.7455,31.1087 0.5294,38.1029 4.0207,44.0544 C7.5119,50.0059 12.9947,54.5316 19.5001,56.8316 L19.5001,138.342 C13.0747,140.652 7.6602,145.138 4.195,151.022 C0.7298,156.905 -0.5678,163.816 0.527,170.556 C1.6219,177.296 5.0403,183.44 10.1898,187.924 C15.3392,192.409 21.8952,194.95 28.7217,195.108 C35.5481,195.266 42.2147,193.031 47.5661,188.79 C52.9175,184.549 56.6166,178.569 58.0221,171.887 C59.4277,165.205 58.4513,158.242 55.262,152.204 C52.0727,146.166 46.8716,141.435 40.5601,138.829 C42.0379,135.286 44.5286,132.258 47.72,130.125 C50.9113,127.992 54.6613,126.848 58.5001,126.837 L97.4999963,126.837 C106.42,126.835 115.069,123.776 122.006,118.169 C128.944,112.562 133.749,104.747 135.623,96.027 C142.141,93.812 147.67,89.368 151.235,83.479 C154.8,77.5892 156.174,70.6307 155.114,63.8282 C154.054,57.0256 150.628,50.815 145.44,46.2893 C140.252,41.7637 133.634,39.2131 126.75,39.0866 L126.75,39.0866 Z M29.2501,19.5866 C31.1784,19.5866 33.0635,20.1584 34.6669,21.2297 C36.2702,22.3011 37.5199,23.8238 38.2579,25.6054 C38.9958,27.387 39.1889,29.3474 38.8127,31.2387 C38.4365,33.13 37.5079,34.8673 36.1443,36.2309 C34.7808,37.5944 33.0435,38.523 31.1522,38.8992 C29.2609,39.2754 27.3005,39.0823 25.5189,38.3444 C23.7373,37.6064 22.2146,36.3567 21.1432,34.7534 C20.0719,33.15 19.5001,31.2649 19.5001,29.3366 C19.5001,26.7507 20.5273,24.2707 22.3558,22.4423 C24.1842,20.6138 26.6642,19.5866 29.2501,19.5866 Z M29.2501,175.587 C27.3217,175.587 25.4366,175.015 23.8332,173.943 C22.2299,172.872 20.9802,171.349 20.2422,169.568 C19.5043,167.786 19.3112,165.826 19.6874,163.934 C20.0636,162.043 20.9922,160.306 22.3558,158.942 C23.7193,157.579 25.4566,156.65 27.3479,156.274 C29.2392,155.898 31.1996,156.091 32.9812,156.829 C34.7628,157.567 36.2855,158.816 37.3569,160.42 C38.4282,162.023 39.0001,163.908 39.0001,165.837 C39.0001,168.422 37.9728,170.902 36.1443,172.731 C34.3159,174.559 31.8359,175.587 29.2501,175.587 Z M126.75,78.0866 C124.822,78.0866 122.937,77.5147 121.333,76.4434 C119.73,75.372 118.48,73.8493 117.742,72.0677 C117.004,70.2861 116.811,68.3257 117.187,66.4344 C117.564,64.5431 118.492,62.8058 119.856,61.4423 C121.219,60.0787 122.957,59.1501 124.848,58.7739 C126.739,58.3977 128.7,58.5908 130.481,59.3287 C132.263,60.0667 133.786,61.3164 134.857,62.9198 C135.928,64.5231 136.5,66.4082 136.5,68.3366 C136.5,70.9224 135.473,73.4024 133.644,75.2309 C131.816,77.0593 129.336,78.0866 126.75,78.0866 Z"/>
</svg>
