<svg xmlns="http://www.w3.org/2000/svg" width="303" height="236" viewBox="0 0 303 236">
  <g fill="none" fill-rule="evenodd">
    <path fill="#863399" fill-rule="nonzero" d="M133.07,34.05 C116.07,48.23 102.43,66.25 84.36,79 C67.66,90.79 47.51,97.87 33.14,112.4 C7.61521963,138.221038 7.65091032,179.782839 33.22,205.56 C50.4,222.88 75.81,229.4 100.16,230.69 C124.51,231.98 148.95,228.77 173.31,230.08 C196.36,231.32 219.31,236.6 242.31,234.84 C265.31,233.08 289.7,222.25 298.8,201.04 C308.86,177.57 297.33,151.16 289.38,126.89 C283.366367,108.546287 279.395662,89.5948927 277.54,70.38 C274.78,41.64 269.71,1.73 233.54,0.14 C197.027315,-1.2422183 161.277068,10.8239794 133.07,34.05 L133.07,34.05 Z" opacity=".18"/>
    <path fill="url(#coach-(1)-a)" fill-rule="nonzero" d="M236.85,204.36 C182.24,211.36 126.91,205.98 71.85,206.14 C67.85,206.14 62.4,207.8 63.03,211.73 C95.03,219.29 128.26,219.88 161.16,220.44 L221.03,221.44 C234.72,221.67 248.42,221.9 262.03,221.13 C267.12,220.84 272.34,220.37 276.93,218.13 C289.82,211.83 283.43,203.54 272.31,202.13 C260.56,200.65 248.54,202.86 236.85,204.36 Z"/>
    <path fill="#76AA00" fill-rule="nonzero" d="M157.16,51.87 L157.16,200.07 C157.16,206.48 162.84,211.66 169.84,211.650014 L237.6,211.55 C244.6,211.55 250.28,206.33 250.28,199.93 L250.28,51.72 C250.28,45.31 244.6,40.12 237.6,40.1399424 L169.84,40.24 C162.84,40.25 157.16,45.46 157.16,51.87 Z M163.62,51.97 C163.62,48.02 167.12,44.81 171.44,44.81 L180.99,44.81 L180.99,45.69 C181.114227,48.3301126 183.349385,50.3730474 185.99,50.26 L222.42,50.2 C225.060284,50.3018535 227.2904,48.2590678 227.42,45.62 L227.42,44.74 L237.28,44.74 C241.6,44.74 245.1,47.93 245.1,51.88 L245.1,199.63 C245.1,203.58 241.6,206.78 237.28,206.79 L171.44,206.9 C167.12,206.9 163.62,203.71 163.62,199.76 L163.62,51.97 Z"/>
    <path fill="#FFF" fill-rule="nonzero" d="M153.97,54.91 L153.97,203.12 C153.97,209.53 159.65,214.71 166.65,214.700014 L234.42,214.59 C241.42,214.59 247.1,209.38 247.1,202.97 L247.1,54.77 C247.1,48.36 241.42,43.17 234.42,43.1799856 L166.65,43.29 C159.65,43.3 153.97,48.51 153.97,54.91 Z M160.44,55.02 C160.44,51.02 163.93,47.86 168.25,47.85 L177.8,47.85 L177.8,48.73 C177.924171,51.3686684 180.161081,53.4087308 182.8,53.29 L219.22,53.29 C221.863999,53.391733 224.095697,51.3430344 224.22,48.7 L224.22,47.83 L234.09,47.83 C238.4,47.83 241.9,51.02 241.9,54.97 L241.9,202.68 C241.9,206.62 238.4,209.83 234.09,209.84 L168.3,209.98 C163.98,209.98 160.49,206.79 160.49,202.84 L160.44,55.02 Z"/>
    <path stroke="url(#coach-(1)-b)" stroke-width=".45" d="M160.44,54.98 L160.44,202.8 C160.44,206.8 163.93,209.95 168.25,209.940024 L234.1,209.84 C238.41,209.84 241.91,206.62 241.91,202.68 L241.91,54.89 C241.91,50.89 238.41,47.74 234.1,47.7499763 L224.23,47.7499763 L224.23,48.62 C224.105697,51.2630344 221.873999,53.311733 219.23,53.21 L182.81,53.21 C180.171081,53.3287308 177.934171,51.2886684 177.81,48.65 L177.81,47.77 L168.3,47.77 C163.93,47.86 160.44,51.07 160.44,54.98 Z"/>
    <path fill="#93D500" fill-rule="nonzero" d="M160.44,54.98 L160.44,202.8 C160.44,206.8 163.93,209.95 168.25,209.940024 L234.1,209.84 C238.41,209.84 241.91,206.62 241.91,202.68 L241.91,54.89 C241.91,50.89 238.41,47.74 234.1,47.7499763 L224.23,47.7499763 L224.23,48.62 C224.105697,51.2630344 221.873999,53.311733 219.23,53.21 L182.81,53.21 C180.171081,53.3287308 177.934171,51.2886684 177.81,48.65 L177.81,47.77 L168.3,47.77 C163.93,47.86 160.44,51.07 160.44,54.98 Z"/>
    <rect width="58.45" height="14.28" x="173.9" y="93.26" fill="#FFF" fill-rule="nonzero" opacity=".28"/>
    <rect width="58.45" height="14.28" x="173.9" y="72.18" fill="#FFF" fill-rule="nonzero" opacity=".28"/>
    <path fill="url(#coach-(1)-c)" fill-rule="nonzero" d="M203.42,101.07 L203.42,101.98 L234.3,124.44 C234.3,124.44 234.87,129.73 235.7,130.36 C236.998758,131.030282 238.362477,131.566388 239.77,131.96 L239.77,135.47 L247.14,140.58 L249.47,141.38 L249.47,133.98 L239.39,125.98 L236.24,122.38 L235.02,123.38 L203.42,101.07 Z"/>
    <polygon fill="url(#coach-(1)-d)" fill-rule="nonzero" points="196.06 50.05 208.57 50.03 208.57 49.01 196.06 49.03"/>
    <ellipse cx="192.758" cy="49.388" fill="url(#coach-(1)-e)" fill-rule="nonzero" rx="1.36" ry="1.25" transform="rotate(-.56 192.758 49.388)"/>
    <path fill="#863399" fill-rule="nonzero" d="M0,134.5 C0.06,137.01 1.31,139.32 2.54,141.5 C8.16,151.43 14.47,161.22 23.19,168.59 C35.99,179.43 52.77,184.1 68.97,188.48 C67.52,187.77 65.77,180.31 65.13,178.67 C63.88,175.45 62.71,172.21 61.5,168.98 C59.6,163.87 55.6,159.76 51.71,155.98 C42.8925967,147.498181 32.195057,141.220829 20.49,137.66 C13.8428343,135.647255 6.94470997,134.583415 0,134.5 L0,134.5 Z"/>
    <path fill="url(#coach-(1)-f)" fill-rule="nonzero" d="M0,134.5 C0.06,137.01 1.31,139.32 2.54,141.5 C8.16,151.43 14.47,161.22 23.19,168.59 C35.99,179.43 52.77,184.1 68.97,188.48 C67.52,187.77 65.77,180.31 65.13,178.67 C63.88,175.45 62.71,172.21 61.5,168.98 C59.6,163.87 55.6,159.76 51.71,155.98 C42.8925967,147.498181 32.195057,141.220829 20.49,137.66 C13.8428343,135.647255 6.94470997,134.583415 0,134.5 L0,134.5 Z"/>
    <path fill="#863399" fill-rule="nonzero" d="M63.38,140.06 C62.06,130.82 60.7,121.44 56.98,112.88 C53.26,104.32 46.81,96.52 38.06,93.26 C37.8133333,106.5 37.56,119.74 37.3,132.98 C37.16,140.63 37.03,148.42 39.22,155.75 C43.06,168.58 56.42,183.65 69.3,187.89 C71.21,181.72 68.01,172.38 67.1,165.97 L63.38,140.06 Z"/>
    <path fill="url(#coach-(1)-g)" fill-rule="nonzero" d="M63.38,140.06 C62.06,130.82 60.7,121.44 56.98,112.88 C53.26,104.32 46.81,96.52 38.06,93.26 C37.8133333,106.5 37.56,119.74 37.3,132.98 C37.16,140.63 37.03,148.42 39.22,155.75 C43.06,168.58 56.42,183.65 69.3,187.89 C71.21,181.72 68.01,172.38 67.1,165.97 L63.38,140.06 Z"/>
    <path fill="#FFBBAB" fill-rule="nonzero" d="M113.21,121.2 C112.76,121.2 112.48,120.72 112.37,120.28 C112.33051,119.83054 112.140204,119.407638 111.83,119.08 C111.65,118.94 111.39,118.85 111.32,118.63 C111.295026,118.531559 111.295026,118.428441 111.32,118.33 C111.570274,117.299636 112.266814,116.434461 113.22,115.97 C113.7,116.39 114.43,116.38 114.89,116.82 C115.373534,117.363006 115.747105,117.994681 115.99,118.68 L120.47,129.32 L121.87,132.64 C122.408227,133.699518 122.711786,134.86259 122.76,136.05 C122.793023,137.270438 122.045024,138.37635 120.9,138.8 C120.122613,138.968453 119.310712,138.777417 118.69,138.28 C118.079166,137.778185 117.593088,137.141492 117.27,136.42 C116.11,134.08 115.94,131.42 115.59,128.79 C115.24,126.16 114.99,123.12 113.21,121.2 Z"/>
    <path fill="#FFBBAB" fill-rule="nonzero" d="M112.78,129.56 C112.558608,129.380653 112.271225,129.30426 111.99,129.35 C111.843783,129.403514 111.715567,129.497077 111.62,129.62 C110.644427,130.764959 110.273008,132.306351 110.62,133.77 C110.724582,134.397686 111.009489,134.981398 111.44,135.45 C111.915449,135.8662 112.469784,136.182477 113.07,136.38 L117.89,138.3 C118.254471,138.483871 118.663757,138.560178 119.07,138.52 C119.496918,138.397819 119.857086,138.109685 120.07,137.72 C120.686848,136.741398 120.833584,135.538166 120.47,134.44 C119.57,131.63 115.09,130.92 112.78,129.56 Z"/>
    <path fill="#863399" fill-rule="nonzero" d="M107.74,123.1 L111.57,126.74 L114.36,129.39 C114.99,129.99 115.79,130.53 116.05,131.39 C116.370409,132.603582 116.257235,133.890937 115.73,135.03 C115.135231,136.240016 114.695106,137.520074 114.42,138.84 C114.42,138.36 112.89,137.25 112.55,136.98 C111.81,136.4 111.03,135.89 110.29,135.32 C109.55,134.75 108.63,134.16 108.37,133.42 C108.295402,132.943868 108.271936,132.461123 108.3,131.98 L107.81,124.28 L107.74,123.1 Z"/>
    <path fill="url(#coach-(1)-h)" fill-rule="nonzero" d="M107.74,123.1 L111.57,126.74 L114.36,129.39 C114.99,129.99 115.79,130.53 116.05,131.39 C116.370409,132.603582 116.257235,133.890937 115.73,135.03 C115.135231,136.240016 114.695106,137.520074 114.42,138.84 C114.42,138.36 112.89,137.25 112.55,136.98 C111.81,136.4 111.03,135.89 110.29,135.32 C109.55,134.75 108.63,134.16 108.37,133.42 C108.295402,132.943868 108.271936,132.461123 108.3,131.98 L107.81,124.28 L107.74,123.1 Z"/>
    <path fill="#863399" fill-rule="nonzero" d="M162.56,170.1 C160.714194,171.937556 159.677597,174.435464 159.68,177.04 C159.671492,178.417985 159.957903,179.781842 160.52,181.04 C161.717332,183.774058 164.095376,185.813434 166.98,186.58 L166.98,188.83 L48.72,188.83 C42.3668277,188.6446 37.3127463,183.440877 37.3127463,177.085 C37.3127463,170.729123 42.3668277,165.5254 48.72,165.34 L166.98,165.34 L166.98,167.59 C165.311197,168.022484 163.786362,168.888397 162.56,170.1 L162.56,170.1 Z"/>
    <path fill="url(#coach-(1)-i)" fill-rule="nonzero" d="M166.98,186.54 L166.98,188.790011 L48.72,188.790011 C43.6748112,188.796905 39.1913707,185.574307 37.59,180.79 C42.08,181.58 70.52,186.11 86.35,177.08 L160.52,181.08 C161.736647,183.783414 164.111664,185.790782 166.98,186.54 L166.98,186.54 Z"/>
    <path fill="#FFF" fill-rule="nonzero" d="M162.56,170.1 C160.073697,172.582873 159.103463,176.204968 160.015757,179.598209 C160.928052,182.991449 163.583831,185.638667 166.98,186.54 L166.98,186.87 L96.18,186.87 C90.7565638,186.87 86.36,182.473436 86.36,177.05 C86.36,171.626564 90.7565638,167.23 96.18,167.23 L166.98,167.23 L166.98,167.55 C165.30697,167.993886 163.781718,168.87384 162.56,170.1 L162.56,170.1 Z"/>
    <path fill="#FFBBAB" fill-rule="nonzero" d="M148.83,183.54 C149.252375,183.721625 149.710844,183.803739 150.17,183.78 L157.17,183.95 C157.358682,183.960366 157.547797,183.940103 157.73,183.89 C158.14712,183.677291 158.383874,183.223847 158.32,182.76 C158.124168,181.54136 157.16864,180.585832 155.95,180.39 C154.762128,180.211267 153.560807,180.137648 152.36,180.17 C151.371662,180.168427 150.441743,179.701615 149.85,178.91 C149.3,178.22 148.64,177.51 147.73,178.17 C146.3,179.26 147.47,182.81 148.83,183.54 Z"/>
    <path fill="#473F47" fill-rule="nonzero" d="M113.72,151.88 C113.72,151.88 133.27,151.27 138.13,153.31 C142.99,155.35 150.54,178.83 150.54,178.83 L146.46,180.39 C146.46,180.39 139.52,165.77 137.24,164.46 C134.96,163.15 110.53,158.35 110.53,158.35 C110.53,158.35 108.66,156.92 113.72,151.88 Z"/>
    <path fill="url(#coach-(1)-j)" fill-rule="nonzero" d="M113.72,151.88 C113.72,151.88 133.27,151.27 138.13,153.31 C142.99,155.35 150.54,178.83 150.54,178.83 L146.46,180.39 C146.46,180.39 139.52,165.77 137.24,164.46 C134.96,163.15 110.53,158.35 110.53,158.35 C110.53,158.35 108.66,156.92 113.72,151.88 Z"/>
    <path fill="#863399" fill-rule="nonzero" d="M162.56,193.58 C160.700316,195.432831 159.662662,197.954908 159.68,200.58 C159.678284,201.941174 159.964551,203.287312 160.52,204.53 C161.713687,207.266755 164.093267,209.307447 166.98,210.07 L166.98,212.32 L48.72,212.32 C42.236177,212.32 36.98,207.063823 36.98,200.58 C36.98,194.096177 42.236177,188.84 48.72,188.84 L166.98,188.84 L166.98,191.08 C165.313842,191.513575 163.790077,192.375434 162.56,193.58 Z"/>
    <path fill="url(#coach-(1)-k)" fill-rule="nonzero" d="M166.98,209.98 L166.98,212.230011 L48.72,212.230011 C43.6748112,212.236905 39.1913707,209.014307 37.59,204.23 C42.08,205.02 70.52,209.55 86.35,200.53 L160.52,204.48 C161.723414,207.201428 164.101462,209.226082 166.98,209.98 Z"/>
    <path fill="#FFF" fill-rule="nonzero" d="M162.56,193.58 C160.094712,196.064353 159.138025,199.673051 160.048806,203.052419 C160.959587,206.431788 163.600157,209.070981 166.98,209.98 L166.98,210.31 L96.18,210.31 C90.7565638,210.31 86.36,205.913436 86.36,200.49 C86.36,195.066564 90.7565638,190.67 96.18,190.67 L166.98,190.67 L166.98,190.99 C165.304389,191.449261 163.779695,192.342689 162.56,193.58 Z"/>
    <path fill="#FFBBAB" fill-rule="nonzero" d="M143.47,190.4 C143.853908,190.398678 144.235503,190.459463 144.6,190.58 C144.971481,190.702857 145.237186,191.03108 145.28,191.42 C145.251566,191.801425 145.033749,192.143172 144.7,192.33 C144.38,192.53 144.02,192.65 143.7,192.86 C143.43392,193.083387 143.149593,193.284089 142.85,193.46 C142.310379,193.61657 141.734317,193.591982 141.21,193.39 C138.759608,192.79932 136.22501,192.640273 133.72,192.92 C133.474242,192.949936 133.225758,192.949936 132.98,192.92 C132.257883,192.710421 131.694744,192.143502 131.49,191.42 C130.988252,189.893295 130.837843,188.272974 131.05,186.68 C131.051434,186.505162 131.096093,186.333394 131.18,186.18 C131.274385,186.051212 131.402392,185.950882 131.55,185.89 C133.93,184.71 135.23,187.06 136.97,188.2 C138.905881,189.491406 141.147734,190.250187 143.47,190.4 L143.47,190.4 Z"/>
    <path fill="#473F47" fill-rule="nonzero" d="M100.46,153.1 C100.46,153.1 99.87,161.98 107.8,164.66 C113.3,166.51 119.62,166.17 125.31,165.66 C126.31,165.57 127.41,165.33 128.43,165.34 C130.43,165.34 130.02,166.66 130,168.34 C130,172.593333 129.963333,176.843333 129.89,181.09 C129.707156,183.318652 130.024906,185.559989 130.82,187.65 L136.67,186.09 C136.512696,179.934565 136.86725,173.776703 137.73,167.68 C138.11,165.04 138.68,161.74 136.91,159.49 C135.190543,157.475505 132.921415,156.00561 130.38,155.26 L114.54,150.26 L100.46,153.1 Z"/>
    <path fill="#FFBBAB" fill-rule="nonzero" d="M111.87,112.33 C112.16,112.82 112.76,113.11 112.96,113.66 C113.16,114.21 112.74,114.98 112.5,115.66 C112.18,116.57 112.28,117.59 111.96,118.51 C111.90505,118.710279 111.794027,118.890691 111.64,119.03 C111.491053,119.125537 111.324418,119.19015 111.15,119.22 C110.472822,119.359961 109.778849,119.400387 109.09,119.34 C108.960592,119.294247 108.819408,119.294247 108.69,119.34 C108.590348,119.431595 108.526541,119.555662 108.51,119.69 C108.110849,121.423998 108.138301,123.228943 108.59,124.95 C108.74,125.51 108.9,126.21 108.48,126.61 C108.334809,126.751675 108.149963,126.845841 107.95,126.88 C106.64,127.2 105.38,126.23 104.49,125.22 C103.707647,124.302153 103.036338,123.29519 102.49,122.22 C102.311856,121.911472 102.193139,121.572279 102.14,121.22 C102.115284,120.800297 102.169557,120.379683 102.3,119.98 C102.671498,118.546192 102.899289,117.078953 102.98,115.6 C103.08,113.71 102.98,111.74 103.66,109.99 C103.877284,109.390189 104.280119,108.875262 104.81,108.52 C105.434489,108.230938 106.125751,108.11688 106.81,108.19 C108.196872,108.098563 109.565457,108.546399 110.63,109.44 C110.94,109.77 111.5,111.72 111.87,112.33 Z"/>
    <path fill="#863399" fill-rule="nonzero" d="M113.72,151.88 C112.833851,152.652957 111.789487,153.22292 110.66,153.55 C109.86,153.83 109.04,154.09 108.21,154.35 C107.033529,154.703979 105.883921,155.141766 104.77,155.66 C103.59,156.05 102.71,156.34 102.04,156.54 C101.436272,156.754055 100.822163,156.93762 100.2,157.09 C100.261039,157.055379 100.324544,157.025297 100.39,157 C100.39,157 99.99,155.23 99.39,152.75 C98.39,148.19 96.71,141.26 95.9,138.67 C95.518228,137.032164 95.4201399,135.34099 95.61,133.67 C96.02,128.17 98.2,120.99 102.2,121.45 C102.2,121.45 107.86,124.38 109.57,126.66 C111.13,128.77 113.21,130.36 113.23,133.21 C113.28,137.21 111.61,140.96 111.93,145.1 C111.935668,145.703626 112.086588,146.297014 112.37,146.83 C112.85,147.58 113.8,147.94 114.27,148.69 C114.815078,149.757536 114.591096,151.056632 113.72,151.88 L113.72,151.88 Z"/>
    <path fill="url(#coach-(1)-l)" fill-rule="nonzero" d="M107.46,151.09 C108.125449,152.037332 108.394571,153.207112 108.21,154.35 C108.113781,154.735536 107.9049,155.083672 107.61,155.35 C107.13073,155.707043 106.570918,155.940584 105.98,156.03 C104.685905,156.325083 103.366578,156.495858 102.04,156.54 C101.57,156.54 101.1,156.54 100.63,156.54 C100.590084,155.181974 100.170948,153.862213 99.42,152.73 C98.42,148.17 96.74,141.24 95.93,138.65 C95.548228,137.012164 95.4501399,135.32099 95.64,133.65 C96.3119129,132.806735 96.8700297,131.878781 97.3,130.89 C97.6,130.11 98.1,129.26 98.94,129.2 C99.78,129.14 100.27,129.76 100.73,130.34 C103.59,133.99 105.68,138.5 108.19,142.42 C108.319369,142.586374 108.392867,142.789368 108.4,143 C108.342482,143.220002 108.202934,143.409644 108.01,143.53 C106.93,144.43 105.78,145.53 105.66,146.91 C105.54,148.29 106.64,149.78 107.46,151.09 Z"/>
    <path fill="#FFBBAB" fill-rule="nonzero" d="M104.6,146.64 C104.781731,147.180865 105.05208,147.687769 105.4,148.14 C106.322695,149.029946 107.548261,149.537323 108.83,149.56 C110.298492,149.711413 111.773724,149.788178 113.25,149.79 C114.25,149.79 115.83,149.31 116.67,150.11 C116.87,150.31 117.02,150.55 117.23,150.74 C117.783094,151.165012 118.474909,151.368277 119.17,151.31 C120.685067,151.337435 122.195545,151.135139 123.65,150.71 C123.775214,150.700183 123.884817,150.622137 123.935049,150.507021 C123.985281,150.391906 123.967959,150.258474 123.89,150.16 C123.594079,149.283661 123.154778,148.462506 122.59,147.73 C122.013713,146.993016 121.135418,146.555706 120.2,146.54 C119.721653,146.595687 119.249584,146.696128 118.79,146.84 C117.392526,147.042847 115.967935,146.947419 114.61,146.56 C113.027122,146.344826 111.501729,145.821641 110.12,145.02 C109.740183,144.707917 109.430156,144.319531 109.21,143.88 C108.580445,142.692772 108.077672,141.442543 107.71,140.15 C107.56,139.65 107.34,139.08 106.84,138.91 C106.469055,138.827301 106.080448,138.895667 105.76,139.1 C104.532365,139.661485 103.561239,140.664744 103.04,141.91 C102.67,143.19 104.09,145.39 104.6,146.64 Z"/>
    <path fill="#863399" fill-rule="nonzero" d="M104.42,128.88 C104.42,128.88 107.99,138.54 108.69,139.25 C109.39,139.96 101.81,144.25 101.81,144.25 C101.81,144.25 96.87,134.85 97.1,130.78 C97.33,126.71 101.63,125.04 104.42,128.88 Z"/>
    <path fill="#FC682D" fill-rule="nonzero" d="M110.05,109.29 C109.93685,110.220413 109.493249,111.079225 108.8,111.71 C108.13,112.34 107.3,112.76 106.61,113.37 C105.859936,113.922597 105.444876,114.820636 105.51,115.75 C104.957173,115.533067 104.328154,115.738547 104.01,116.24 C103.878126,116.577693 103.939345,116.960312 104.17,117.24 C104.421184,117.526089 104.789866,117.680935 105.17,117.66 C104.452601,117.947956 103.836656,118.442103 103.4,119.08 C102.29,120.73 101,121.97 101.4,124.17 C101.7,125.64 102.49,126.97 102.91,128.41 C103.712247,131.164863 103.124291,134.13779 101.333797,136.379887 C99.5433029,138.621984 96.7740777,139.852992 93.91,139.68 C91.25,139.53 88.48,137.8 88.05,135.17 C87.57,132.17 90.13,129.52 90.42,126.51 C90.57,124.88 90.05,123.2 90.42,121.61 C90.97,119.41 93.08,118.05 94.68,116.45 C98.11,113 98.13,107.3 103.54,105.85 C106.06,105.24 110.3,105.98 110.05,109.29 Z"/>
    <polygon fill="#863399" fill-rule="nonzero" points="120.65 150.08 126.96 134.03 143.64 134.03 135.25 153.31 109.7 152.35 110.52 150.8"/>
    <polygon fill="url(#coach-(1)-m)" fill-rule="nonzero" points="120.65 150.08 126.96 134.03 143.64 134.03 135.25 153.31 109.7 152.35 110.52 150.8"/>
    <path fill="#863399" fill-rule="nonzero" d="M156.3 179.98C155.496669 179.652456 154.580019 179.774169 153.89 180.3 153.55 180.64 153.38 181.11 153.04 181.45 152.554979 181.829556 151.955867 182.033959 151.34 182.03 150.36383 182.101804 149.382481 182.048031 148.42 181.87 148.262373 181.831031 148.097627 181.831031 147.94 181.87 147.680306 181.978963 147.516473 182.238697 147.53 182.52 147.549335 182.792289 147.624205 183.057738 147.75 183.3 147.891574 183.696879 148.145135 184.044223 148.48 184.3 148.816657 184.471549 149.192733 184.550905 149.57 184.53 152.160981 184.655192 154.757596 184.595039 157.34 184.35 157.987669 184.333777 158.609671 184.093458 159.1 183.67 160.54 182.19 157.42 180.34 156.3 179.98zM140.1 188.98C139.76 188.98 139.42 188.98 139.1 188.98 138.97749 188.959852 138.85251 188.959852 138.73 188.98 138.495618 189.078328 138.29678 189.24577 138.16 189.46 137.83 189.88 137.53 190.46 137.03 190.67 136.573214 190.856587 136.091325 190.974532 135.6 191.02 134.491401 191.113646 133.374993 191.036071 132.29 190.79 132.132373 190.751031 131.967627 190.751031 131.81 190.79 131.548275 190.896553 131.383423 191.157903 131.4 191.44 131.419335 191.712289 131.494205 191.977738 131.62 192.22 131.8892 193.184996 132.789223 193.836165 133.79 193.79L137.87 193.79C139.13 193.79 140.39 193.79 141.65 193.74 142.501721 193.725491 143.348286 193.604553 144.17 193.38 144.738119 193.239316 145.246262 192.920412 145.62 192.47 145.985168 191.995452 145.985168 191.334548 145.62 190.86 145.367645 190.621278 145.057463 190.452402 144.72 190.37L142.07 189.45C141.566848 189.259335 141.048285 189.11213 140.52 189.01L140.1 188.98z"/>
    <path fill="#FFBBAB" fill-rule="nonzero" d="M243.16,123.18 L243.09,123.18 C242.774742,122.948703 242.495101,122.672431 242.26,122.36 C241.543506,121.456029 240.665263,120.693077 239.67,120.11 C239.26,119.87 238.67,119.68 238.35,120.04 C238.24,120.16 238.19,120.33 238.07,120.44 C237.79,120.7 237.34,120.53 237.02,120.33 C236.7,120.13 236.29,119.91 235.96,120.11 C235.760604,120.265272 235.648794,120.507527 235.66,120.76 C235.700601,121.34 235.886286,121.900486 236.2,122.39 C236.678119,123.349041 237.226271,124.271539 237.84,125.15 C238.14645,125.690542 238.729123,126.014678 239.35,125.99 C240.301299,125.989365 241.237191,126.23022 242.07,126.69 C242.227435,126.840493 242.425664,126.941347 242.64,126.98 C243.25,127.04 243.46,125.16 243.56,124.73 C243.61,124.52 243.88,123.82 243.78,123.61 C243.68,123.4 243.36,123.29 243.16,123.18 Z"/>
    <polygon fill="#FF6B00" fill-rule="nonzero" points="259.12 160.14 260.09 208.16 266.6 208.16 268.48 170 272.58 208.16 280.04 209.41 281.75 158.57"/>
    <polygon fill="url(#coach-(1)-n)" fill-rule="nonzero" points="259.12 160.14 260.09 208.16 266.6 208.16 268.48 170 272.58 208.16 280.04 209.41 281.75 158.57"/>
    <polygon fill="url(#coach-(1)-o)" fill-rule="nonzero" points="275.58 207.41 275.58 162.9 281.75 158.57 279.67 208.16"/>
    <path fill="#FF6B00" fill-rule="nonzero" d="M241.4,128.7 L241.54,128.82 C241.54,128.82 241.54,128.82 241.54,128.82 C242.93,130.02 253.86,139.43 255.54,138.88 C257.795398,137.861664 259.974388,136.681935 262.06,135.35 L262.61,135.02 L262.61,121.8 L255.75,129.98 L243.62,122.83 L241.4,128.7 Z"/>
    <path fill="url(#coach-(1)-p)" fill-rule="nonzero" d="M241.54,128.82 C241.54,128.82 241.54,128.82 241.54,128.82 C242.93,130.02 253.86,139.43 255.54,138.88 C257.795398,137.861664 259.974388,136.681935 262.06,135.35 C262.128413,134.812892 262.151828,134.271007 262.13,133.73 C262.13,132.56 262.54,129.73 260.74,130.41 C259.28,130.97 258.22,132.86 256.74,133.57 C256.277376,133.984655 255.704055,134.25568 255.09,134.35 C254.09,134.41 253.29,133.6 252.59,132.89 C250.1527,130.382296 247.292221,128.324105 244.14,126.81 C244.004097,126.728885 243.848247,126.687325 243.69,126.689879 C243.51039,126.736233 243.351757,126.841988 243.24,126.99 C242.68,127.61 242.11,128.22 241.54,128.82 Z"/>
    <path fill="#FF6B00" fill-rule="nonzero" d="M276.92,117.66 C278.657483,118.530244 280.349662,119.488144 281.99,120.53 C285.47,122.76 284.85,123.79 284.21,127.64 C282.85966,135.87087 282.190725,144.199121 282.21,152.54 C282.344875,154.550262 282.200161,156.569516 281.78,158.54 C281.42,159.78 280.59,160.82 280.49,162.13 C275.12,162.87 262.83,165.63 259.15,160.13 C255.63,154.85 261.97,136.13 260.79,127.75 C259.61,119.37 270.41,118.48 270.41,118.48 L276.92,117.66 Z"/>
    <path fill="url(#coach-(1)-q)" fill-rule="nonzero" d="M269.52,156.15 L279.25,162.72 L280.84,160.72 C281.781049,157.335853 282.219073,153.831663 282.14,150.32 C281.91,145.08 282.14,146.95 282.14,146.95 L268.45,155.61 L269.52,156.15 Z"/>
    <path fill="#FFBBAB" fill-rule="nonzero" d="M264.67,109.54 C264.663438,110.095017 264.696857,110.649785 264.77,111.2 C265.029153,112.343604 265.478754,113.435493 266.1,114.43 C266.260583,114.780103 266.500198,115.088179 266.8,115.33 C267.421644,115.637246 268.137416,115.694508 268.8,115.49 C268.958085,115.454991 269.121915,115.454991 269.28,115.49 C269.66,115.64 269.71,116.16 269.69,116.57 L269.58,118.48 C269.540036,118.740726 269.585648,119.007381 269.71,119.24 C269.841669,119.400222 270.019894,119.515544 270.22,119.57 C271.656676,120.041614 273.236313,119.684178 274.33,118.64 C274.596288,118.392955 274.813439,118.097765 274.97,117.77 C275.098942,117.450347 275.17982,117.113356 275.21,116.77 C275.44,114.94 275.21,113.09 275.38,111.26 C275.6174,109.748384 275.661086,108.212667 275.51,106.69 C275.217637,105.034626 274.113022,103.63695 272.57,102.97 C270.992154,102.471403 269.293512,102.510089 267.74,103.08 C266.977354,103.294229 266.226344,103.547904 265.49,103.84 C265.131758,103.934529 264.821586,104.159137 264.62,104.47 C264.33,105.06 264.62,105.91 264.62,106.54 C264.69,107.55 264.67,108.55 264.67,109.54 Z"/>
    <path fill="#963637" fill-rule="nonzero" d="M277.5,102.7 C276.06,100.54 272.7,100.5 270.36,100.19 C270.02487,100.17106 269.70065,100.064136 269.42,99.88 C269.281946,99.7785868 269.191141,99.6253298 269.168501,99.4555332 C269.145862,99.2857365 269.19334,99.1140416 269.3,98.98 L267.52,99.98 L267.52,98.66 C266.909396,99.1430424 266.264349,99.5808723 265.59,99.97 L265.59,98.79 C263.98279,100.040516 263.294556,102.140818 263.85,104.1 C264.42,106.1 267.44,106.31 269.13,106.22 C269.595809,106.179992 270.064191,106.179992 270.53,106.22 C270.994253,106.271401 271.425874,106.483674 271.75,106.82 C272.125206,107.454566 272.334961,108.173233 272.36,108.91 C272.366236,108.953589 272.383441,108.994879 272.41,109.03 C272.43985,109.03424 272.47015,109.03424 272.5,109.03 C273.02,109.09 273.5,108.48 273.98,108.69 C274.216485,108.821746 274.365041,109.069338 274.37,109.34 C274.407312,109.65929 274.362569,109.982821 274.24,110.28 C274.176168,110.39429 274.135397,110.520001 274.12,110.65 C274.125657,110.736136 274.145947,110.820679 274.18,110.9 L274.51,111.81 C274.595571,112.145503 274.797592,112.439674 275.08,112.64 C275.512253,112.771022 275.981391,112.677194 276.33,112.39 C276.590855,112.257851 276.81956,112.070109 277,111.84 C277.119486,111.636433 277.200818,111.412769 277.24,111.18 C277.680138,108.91454 277.861301,106.606387 277.78,104.3 C277.801209,103.752844 277.705762,103.207436 277.5,102.7 L277.5,102.7 Z"/>
    <path fill="#FFF" fill-rule="nonzero" d="M275.22,116.79 C275.22,116.79 276.71,117.79 276.67,118.96 C276.63,120.13 268.55,142.86 268.55,142.86 C268.55,142.86 268.37,121.07 268.55,120.06 C268.824646,119.075188 269.189524,118.117801 269.64,117.2 C269.64,117.2 272.87,119.54 275.22,116.79 Z"/>
    <polygon fill="#212741" fill-rule="nonzero" points="272.58 118.84 273.12 120.6 272.21 121.37 271.77 133.72 268.56 142.85 268.48 133.57 271.24 121.31 270.23 119.58 271.56 118.84"/>
    <path fill="#FF6B00" fill-rule="nonzero" d="M266.6,150.98 C267.551786,152.183358 268.631449,153.279787 269.82,154.25 L270.56,154.84 C270.828916,155.073198 271.158218,155.225717 271.51,155.28 C271.75288,155.274612 271.991703,155.216613 272.21,155.11 C276.913851,153.278667 281.522965,151.212742 286.02,148.92 C287.91,147.92 289.97,146.69 290.37,144.61 C290.47339,143.888875 290.456495,143.155597 290.32,142.44 C289.607761,137.184607 288.233517,132.040433 286.23,127.13 C285.66,125.74 284.96,123.06 283.47,122.13 L283.29,122.04 L283.08,121.94 C281.08,121.22 279.34,123.22 278.79,124.94 C278.166266,127.399108 278.245961,129.983987 279.02,132.4 C279.79343,134.798177 280.365414,137.256705 280.73,139.75 C280.782324,140.086411 280.747904,140.430611 280.63,140.75 C280.439939,141.06825 280.175772,141.335848 279.86,141.53 L266.6,150.98 Z"/>
    <path fill="#212741" fill-rule="nonzero" d="M266.6 208.16L266.25 211.7 264.02 212.11 263.02 211.23 261.3 212.58 254.61 212.58C254.61 212.58 252.91 209.65 256.61 208.65L260.3 207.65 266.6 208.16zM279.66 208.16L279.31 211.7 277.08 212.11 276.08 211.23 274.38 212.58 267.69 212.58C267.69 212.58 265.99 209.65 269.69 208.65L273.38 207.65 279.66 208.16z"/>
    <polygon fill="url(#coach-(1)-r)" fill-rule="nonzero" points="268.48 170 265.49 167.57 263.38 207.65 266.6 208.16"/>
    <path fill="url(#coach-(1)-s)" fill-rule="nonzero" d="M269.82,154.25 L270.56,154.84 C270.828916,155.073198 271.158218,155.225717 271.51,155.28 C271.75288,155.274612 271.991703,155.216613 272.21,155.11 C276.913851,153.278667 281.522965,151.212742 286.02,148.92 C287.91,147.92 289.97,146.69 290.37,144.61 C290.47339,143.888875 290.456495,143.155597 290.32,142.44 C289.607761,137.184607 288.233517,132.040433 286.23,127.13 C285.66,125.74 284.96,123.06 283.47,122.13 L283.29,122.04 L283.08,121.94 C281.153718,121.913607 279.42624,123.121633 278.79,124.94 C278.79,124.94 285.91,139.5 285.6,141.7 C285.29,143.9 270.35,150.98 270.35,150.98 L269.82,154.25 Z"/>
    <path fill="#FFBBAB" fill-rule="nonzero" d="M263.3,152.2 C262.909698,152.298555 262.544912,152.479243 262.23,152.73 C261.919875,152.995633 261.787973,153.414615 261.89,153.81 C262.007687,154.034913 262.14488,154.249067 262.3,154.45 C262.49,154.79 262.52,155.22 262.69,155.57 C263.034211,156.103588 263.565798,156.488899 264.18,156.65 C265.96,157.29 268.13,157.38 269.57,156.15 C270.57,155.26 272.71,151.57 270.4,151.01 C269.416827,150.950431 268.430522,151.051764 267.48,151.31 C266.064536,151.491053 264.666448,151.788732 263.3,152.2 L263.3,152.2 Z"/>
    <polygon fill="#FFF" fill-rule="nonzero" points="203.72 100.74 203.42 101.07 246.78 127.66 247.1 126.94"/>
    <path fill="#FFBBAB" fill-rule="nonzero" d="M235.68,120.98 C235.61072,120.655682 235.664165,120.317195 235.83,120.03 C236.064157,119.772766 236.402945,119.636514 236.75,119.66 C236.91502,119.646247 237.081159,119.6632 237.24,119.71 C237.6,119.84 237.81,120.2 238.04,120.51 C238.112861,120.60616 238.19677,120.693425 238.29,120.77 C238.417298,120.854371 238.555149,120.921615 238.7,120.97 C238.904693,121.033256 239.099818,121.124091 239.28,121.24 C239.557399,121.451 239.788793,121.716422 239.96,122.02 C240.128421,122.26183 240.272458,122.519757 240.39,122.79 C240.520781,123.141317 240.578624,123.515593 240.56,123.89 C240.571786,124.016741 240.540042,124.143716 240.47,124.25 C240.376652,124.351296 240.247532,124.412269 240.11,124.42 C239.559981,124.46392 239.011024,124.323161 238.55,124.02 C238.08,123.74 237.66,123.37 237.22,123.02 C236.428173,122.603635 235.863484,121.855605 235.68,120.98 Z"/>
  </g>
</svg>
