<svg xmlns="http://www.w3.org/2000/svg" width="347" height="220" viewBox="0 0 347 220">
  <g fill="none">
    <path fill="#E6E6E6" d="M5.53,76.15 C-5.47,116.29 -3.89,168.15 52.81,206.69 L293.51,206.69 C293.51,206.69 343.86,190.83 346,132.8 C348.14,74.77 329,-4.13 261.69,1.09 C194.38,6.31 162.43,25.52 117.81,12.78 L115,12 C67.29,-0.48 18.54,28.55 5.53,76.15 Z" opacity=".3"/>
    <path fill="#FFD200" d="M237.18,94.8 C237.18,94.8 218.72,111.09 225.25,145.8 C231.78,180.51 227.88,206.65 227.88,206.65 L248,206.65 L251,155 L237.18,94.8 Z"/>
    <path fill="#93D500" d="M237.18,94.8 C237.18,94.8 218.72,111.09 225.25,145.8 C231.78,180.51 227.88,206.65 227.88,206.65 L248,206.65 L251,155 L237.18,94.8 Z" opacity=".46"/>
    <path fill="#F4A28C" d="M138.31,110.29 L123.69,134.09 C116.834193,145.26349 118.708887,159.706964 128.19,168.76 L141.33,181.29 C141.33,181.29 143.94,194.22 148.9,194.74 C153.86,195.26 150.73,177.45 150.73,177.45 L138.31,110.29 Z"/>
    <path fill="#F2BF8C" d="M86.93,93 C86.93,93 98.01,94 103.5,100.82 C108.99,107.64 98.8,164.92 108.5,185.82 L101.19,187.65 C101.19,187.65 72.72,124.05 86.93,93 Z"/>
    <rect width="41.56" height="32.05" x="79.85" y="174.14" fill="#FFD200"/>
    <path fill="#863399" d="M158.85,90.61 C158.85,90.61 130.18,101.47 117.85,139.26 L139.1,145.15 L158.85,90.61 Z"/>
    <path fill="#FF6B00" d="M158.85,90.61 C158.85,90.61 130.18,101.47 117.85,139.26 L139.1,145.15 L158.85,90.61 Z" opacity=".46"/>
    <polygon fill="#24285B" points="242.49 180.2 247.99 206.69 265.56 206.69 293.51 206.69 290.8 180.2"/>
    <rect width="274.33" height="12.56" x="37.92" y="206.69" fill="#E6E6E6"/>
    <path fill="#F4A28C" d="M158.93,60.68 C158.93,60.68 158.6,67.54 159.93,72.04 C160.191531,72.9212057 160.792958,73.662127 161.60156,74.0992598 C162.410162,74.5363926 163.359472,74.6338049 164.24,74.37 C166.5,73.66 169.35,72.06 169.97,68.37 L171.79,62.29 C172.27163,59.7115796 171.067648,57.1109769 168.79,55.81 C164.83,53.22 158.92,56.49 158.93,60.68 Z"/>
    <polygon fill="#F4A28C" points="171.45 63.44 175.84 85.51 163.5 87.06 165.26 70.38"/>
    <path fill="#FFD200" d="M160.64,60.9 C162.764164,60.8959453 164.881019,60.6510476 166.95,60.17 C165.769858,62.1237237 165.864189,64.5920452 167.19,66.45 C168.451952,68.2913366 170.842441,68.9791264 172.89,68.09 L172.44,59.28 C172.397371,56.7063347 170.945702,54.3636954 168.66,53.18 C167.690533,52.6736371 166.688299,52.2326538 165.66,51.86 C163.08,50.93 159.43,52.77 157.08,51.15 C156.601444,50.8185542 155.983647,50.7638052 155.454261,51.0059273 C154.924876,51.2480494 154.562247,51.7512102 154.5,52.33 C154.21,55.03 154.85,59.23 158.5,60.56 C159.189599,60.7909946 159.912765,60.9058902 160.64,60.9 Z"/>
    <path fill="#F4A28C" d="M166.45 66.27C166.45 66.27 166.45 63.63 168.39 63.76 170.33 63.89 170.48 67.7 167.8 68.16L166.45 66.27zM158.94 65L157.13 67.72C156.919995 68.0344349 156.886206 68.4346916 157.040527 68.7798822 157.194847 69.1250728 157.515645 69.3668086 157.89 69.42L160.53 69.81 158.94 65z"/>
    <path fill="#CE8172" d="M164.72,74 C166.252327,73.5551119 167.619374,72.6680967 168.65,71.45 C168.65,71.45 168.65,75.57 164.27,79.81 L164.72,74 Z" opacity=".31"/>
    <path fill="#F2BF8C" d="M86.63,64.68 C86.63,64.68 87.43,71.5 86.42,76.08 C86.2218001,76.9762642 85.6746017,77.7565934 84.8994953,78.2483074 C84.1243888,78.7400214 83.1852852,78.9025763 82.29,78.7 C79.99,78.15 77.03,76.7 76.16,73.15 L73.92,67.22 C73.2571298,64.6870529 74.2678526,62.011846 76.44,60.55 C80.22,57.64 86.35,60.5 86.63,64.68 Z"/>
    <polygon fill="#F2BF8C" points="74.33 68.29 71.47 90.62 83.89 91.31 80.98 74.79"/>
    <path fill="#F2BF8C" d="M86.92,69 L88.92,71.59 C89.1471414,71.8888859 89.2061752,72.2829714 89.0765848,72.6352955 C88.9469943,72.9876197 88.6466749,73.2495293 88.28,73.33 L85.67,73.91 L86.92,69 Z"/>
    <path fill="#CE8172" d="M81.77,78.38 C80.21477,78.0375843 78.7933074,77.2486551 77.68,76.11 C77.68,76.11 77.98,80.21 82.63,84.11 L81.77,78.38 Z" opacity=".31"/>
    <path fill="#9B6448" d="M246.39,61.1 C246.39,61.1 246.06,67.97 247.39,72.47 C247.646741,73.3517305 248.24634,74.0936808 249.054558,74.5297423 C249.862775,74.9658037 250.812101,75.0595525 251.69,74.79 C253.95,74.09 256.8,72.49 257.42,68.79 L259.24,62.72 C259.72163,60.1415796 258.517648,57.5409769 256.24,56.24 C252.3,53.64 246.38,56.91 246.39,61.1 Z"/>
    <polygon fill="#9B6448" points="258.92 63.86 263.31 85.94 250.97 87.49 252.73 70.8"/>
    <path fill="#9B6448" d="M246.4,65.44 L244.59,68.16 C244.384788,68.4739749 244.353708,68.8708763 244.507548,69.2129667 C244.661387,69.5550571 244.978938,69.7951781 245.35,69.85 L247.99,70.25 L246.4,65.44 Z"/>
    <path fill="#774B37" d="M252.19,74.44 C253.716481,73.9885096 255.078546,73.1024726 256.11,71.89 C256.11,71.89 256.11,76.01 251.73,80.24 L252.19,74.44 Z"/>
    <path fill="#FF6B00" d="M163.5,87.06 L175.84,85.51 C175.84,85.51 206.65,82.24 215.25,111.51 C223.85,140.78 205.93,180.2 205.93,180.2 L147.14,180.2 C147.14,180.2 105.3,105.77 163.5,87.06 Z"/>
    <path fill="#93D500" d="M250.37,87.06 L262.71,85.51 C262.71,85.51 293.51,82.24 302.12,111.51 C310.73,140.78 292.8,180.2 292.8,180.2 L242.49,180.2 C242.49,180.2 204.87,100.81 250.37,87.06 Z"/>
    <path fill="#24285B" d="M246.55,59.93 L255.09,59.93 L253.91,65.14 L256.65,65.44 L259.79,68.27 L260.23,59.04 C260.23,59.04 260.35,55.57 258.38,54.26 C256.41,52.95 245.3,50.18 246.55,59.93 Z"/>
    <path fill="#000" d="M266,100.83 C266,100.83 252.63,117.07 273.18,132.83 C293.73,148.59 266.18,180.23 266.18,180.23 L290.8,180.23 L312.25,146.48 L302.06,116.87 L268,100.87 L266,100.83 Z" opacity=".08"/>
    <polygon fill="#24285B" points="147.14 180.2 144.26 206.69 209.05 206.69 203.83 179.84"/>
    <path fill="#9B6448" d="M253.89,65.81 C253.89,65.81 253.84,63.17 255.84,63.29 C257.84,63.41 257.93,67.24 255.24,67.7 L253.89,65.81 Z"/>
    <path fill="#FFD200" d="M266,100.83 C268.52,90.83 280.42,86.43 289.2,91.9 C296.68,96.56 306.26,104.66 315.29,118.54 C333.93,147.22 326.29,170.64 293.54,183.54 L286.37,174.7 C286.37,174.7 310.99,155.17 296.37,134.7 C284.93,118.63 262.29,115.42 266,100.83 Z"/>
    <path fill="#24285B" d="M73.38,72.44 C73.38,72.44 79.38,74.75 82.09,66.93 L89.55,66.11 C89.55,66.11 87.32,57.7 81.47,55.88 C75.62,54.06 63.14,59.63 73.38,72.44 Z"/>
    <path fill="#000" d="M182.3,97.2 C182.3,97.2 167.25,107.77 176.65,130.2 C186.05,152.63 175.84,180.2 175.84,180.2 L203.84,179.84 L205.93,136.54 L182.3,97.2 Z" opacity=".08"/>
    <path fill="#93D500" d="M266,100.83 C268.52,90.83 280.42,86.43 289.2,91.9 C296.68,96.56 306.26,104.66 315.29,118.54 C333.93,147.22 326.29,170.64 293.54,183.54 L286.37,174.7 C286.37,174.7 310.99,155.17 296.37,134.7 C284.93,118.63 262.29,115.42 266,100.83 Z" opacity=".46"/>
    <path fill="#F4A28C" d="M185,108 C182.07,96.16 196.07,87.7 205.44,95.51 C210.285654,99.5326185 213.791196,104.935687 215.49,111 C221.81,132.69 209.05,206.66 209.05,206.66 L194.94,206.66 C194.94,206.66 198.34,166.48 195.2,145.21 C193,130.48 187.69,118.86 185,108 Z"/>
    <path fill="#F2BF8C" d="M80.44,71 C80.44,71 80.3,68.36 78.32,68.62 C76.34,68.88 76.51,72.71 79.22,72.98 L80.44,71 Z"/>
    <circle cx="66.25" cy="59.25" r="5.52" fill="#24285B"/>
    <path fill="#863399" d="M71.47,90.62 L83.89,91.31 C83.89,91.31 115.34,107.13 109.42,126.96 C103.5,146.79 101,169.78 101,169.78 L60.73,169.78 C60.73,169.78 23.07,105.16 71.47,90.62 Z"/>
    <path fill="#863399" d="M66.21,92.45 C66.21,92.45 65.21,84.45 74.76,85.45 C84.31,86.45 88.66,86.61 86.93,93.06 C86.93,93 73,99.89 66.21,92.45 Z"/>
    <path fill="#000" d="M52.81,127 C52.81,127 57,158 73.72,169.82 L101,169.82 L103.43,153.31 L89.56,153.72 L52.81,127 Z" opacity=".08"/>
    <path fill="#9B6448" d="M287.68,176.36 C287.68,176.36 278,183 281.86,187.55 C285.72,192.1 293.51,183.55 293.51,183.55 L287.68,176.36 Z"/>
    <path fill="#F2BF8C" d="M83.51,117.63 C79,105.15 61.62,103.5 55.45,115.24 C54.5137263,117.002679 53.9519703,118.939886 53.8,120.93 C53.16,129.39 65.23,147.23 74.8,159.93 C80.9436202,168.056763 92.3841591,169.931251 100.8,164.19 L129.34,144.67 C129.34,144.67 139.79,144.17 141.71,139.52 C143.63,134.87 127.6,136.28 127.6,136.28 L102.08,149.28 C99.720084,150.467147 96.9382319,150.470533 94.5754334,149.289133 C92.2126348,148.107734 90.546232,145.880221 90.08,143.28 C88.5713803,134.569791 86.374496,125.992914 83.51,117.63 Z"/>
    <path fill="#863399" d="M200.51,91.31 C200.51,91.31 227.34,103.18 219,149 L190.24,149 C190.24,149 187.06,128.1 182.24,111.38 C177.42,94.66 188.57,85.65 200.51,91.31 Z"/>
    <path fill="#FF6B00" d="M200.51,91.31 C200.51,91.31 227.34,103.18 219,149 L190.24,149 C190.24,149 187.06,128.1 182.24,111.38 C177.42,94.66 188.57,85.65 200.51,91.31 Z" opacity=".46"/>
    <polygon fill="#24285B" points="60.72 169.78 52.81 206.69 110.16 206.69 100.99 169.78"/>
  </g>
</svg>
