<?xml version="1.0" encoding="UTF-8"?>
<svg width="227px" height="199px" viewBox="0 0 227 199" version="1.1" xmlns="http://www.w3.org/2000/svg" xmlns:xlink="http://www.w3.org/1999/xlink">
    <title>Group</title>
    <g id="a" stroke="none" stroke-width="1" fill="none" fill-rule="evenodd">
        <g id="Artboard" transform="translate(-283.000000, -194.000000)" fill-rule="nonzero">
            <g id="Group" transform="translate(283.782672, 194.432500)">
                <rect id="Rectangle" fill="#FFFFFF" x="25.6699707" y="1.11511602" width="25.2462266" height="195.79207"></rect>
                <path d="M51.1434646,197.5675 L26.3131075,197.5675 C25.7079253,197.5675 25.2173283,197.068246 25.2173283,196.452384 L25.2173283,0.682616017 C25.2173283,0.0667544466 25.7079253,-0.4325 26.3131075,-0.4325 L51.121549,-0.4325 C51.7267312,-0.4325 52.2173283,0.0667544466 52.2173283,0.682616017 L52.2173283,196.452384 C52.2173283,197.05964 51.7400711,197.555355 51.1434646,197.5675 Z M27.2173283,195.5675 L50.2173283,195.5675 L50.2173283,2.5675 L27.2173283,2.5675 L27.2173283,195.5675 Z" id="Shape" fill="#231F20"></path>
                <rect id="Rectangle" fill="#FFFFFF" x="180.269655" y="1.11511602" width="25.2462266" height="195.79207"></rect>
                <path d="M205.121549,197.5675 L180.313107,197.5675 C179.707925,197.5675 179.217328,197.068246 179.217328,196.452384 L179.217328,0.682616017 C179.217328,0.0667544466 179.707925,-0.4325 180.313107,-0.4325 L205.121549,-0.4325 C205.726731,-0.4325 206.217328,0.0667544466 206.217328,0.682616017 L206.217328,196.452384 C206.217328,197.068246 205.726731,197.5675 205.121549,197.5675 Z M181.217328,195.5675 L204.217328,195.5675 L204.217328,2.5675 L181.217328,2.5675 L181.217328,195.5675 Z" id="Shape" fill="#231F20"></path>
                <rect id="Rectangle" fill="#FFFFFF" x="1.07051138" y="15.7900428" width="223.959901" height="67.2191935"></rect>
                <path d="M225.10293,83.5675 L1.33172669,83.5675 C0.71626144,83.5675 0.217328272,83.0714764 0.217328272,82.4596002 L0.217328272,15.6753998 C0.217328272,15.0635236 0.71626144,14.5675 1.33172669,14.5675 L225.10293,14.5675 C225.718395,14.5675 226.217328,15.0635236 226.217328,15.6753998 L226.217328,82.4596002 C226.217328,83.0714764 225.718395,83.5675 225.10293,83.5675 Z M2.21732827,81.5675 L224.217328,81.5675 L224.217328,16.5675 L2.21732827,16.5675 L2.21732827,81.5675 Z" id="Shape" fill="#231F20"></path>
                <polygon id="Path" fill="#8DCCF4" points="81.9833296 83.0092363 47.6377563 83.0092363 5.19644064 15.7900428 39.542014 15.7900428"></polygon>
                <path d="M82.0857179,83.5675 L47.7124701,83.5675 C47.333034,83.5675 46.9799131,83.3748417 46.7750178,83.0577042 L4.36646534,16.252283 C4.16761591,15.9013481 4.16761591,15.472801 4.36646534,15.1218661 C4.56858279,14.7741336 4.94428408,14.5621518 5.34855814,14.5675 L39.721806,14.5675 C40.1034295,14.5597025 40.4605371,14.7539012 40.6592582,15.077536 L83.0678107,81.8829572 C83.2671675,82.2258515 83.2671675,82.6483147 83.0678107,82.991209 C82.8679835,83.3440855 82.4933821,83.5639012 82.0857179,83.5675 Z M48.3819008,81.5675 L80.2173283,81.5675 L39.142244,16.5675 L7.21732827,16.5675 L48.3819008,81.5675 Z" id="Shape" fill="#231F20"></path>
                <polygon id="Path" fill="#8DCCF4" points="151.455057 83.0092363 117.087182 83.0092363 74.6681685 15.7900428 109.013742 15.7900428"></polygon>
                <path d="M151.094924,83.5675 L116.705147,83.5675 C116.325775,83.5675 115.972713,83.3748417 115.767853,83.0577042 L73.3664402,16.252283 C73.1676243,15.9013481 73.1676243,15.472801 73.3664402,15.1218661 C73.5574952,14.7741198 73.9272573,14.5606012 74.3260511,14.5675 L108.715828,14.5675 C109.097388,14.5597025 109.454435,14.7539012 109.653123,15.077536 L152.054535,81.8829572 C152.262832,82.2226987 152.271832,82.6472557 152.078119,82.9954044 C151.884406,83.3435532 151.517694,83.5618891 151.117241,83.5675 L151.094924,83.5675 Z M117.39452,81.5675 L149.217328,81.5675 L108.040136,16.5675 L76.2173283,16.5675 L117.39452,81.5675 Z" id="Shape" fill="#231F20"></path>
                <polygon id="Path" fill="#8DCCF4" points="220.904483 83.0092363 186.55891 83.0092363 144.117594 15.7900428 178.463167 15.7900428"></polygon>
                <path d="M221.085718,83.5675 L186.71247,83.5675 C186.333034,83.5675 185.979913,83.3748417 185.775018,83.0577042 L143.366465,16.252283 C143.167616,15.9013481 143.167616,15.472801 143.366465,15.1218661 C143.568583,14.7741336 143.944284,14.5621518 144.348558,14.5675 L178.721806,14.5675 C179.103429,14.5597025 179.460537,14.7539012 179.659258,15.077536 L222.067811,81.8829572 C222.267167,82.2258515 222.267167,82.6483147 222.067811,82.991209 C221.867983,83.3440855 221.493382,83.5639012 221.085718,83.5675 Z M187.401402,81.5675 L219.217328,81.5675 L178.077971,16.5675 L146.217328,16.5675 L187.401402,81.5675 Z" id="Shape" fill="#231F20"></path>
                <rect id="Rectangle" fill="#FFFFFF" x="1.07051138" y="109.749718" width="219.833972" height="21.72246"></rect>
                <path d="M221.057943,132.566606 L1.33212188,132.566606 C0.716438372,132.566606 0.217328272,132.066849 0.217328272,131.450368 L0.217328272,109.683737 C0.217328272,109.067257 0.716438372,108.5675 1.33212188,108.5675 L221.102534,108.5675 C221.718218,108.5675 222.217328,109.067257 222.217328,109.683737 L222.217328,131.450368 C222.217328,131.754314 222.094018,132.045215 221.875208,132.255882 C221.656397,132.46655 221.361252,132.578764 221.057943,132.566606 Z M2.21732827,130.5675 L220.217328,130.5675 L220.217328,110.5675 L2.21732827,110.5675 L2.21732827,130.5675 Z" id="Shape" fill="#231F20"></path>
            </g>
        </g>
    </g>
</svg>