<svg xmlns="http://www.w3.org/2000/svg" width="197" height="196" viewBox="0 0 197 196">
  <path fill="#93D500" d="M98.5,42.9125 C92.905,40.0562 86.552,39.0186 80.3338,39.9455 C74.1159,40.8725 68.3464,43.7174 63.8372,48.08 C58.3362,53.5644 55.2464,60.9987 55.2464,68.75 C55.2464,76.5013 58.3362,83.936 63.8372,89.42 L91.548,117.5 C92.458,118.414 93.541,119.139 94.734,119.634 C95.927,120.129 97.207,120.384 98.5,120.384 C99.792,120.384 101.072,120.129 102.265,119.634 C103.459,119.139 104.541,118.414 105.452,117.5 L133.162,89.908 C138.663,84.423 141.753,76.9888 141.753,69.2375 C141.753,61.4862 138.663,54.0519 133.162,48.5675 C128.709,44.1253 122.967,41.1893 116.747,40.1745 C110.526,39.1597 104.143,40.1175 98.5,42.9125 L98.5,42.9125 Z M119.258,75.6725 L98.5,96.342 L77.7413,75.6725 C76.8236,74.7661 76.0951,73.6878 75.598,72.4996 C75.1009,71.3115 74.845,70.0371 74.845,68.75 C74.845,67.4629 75.1009,66.1885 75.598,65.0004 C76.0951,63.8122 76.8236,62.7339 77.7413,61.8275 C79.5759,60.0116 82.058,58.9923 84.644,58.9923 C87.231,58.9923 89.713,60.0116 91.548,61.8275 C92.458,62.7414 93.541,63.4667 94.734,63.9617 C95.927,64.4567 97.207,64.7115 98.5,64.7115 C99.792,64.7115 101.072,64.4567 102.265,63.9617 C103.459,63.4667 104.541,62.7414 105.452,61.8275 C107.286,60.0116 109.768,58.9923 112.355,58.9923 C114.942,58.9923 117.423,60.0116 119.258,61.8275 C120.176,62.7339 120.904,63.8122 121.401,65.0004 C121.898,66.1885 122.154,67.4629 122.154,68.75 C122.154,70.0371 121.898,71.3115 121.401,72.4996 C120.904,73.6878 120.176,74.7661 119.258,75.6725 L119.258,75.6725 Z M167.041,0.5 L29.958,0.5 C22.1673,0.5 14.6956,3.5817 9.1867,9.0671 C3.6779,14.5526 0.583,21.9924 0.583,29.75 L0.583,127.25 C0.583,135.008 3.6779,142.447 9.1867,147.933 C14.6956,153.418 22.1673,156.5 29.958,156.5 L143.443,156.5 L179.673,192.672 C180.588,193.576 181.673,194.291 182.866,194.776 C184.059,195.261 185.336,195.507 186.625,195.5 C187.909,195.533 189.183,195.266 190.346,194.72 C192.134,193.989 193.664,192.746 194.745,191.15 C195.825,189.554 196.407,187.675 196.416,185.75 L196.416,29.75 C196.416,21.9924 193.321,14.5526 187.813,9.0671 C182.304,3.5817 174.832,0.5 167.041,0.5 Z M176.833,162.253 L154.41,139.828 C153.495,138.924 152.41,138.209 151.217,137.724 C150.024,137.239 148.747,136.993 147.458,137 L29.958,137 C27.3611,137 24.8706,135.973 23.0343,134.144 C21.198,132.316 20.1663,129.836 20.1663,127.25 L20.1663,29.75 C20.1663,27.1641 21.198,24.6842 23.0343,22.8557 C24.8706,21.0272 27.3611,20 29.958,20 L167.041,20 C169.638,20 172.129,21.0272 173.965,22.8557 C175.801,24.6842 176.833,27.1641 176.833,29.75 L176.833,162.253 Z"/>
</svg>
