<svg xmlns="http://www.w3.org/2000/svg" width="345" height="311" viewBox="0 0 345 311">
  <defs>
    <linearGradient id="hero7-a" x1="52.288%" x2="49.482%" y1="31.05%" y2="54.28%">
      <stop offset="1%"/>
      <stop offset="8%" stop-opacity=".69"/>
      <stop offset="21%" stop-opacity=".32"/>
      <stop offset="100%" stop-opacity="0"/>
    </linearGradient>
    <linearGradient id="hero7-b" x1="113.298%" x2="-86.1%" y1="53.928%" y2="41.882%">
      <stop offset="0%"/>
      <stop offset="8%" stop-opacity=".69"/>
      <stop offset="21%" stop-opacity=".32"/>
      <stop offset="100%" stop-opacity="0"/>
    </linearGradient>
    <linearGradient id="hero7-c" x1="79.615%" x2="-34.2%" y1="62.124%" y2="2.355%">
      <stop offset="1%"/>
      <stop offset="8%" stop-opacity=".69"/>
      <stop offset="21%" stop-opacity=".32"/>
      <stop offset="100%" stop-opacity="0"/>
    </linearGradient>
    <linearGradient id="hero7-d" x1="99.995%" x2="-.21%" y1="50.025%" y2="50.025%">
      <stop offset="0%" stop-color="#E5C5D5"/>
      <stop offset="42%" stop-color="#EAD4D1"/>
      <stop offset="100%" stop-color="#F0E9CB"/>
    </linearGradient>
    <linearGradient id="hero7-e" x1="16.296%" x2="70.544%" y1="-32.829%" y2="114.846%">
      <stop offset="0%" stop-opacity="0"/>
      <stop offset="99%"/>
    </linearGradient>
    <linearGradient id="hero7-f" x1=".014%" x2="99.828%" y1="49.987%" y2="49.987%">
      <stop offset="0%" stop-color="#E5C5D5"/>
      <stop offset="42%" stop-color="#EAD4D1"/>
      <stop offset="100%" stop-color="#F0E9CB"/>
    </linearGradient>
    <linearGradient id="hero7-g" x1="152.13%" x2="-18.337%" y1="168.805%" y2="-41.471%">
      <stop offset="1%"/>
      <stop offset="8%" stop-opacity=".69"/>
      <stop offset="21%" stop-opacity=".32"/>
      <stop offset="100%" stop-opacity="0"/>
    </linearGradient>
    <linearGradient id="hero7-h" x1="-.008%" x2="99.991%" y1="50.009%" y2="50.009%">
      <stop offset="1%"/>
      <stop offset="8%" stop-opacity=".69"/>
      <stop offset="21%" stop-opacity=".32"/>
      <stop offset="100%" stop-opacity="0"/>
    </linearGradient>
    <linearGradient id="hero7-i" x1="-.006%" x2="99.892%" y1="49.984%" y2="49.984%">
      <stop offset="0%" stop-color="#E5C5D5"/>
      <stop offset="42%" stop-color="#EAD4D1"/>
      <stop offset="100%" stop-color="#F0E9CB"/>
    </linearGradient>
    <linearGradient id="hero7-j" x1="59.839%" x2="41.426%" y1="-53.419%" y2="133.631%">
      <stop offset="0%" stop-color="#E5C5D5"/>
      <stop offset="42%" stop-color="#EAD4D1"/>
      <stop offset="100%" stop-color="#F0E9CB"/>
    </linearGradient>
    <linearGradient id="hero7-k" x1="46.252%" x2="70.195%" y1="35.485%" y2="101.96%">
      <stop offset="0%" stop-color="#E5C5D5"/>
      <stop offset="42%" stop-color="#EAD4D1"/>
      <stop offset="100%" stop-color="#F0E9CB"/>
    </linearGradient>
    <linearGradient id="hero7-l" x1="-1.252%" x2="116.285%" y1="66.056%" y2="26.471%">
      <stop offset="1%"/>
      <stop offset="8%" stop-opacity=".69"/>
      <stop offset="21%" stop-opacity=".32"/>
      <stop offset="100%" stop-opacity="0"/>
    </linearGradient>
    <linearGradient id="hero7-m" x1="99.647%" x2="-.396%" y1="49.994%" y2="49.994%">
      <stop offset="0%" stop-color="#E5C5D5"/>
      <stop offset="42%" stop-color="#EAD4D1"/>
      <stop offset="100%" stop-color="#F0E9CB"/>
    </linearGradient>
    <linearGradient id="hero7-n" x1="-51.121%" x2="117.878%" y1="168.082%" y2="-41.323%">
      <stop offset="1%"/>
      <stop offset="8%" stop-opacity=".69"/>
      <stop offset="21%" stop-opacity=".32"/>
      <stop offset="100%" stop-opacity="0"/>
    </linearGradient>
  </defs>
  <g fill="none">
    <path fill="#863399" d="M337.89,211.06 C335.33,221.14 330.89,231.21 327,240.19 C320.52,255.06 312.56,269.83 300.1,280.19 C275.46,300.72 240.16,299.51 208.4,303.95 C168.86,309.48 127.92,315.56 88.78,302.95 C60.61,293.84 34.78,273.95 24.39,246.19 C19.31,232.65 18.08,218.01 16.89,203.59 C15.61,188.07 14.78,173.25 10.64,158.37 C6.21,142.45 1.64,125.87 0.31,109.37 C-2.03,79.37 9.05,48.46 30.56,27.47 C52.07,6.48 83.76,-3.86 113.36,1.32 C135.45,5.19 155.24,16.92 174.73,28.02 C187.97,35.57 201.95,43.1 217.18,43.69 C237.26,44.46 256.54,33 276.54,34.93 C301.28,37.32 319.42,59.23 330.99,81.24 C334.707654,88.0969804 337.822694,95.2639143 340.3,102.66 C345.102171,117.774818 346.078006,133.845177 343.14,149.43 C340.14,165.43 340.5,180.43 340.04,196.83 C339.84569,201.637668 339.124714,206.409526 337.89,211.06 Z" opacity=".22"/>
    <ellipse cx="165.98" cy="230.5" fill="url(#hero7-a)" rx="105.31" ry="20.47"/>
    <path fill="#863399" d="M238.22 191.48L247.38 225.88C247.468037 226.2195 247.417342 226.580079 247.239105 226.882143 247.060869 227.184207 246.769746 227.402918 246.43 227.49 246.323883 227.505317 246.216117 227.505317 246.11 227.49L246.11 227.49C245.505696 227.492365 244.979451 227.077998 244.84 226.49L235.67 192.1C235.486195 191.390482 235.911052 190.66599 236.62 190.48L236.62 190.48C237.313034 190.295611 238.024483 190.707267 238.21 191.4L238.22 191.48zM221.3 191.47L214.54 225.63C214.413614 226.397527 214.932671 227.122417 215.7 227.250001L215.92 227.250001 215.92 227.250001C216.511258 227.250815 217.01944 226.83083 217.13 226.25L223.9 192.1C224.02595 191.367894 223.562281 190.663643 222.84 190.49L222.84 190.49C222.186142 190.310001 221.508976 190.68868 221.32 191.34 221.32 191.34 221.3 191.43 221.3 191.47zM232.08 191.61L237.96 225.88C238.014095 226.26208 237.913658 226.649963 237.680924 226.957772 237.44819 227.265581 237.10236 227.467923 236.72 227.520082L236.54 227.520082C235.95258 227.526869 235.449572 227.100591 235.36 226.52L229.46 192.25C229.362041 191.511249 229.836177 190.817286 230.56 190.64L230.56 190.64C231.189581 190.452448 231.852048 190.810538 232.04 191.44 232.059908 191.494916 232.073332 191.551969 232.08 191.61zM214.65 191.8L202.65 225.92C202.410942 226.538481 202.714185 227.234156 203.33 227.48 203.47426 227.532434 203.626507 227.5595 203.78 227.56L203.78 227.56C204.397969 227.550909 204.941223 227.148499 205.13 226.56L217.13 192.45C217.248364 192.156965 217.245302 191.828882 217.121488 191.538108 216.997675 191.247334 216.763281 191.017754 216.47 190.9L216.32 190.9 216.32 190.9C215.616453 190.739123 214.902481 191.123898 214.65 191.8L214.65 191.8z"/>
    <path fill="#505365" d="M219.77,165.39 C222.77,160.1 226.84,154.87 232.66,153.12 C236.25,152.03 240.12,152.41 243.82,153.04 C246.606007,153.380446 249.297432,154.267393 251.74,155.65 C254.209873,157.069207 255.833156,159.603021 256.09,162.44 C256.044227,164.057553 255.705409,165.653388 255.09,167.15 L249.61,182.92 C248.89,184.99 248.11,187.16 246.46,188.61 C244.820882,189.829819 242.91508,190.642184 240.9,190.98 C234.37,192.61 227.79,194.24 221.07,194.44 C214.35,194.64 207.39,193.28 201.9,189.44 C199.9,188.06 198.06,185.63 199.12,183.44 C199.95,181.79 202.12,181.35 203.96,181.44 C208.81,181.64 210.22,181.08 213.08,177.11 C215.69,173.44 217.56,169.3 219.77,165.39 Z"/>
    <path fill="#EC9C7D" d="M215.99,160.02 C215.353409,161.129861 214.487492,162.091233 213.45,162.84 L200.6,173.55 C199.41,174.55 198.09,175.84 198.33,177.38 C198.343508,177.535655 198.4066,177.68287 198.51,177.8 C198.699791,177.948158 198.941513,178.013098 199.18,177.98 C200.487964,177.950725 201.788899,177.779726 203.06,177.47 C204.4,177.14 205.9,176.47 206.17,175.08 C206.24,174.7 206.17,174.31 206.27,173.93 C206.530772,173.010075 207.160603,172.239075 208.01,171.8 C209.01,171.13 209.9,170.36 210.86,169.68 C212.75,168.32 214.71,167.05 216.72,165.87 C218.13,165.04 220.33,164.07 221.17,162.58 C222.01,161.09 221.31,158.89 220.8,157.37 C220.46,156.37 220.03,156.23 219.02,156.09 C218.01,155.95 216.97,155.64 216.63,156.76 C216.29,157.88 216.49,158.95 215.99,160.02 Z"/>
    <path fill="#2F3554" d="M237.53,153.26 C235.31,154.54 233.44,153.21 232.86,150.92 C232.62,149.92 232.52,148.84 232.19,147.81 C231.68671,146.529357 231.014056,145.321943 230.19,144.22 C229.351922,143.117739 228.749446,141.854923 228.42,140.51 C228.109474,139.131832 228.56852,137.693486 229.62,136.75 C229.858907,136.531188 230.176698,136.419239 230.5,136.44 C231.01,136.49 231.28,137.07 231.4,137.59 C231.420389,138.114152 231.500917,138.634227 231.64,139.14 C232.041326,139.827863 232.699685,140.327928 233.47,140.53 C235.2,141.24 237.06,141.87 238.27,143.28 C239.299166,144.585438 239.792601,146.233794 239.65,147.89 C239.55,149.52 239.07,152.39 237.53,153.26 Z"/>
    <path fill="#FFF" d="M214.6,163.96 L213.89,167.23 C213.747047,167.70947 213.702822,168.212951 213.76,168.71 C213.918712,169.320889 214.240118,169.877302 214.69,170.32 C218.01,174.12 220.93,174.44 225.84,174.03 C228.710074,173.812041 231.541851,173.237624 234.27,172.32 C233.87,168.13 234.27,162.4 235.05,160.63 C237.11,155.88 239.65,149.58 236.7,145.99 C234.31,143.09 229.95,143.37 227.29,143.45 C225.29,143.45 222.98,142.73 221.14,143.68 C219.3,144.63 217.97,146.87 217.14,148.51 C216.630752,149.519929 216.180008,150.55831 215.79,151.62 C215.7322,151.745996 215.698292,151.881627 215.69,152.02 C215.711148,152.212921 215.791491,152.394566 215.92,152.54 L217.11,154.28 C215.42,156.74 215.23,161.09 214.6,163.96 Z"/>
    <path fill="#2F3554" d="M225.66,126.6 C225.354314,126.737373 225.081546,126.938539 224.86,127.19 C224.300203,128.116252 223.901234,129.13058 223.68,130.19 L222.13,134.59 C222.13,134.59 217.05,134.68 218.13,129.59 C218.68,126.91 220.37,124.41 223.31,124.15 C223.985892,124.157497 224.658035,124.251597 225.31,124.43 C226.083716,124.570023 226.876284,124.570023 227.65,124.43 C227.95,124.37 228.31,124.3 228.53,124.51 C228.708453,124.70971 228.732936,125.003507 228.59,125.23 C228.440909,125.439473 228.241434,125.607995 228.01,125.72 C227.3,126.07 226.4,126.23 225.66,126.6 Z"/>
    <path fill="#EC9C7D" d="M229.81,125.87 C229.81,125.87 221.31,123.48 219.92,129.44 C219.626825,130.671629 219.48246,131.933981 219.49,133.2 L219.49,134.49 C219.88,138.39 221.83,141.35 224.99,141.08 C230.56,140.63 236.46,128.85 229.81,125.87 Z"/>
    <path fill="#D68369" d="M228.81,137.01 C229.023864,137.219629 229.366136,137.219629 229.58,137.01 L229.58,137.01 C228.95871,137.944399 228.571155,139.014463 228.45,140.13 C228.02,143.34 229.58,143.48 229.58,143.48 C223.79,146.72 222.93,144.48 222.93,144.48 C223.688932,143.413633 223.770533,142.006972 223.14,140.86 C225.77,141.58 228.14,138.48 228.59,136.72 C228.630314,136.83777 228.707447,136.939446 228.81,137.01 L228.81,137.01 Z"/>
    <path fill="#2F3554" d="M223.71,124.99 C224.16,124.83 224.59,124.91 225.04,124.79 C225.533275,124.599982 226.000361,124.347958 226.43,124.04 C227.593539,123.509871 228.888872,123.339249 230.15,123.55 C231.141269,123.605655 232.10936,123.871539 232.99,124.33 C234.382057,125.215109 235.29215,126.688944 235.46,128.33 C235.588078,129.97 235.240896,131.612172 234.46,133.06 C234.318645,133.304379 234.211002,133.566758 234.14,133.84 C233.95,134.95 235.14,135.75 235.6,136.84 C235.790385,137.593983 235.910894,138.363904 235.96,139.14 C236.31,140.75 237.76,141.85 238.73,143.14 C239.592459,144.243327 239.997105,145.636311 239.86,147.03 C236.99,145.93 233.73,146.32 230.79,145.4 C230.138586,145.22445 229.534121,144.906849 229.02,144.47 C228.181172,143.560958 227.789201,142.326431 227.95,141.1 C228.049973,140.216729 228.210348,139.341345 228.43,138.48 C228.53,137.98 228.43,137.08 228.94,136.75 C229.18848,136.580863 229.4492,136.430448 229.72,136.3 C230.34439,135.939547 230.726454,135.270935 230.72,134.55 C230.749982,134.246318 230.61679,133.94949 230.37,133.77 C230.082639,133.641573 229.746045,133.700972 229.52,133.92 C229.19,134.21 229.23,134.56 228.8,134.64 C228.336436,134.639539 227.883639,134.500217 227.5,134.24 C224.69,132.68 223.61,128.57 222.76,125.67 C223.13,125.6 223.3,125.16 223.71,124.99 Z"/>
    <path fill="#EC9C7D" d="M230.37,155.27 C232.71,148.48 234.27,145.14 236.65,145.99 C236.65,145.99 239.77,147.54 238,153.78 C236,160.78 230.78,167.33 230.78,167.33 L228.35,161.98 C228.35,161.98 229.14,159.01 230.37,155.27 Z"/>
    <path fill="#DC9BD5" d="M205.62,180.16 C205.77,179.98 206.25,179.38 206.97,178.6 C206.902451,178.655729 206.841999,178.71954 206.79,178.79 C206.375947,179.225565 205.985393,179.682879 205.62,180.16 L205.62,180.16 Z"/>
    <path fill="#93D500" d="M233.92,170.34 C230.71,170.53 227.33,170.75 224.03,171.23 C224.03,171.23 211.03,182.14 209.43,184.78 C205.6,190.91 201.88,189.17 207.43,198.13 L218.53,216.05 C220.41,216.68 222.42,215.05 222.97,213.05 C223.346331,211.075015 223.144947,209.033396 222.39,207.17 C221.25,203.31 220.14,199.44 219.04,195.59 C218.690511,194.741235 218.690511,193.788765 219.04,192.94 C219.357237,192.518307 219.768013,192.175993 220.24,191.94 C221.56,191.16 222.46,189.31 223.92,188.86 C226.403131,188.200078 228.765835,187.150362 230.92,185.75 C233.098455,184.331401 234.629278,182.110629 235.18,179.57 C235.72,176.54 234.3,173.47 233.92,170.34 Z"/>
    <path fill="#93D500" d="M224.01,171.26 C221.35,171.59 217.01,170.37 217.01,170.37 C213.22,172.06 209.12,176.26 207.01,178.62 L207.01,178.62 C206.28,179.4 205.8,180 205.65,180.17 L205.65,180.17 L205.44,180.44 C203.1,183.55 201.63,187.22 200.18,190.84 L192.87,209.05 C192.599836,209.619989 192.450053,210.239545 192.43,210.87 C192.54,213.12 195.55,213.72 197.8,213.68 L207.51,198.09 C207.51,198.09 205.67,192.53 209.51,184.75 C210.88,181.96 224.13,171.2 224.13,171.2 L224.01,171.26 Z"/>
    <path fill="url(#hero7-b)" d="M224.01,171.26 C221.35,171.59 217.01,170.37 217.01,170.37 C213.22,172.06 209.12,176.26 207.01,178.62 L207.01,178.62 C206.28,179.4 205.8,180 205.65,180.17 L205.65,180.17 L205.44,180.44 C203.1,183.55 201.63,187.22 200.18,190.84 L192.87,209.05 C192.599836,209.619989 192.450053,210.239545 192.43,210.87 C192.54,213.12 195.55,213.72 197.8,213.68 L207.51,198.09 C207.51,198.09 205.67,192.53 209.51,184.75 C210.88,181.96 224.13,171.2 224.13,171.2 L224.01,171.26 Z"/>
    <path fill="#EC9C7D" d="M218.73,217.58 C218.95,217.03 219.19,216.49 219.46,215.96 C219.939154,215.500694 220.461584,215.088778 221.02,214.73 C221.25,214.53 222.58,213.4 222.5,213.08 C222.801277,214.150694 223.199594,215.191674 223.69,216.19 C224.087059,216.779018 224.283457,217.480437 224.25,218.19 C224.039398,218.828682 223.620306,219.37808 223.06,219.75 C220.98,221.46 218.51,223.08 215.84,222.75 C215.673638,222.759758 215.511823,222.693561 215.4,222.57 C215.327599,222.479711 215.291892,222.365448 215.3,222.25 C215.3,221.06 216.41,220.25 217.3,219.47 C217.876301,218.92198 218.359315,218.283592 218.73,217.58 L218.73,217.58 Z"/>
    <path fill="#505365" d="M223.8,217.09 C223.3,217.25 222.87,217.98 222.5,218.35 C222.010621,218.831126 221.489445,219.278802 220.94,219.69 C220.496102,220.098473 219.901021,220.301671 219.3,220.25 C218.72,220.13 218.3,219.61 217.74,219.43 C217.229591,219.286476 216.681635,219.382093 216.25,219.69 C215.816954,219.979586 215.443529,220.349616 215.15,220.78 C214.306462,221.875929 213.78372,223.184514 213.64,224.56 C213.609695,224.712802 213.642129,224.871371 213.73,225 C213.798901,225.080052 213.889036,225.138986 213.99,225.17 C214.864121,225.362115 215.778772,225.19647 216.53,224.71 C218.378079,223.876945 220.159915,222.904123 221.86,221.8 C222.657545,221.193537 223.515399,220.670782 224.42,220.24 C224.600379,220.19556 224.757445,220.0849 224.86,219.93 C224.920109,219.805839 224.941035,219.666333 224.92,219.53 C224.86,218.8 224.92,216.64 223.8,217.09 Z"/>
    <path fill="#FFF" d="M238.94,147.97 C238.36,146.41 235.41,142.84 233.41,144.3 C232.134062,145.251548 231.220511,146.609528 230.82,148.15 C230.63,148.86 230.56,149.62 230.38,150.35 C230.14,151.25 229.76,152.11 229.6,153.02 C229.453325,153.983404 229.436509,154.962126 229.55,155.93 C231.45,155.663333 233.343333,155.383333 235.23,155.09 L238.07,154.64 C238.6,154.56 239.68,154.77 239.93,154.22 C240.049382,153.900131 240.070279,153.551849 239.99,153.22 L239.76,151.61 C239.620321,150.419738 239.358954,149.246937 238.98,148.11 C238.971301,148.062132 238.957903,148.015238 238.94,147.97 Z"/>
    <path fill="#EC9C7D" d="M210.46,160.53 L211.85,158.93 C211.85,158.93 226.66,161.26 228.8,162.11 C230.94,162.96 230.8,167.32 230.8,167.32 C225.02,168.92 210.46,160.53 210.46,160.53 Z"/>
    <path fill="#EC9C7D" d="M213.12,160.97 C213.071321,161.148801 212.970337,161.308983 212.83,161.43 C212.674873,161.516185 212.505511,161.573768 212.33,161.6 C211.28,161.85 210.47,162.68 209.48,163.07 C208.521238,163.621375 207.398463,163.816178 206.31,163.62 C205.341984,163.327514 204.427062,162.881869 203.6,162.3 C203.082006,162.012859 202.618329,161.637179 202.23,161.19 C201.839999,160.730883 201.718612,160.101192 201.91,159.53 C202.23,158.73 203.22,158.47 204.08,158.35 C205.238442,158.180171 206.411276,158.129906 207.58,158.2 C208.58,158.27 209.58,158.58 210.58,158.64 C211.96,158.72 213.65,159.23 213.12,160.97 Z"/>
    <path fill="#863399" d="M117.15 175.8L107.99 210.2C107.898603 210.539522 107.946442 210.901478 108.122906 211.205597 108.299371 211.509717 108.589877 211.730866 108.93 211.82 109.039754 211.830395 109.150246 211.830395 109.26 211.82L109.26 211.82C109.861796 211.815151 110.384125 211.403869 110.53 210.82L119.7 176.42C119.788126 176.083149 119.738523 175.725073 119.562149 175.424862 119.385775 175.124651 119.097142 174.907006 118.76 174.82L118.7 174.82C118.002708 174.670283 117.313765 175.105873 117.15 175.8L117.15 175.8zM134.11 175.8L140.87 209.95C140.996386 210.717527 140.477329 211.442417 139.71 211.570001L139.49 211.570001 139.49 211.570001C138.898742 211.570815 138.39056 211.15083 138.28 210.57L131.51 176.42C131.384652 175.690278 131.849165 174.989126 132.57 174.82L132.57 174.82C133.216068 174.633171 133.891479 175.004424 134.08 175.65L134.11 175.8zM123.3 175.94L117.42 210.21C117.365905 210.59208 117.466342 210.979963 117.699076 211.287772 117.93181 211.595581 118.27764 211.797923 118.66 211.850082L118.84 211.850082C119.42742 211.856869 119.930428 211.430591 120.02 210.85L125.91 176.58C126.012105 175.842493 125.535163 175.14876 124.81 174.98L124.81 174.98C124.501001 174.881307 124.165105 174.913032 123.880047 175.067831 123.59499 175.222631 123.385479 175.487088 123.3 175.8L123.3 175.94zM140.72 176.1L152.72 210.22C152.959058 210.838481 152.655815 211.534156 152.04 211.78 151.89574 211.832434 151.743493 211.8595 151.59 211.86L151.59 211.86C150.972031 211.850909 150.428777 211.448499 150.24 210.86L138.24 176.74C138.121636 176.446965 138.124698 176.118882 138.248512 175.828108 138.372325 175.537334 138.606719 175.307754 138.9 175.19L139.05 175.19 139.05 175.19C139.756289 175.030299 140.471314 175.419924 140.72 176.1L140.72 176.1z"/>
    <path fill="#505365" d="M135.6,149.72 C132.6,144.43 128.53,139.2 122.71,137.44 C119.11,136.36 115.25,136.73 111.55,137.37 C108.764582,137.706836 106.073098,138.590404 103.63,139.97 C101.156854,141.401859 99.5399244,143.952351 99.3,146.8 C99.3396906,148.418273 99.6787412,150.015202 100.3,151.51 L105.78,167.28 C106.5,169.35 107.28,171.52 108.93,172.97 C110.564608,174.197651 112.472393,175.010861 114.49,175.34 C121.01,176.97 127.6,178.61 134.32,178.81 C141.04,179.01 148,177.64 153.49,173.75 C155.44,172.37 157.33,169.94 156.26,167.81 C155.44,166.15 153.26,165.71 151.43,165.81 C146.58,166.01 145.17,165.45 142.31,161.49 C139.68,157.8 137.81,153.62 135.6,149.72 Z"/>
    <path fill="url(#hero7-c)" d="M113.41,143.12 C107.62,148.51 106.41,157.91 109.96,164.97 C112.58,170.14 117.96,174.21 123.78,173.88 C124.613443,173.871652 125.431577,173.655087 126.16,173.25 C127.76,172.25 128.09,170.1 128.26,168.25 C128.689982,165.174958 128.689982,162.055042 128.26,158.98 C127.73,156.18 126.48,153.53 126.16,150.69 C125.96,148.89 126.16,147.07 126.05,145.26 C125.91,142.46 125.29,139.55 122.13,139.5 C118.86949,139.557421 115.752557,140.851377 113.41,143.12 Z"/>
    <path fill="#FFF" d="M123.92,149.53 C124.030021,150.492705 124.050108,151.463568 123.98,152.43 C123.81,153.58 123.78,154.76 123.63,155.92 C123.297849,158.258287 122.752237,160.561239 122,162.8 C121.578777,163.642116 121.510403,164.617347 121.81,165.51 C122.161331,166.029047 122.649299,166.440879 123.22,166.7 C124.29,167.31 125.22,168.1 126.22,168.7 C127.411999,169.282807 128.649409,169.767738 129.92,170.15 C133.64,171.37 140.7,173.22 142.17,167.93 C143.85,161.93 145.26,156.07 146.35,149.93 C146.881003,147.819346 147.238857,145.668874 147.42,143.5 C147.42,141.74 145.59,141.12 144,140.78 L143.7,140.72 L142.78,140.54 C140.661718,140.077553 138.579628,139.462618 136.55,138.7 C134.25,137.87 130.62,136.43 127.63,137.87 C127.42145,137.967534 127.22084,138.081213 127.03,138.21 C123.87,140.18 123.64,145.07 123.92,149.53 Z"/>
    <path fill="#FFF" d="M155.64,159.5 C154.728587,160.211247 153.857253,160.972412 153.03,161.78 C151.84,163.25 151.27,163.47 149.44,162.54 C147.727511,161.677196 146.328585,160.299255 145.44,158.6 C144.441278,156.643148 143.608361,154.606015 142.95,152.51 C142.520514,151.490035 142.520514,150.339965 142.95,149.32 C143.42,147.9 143.95,146.49 144.53,145.11 C144.96,144.11 147.45,146.67 147.71,147 C149.2,148.85 150.71,150.67 152,152.63 C154.311424,151.581233 156.710684,150.737979 159.17,150.11 C159.418487,150.039923 159.681513,150.039923 159.93,150.11 C160.196831,150.252565 160.402904,150.487062 160.51,150.77 L162.81,155.08 C162.47,154.28 158.43,157.25 155.64,159.5 Z"/>
    <path fill="#D8DAE1" d="M131.74,151.55 C131.940364,152.618736 132.348031,153.637906 132.94,154.55 C133.61,155.55 134.78,158.95 136.34,158.55 C135.614452,158.861284 134.829003,159.008129 134.04,158.98 C135.57,160.98 137.95,162.22 140.18,163.44 C140.77686,163.720166 141.310897,164.118143 141.75,164.61 C142.190411,165.113536 142.303152,165.824971 142.04,166.44 C141.52,167.44 140.04,167.33 138.94,167.04 C136.21,166.33 133.5,165.51 130.74,164.97 C128.39,164.51 125.74,164.3 123.74,165.65 C123.593772,165.778986 123.413025,165.862408 123.22,165.89 C122.90377,165.868233 122.647673,165.624731 122.61,165.31 C122.586825,165.003225 122.634733,164.695239 122.75,164.41 C123.427951,162.173652 123.801314,159.856113 123.86,157.52 C123.86,156.58 124.14,155.69 124.16,154.79 C124.16,153.67 123.94,152.53 123.92,151.41 C123.889281,149.149113 124.110648,146.891846 124.58,144.68 C124.9,143.13 125.58,141.36 127.14,141 C128.311124,140.80453 129.487341,141.318145 130.14,142.31 C130.737221,143.286542 131.080965,144.396837 131.14,145.54 C131.235484,147.552394 131.435756,149.558447 131.74,151.55 L131.74,151.55 Z"/>
    <path fill="#FFF" d="M127.66,137.8 C130.66,136.36 134.28,137.8 136.58,138.63 C138.604208,139.398592 140.68342,140.013665 142.8,140.47 C143.11,140.52 143.42,140.58 143.72,140.65 C142.72,139.74 140.82,139.52 139.49,139.13 C137.49,138.55 135.49,138.03 133.44,137.56 C131.39,137.09 129.3,136.8 127.66,137.8 Z"/>
    <path fill="#D68369" d="M136.23,132.31 C137.008981,134.462576 139.314194,135.652223 141.52,135.04 C141.52,135.04 140.45,138.11 141.69,139.99 C141.92,140.35 140.32,140.67 140.23,140.68 C139.323942,140.659549 138.431913,140.451863 137.61,140.07 C136.335523,139.449665 134.993152,138.979835 133.61,138.67 C134.270924,138.378915 134.798915,137.850924 135.09,137.19 C135.690701,135.751093 135.789335,134.151817 135.37,132.65 C135.583979,132.771743 135.851057,132.747826 136.04,132.59 C136.131696,132.519433 136.1983,132.421279 136.23,132.31 L136.23,132.31 Z"/>
    <path fill="#EC9C7D" d="M138.94,136.32 C141.94,137.26 144.4,134.83 145.58,131.21 C145.7,130.81 145.81,130.4 145.9,129.98 C146.177751,128.769972 146.31201,127.531439 146.3,126.29 C146.24,120.29 137.64,120.76 137.64,120.76 C130.65,122.2 133.76,134.7 138.94,136.32 Z"/>
    <path fill="#2F3554" d="M143.64 119.9C144.729786 120.185444 145.676541 120.861697 146.3 121.8 146.558767 122.329975 146.859737 122.83828 147.2 123.32 147.73 123.98 148.52 124.46 148.78 125.26 147.42259 125.455643 146.039123 125.180362 144.86 124.48 144.653755 124.805092 144.294993 125.001467 143.91 125 143.529359 124.989158 143.153609 124.9113 142.8 124.77 142.604992 124.684503 142.387784 124.663482 142.18 124.71 142.02327 124.769897 141.882823 124.865812 141.77 124.99 141.041961 125.590357 140.058373 125.778784 139.16 125.49 138.63 125.32 138.1 124.98 137.6 125.14 137.040565 125.432089 136.698364 126.019274 136.72 126.65 136.72 127.02 136.89 127.37 136.9 127.75 136.901962 128.141304 136.837723 128.530122 136.71 128.9 136.513552 128.628482 136.269628 128.394721 135.99 128.21 135.693549 128.049981 135.336451 128.049981 135.04 128.21 134.91911 128.282415 134.81647 128.381633 134.74 128.5 134.235235 129.254211 134.344866 130.261971 135 130.89 134.9 131.26 134.8 131.63 134.72 132.01 134.250314 131.481214 133.880945 130.871246 133.63 130.21 133.412159 129.467909 133.117217 128.750666 132.75 128.07 132.500167 127.759438 132.282392 127.424399 132.1 127.07 132.029512 126.806902 131.939255 126.549504 131.83 126.3 131.49 125.67 131.02 125.05 131.23 124.3 131.44 123.55 132.33 122.94 132.15 122.16 132.122767 122.010146 132.082617 121.862931 132.03 121.72 132.018617 121.499967 132.070682 121.281295 132.18 121.09 133.030559 119.519778 134.54448 118.417408 136.3 118.09 138.044818 117.781264 139.834075 117.828887 141.56 118.23 143.29 118.56 145.01 119.03 146.77 119.23 146.915848 119.210231 147.059996 119.276461 147.14 119.4 147.159887 119.461772 147.159887 119.528228 147.14 119.59 147.06 119.97 146.7 120.21 146.41 120.47 146.12 120.73 145.86 121.15 146.07 121.47M128.04 166.8C128.04 166.8 131.68 175.9 134.6 176.85 137.52 177.8 148.3 181.15 148.3 181.15L153.63 191.96C156.63 198.14 160.04 204.18 162.23 210.71 162.33398 211.121214 162.528747 211.503916 162.8 211.83 163.522736 212.358973 164.450431 212.521597 165.31 212.27 167.14 212.02 168.97 211.77 170.77 211.35 171.64 211.14 172.7 210.67 172.69007 209.77 172.68 208.87 171.69 208.44 170.93 208.16L168.42 207.29C167.227327 207.110985 166.310926 206.140921 166.2 204.94 165.751983 203.427098 165.437446 201.877835 165.26 200.31 165.15 198.85 164.07 197.4 164.07 196.02L160.88 186.82 156.02 172.82 156.02 172.73 144.24 166.73 128.04 166.8z"/>
    <path fill="#4C506D" d="M122.99,168.59 C122.99,168.59 122.3,176.88 125.23,177.84 C128.16,178.8 138.97,182.1 138.97,182.1 L143.14,193.45 C144.85,198.13 147.14,202.91 148.39,207.74 C148.641845,209.113517 148.788935,210.504189 148.83,211.9 C148.831609,212.277743 148.927875,212.649058 149.11,212.98 C149.54876,213.46115 150.168843,213.736743 150.82,213.74 C153.526667,214.08 156.246667,214.316667 158.98,214.45 C159.319762,214.509666 159.669686,214.460676 159.98,214.31 C160.25937,214.112426 160.452574,213.815464 160.52,213.48 C160.807257,212.390334 160.459636,211.231598 159.62,210.48 C158.74,209.7 157.5,209.48 156.51,208.88 C154.37,207.51 154.19,203.68 153.6,201.34 L151.41,192.52 L147.2,175.8 C147.14,175.54 146.94,173.8 146.68,173.7 L134.9,167.7 C134.9,167.7 128.06,165.12 122.99,168.59 Z"/>
    <path fill="#2F3554" d="M122.99,168.59 C122.99,168.59 122.3,176.88 125.23,177.84 C128.16,178.8 138.97,182.1 138.97,182.1 L143.14,193.45 C144.85,198.13 147.14,202.91 148.39,207.74 C148.641845,209.113517 148.788935,210.504189 148.83,211.9 C148.831609,212.277743 148.927875,212.649058 149.11,212.98 C149.54876,213.46115 150.168843,213.736743 150.82,213.74 C153.526667,214.08 156.246667,214.316667 158.98,214.45 C159.319762,214.509666 159.669686,214.460676 159.98,214.31 C160.25937,214.112426 160.452574,213.815464 160.52,213.48 C160.807257,212.390334 160.459636,211.231598 159.62,210.48 C158.74,209.7 157.5,209.48 156.51,208.88 C154.37,207.51 154.19,203.68 153.6,201.34 L151.41,192.52 L147.2,175.8 C147.14,175.54 146.94,173.8 146.68,173.7 L134.9,167.7 C134.9,167.7 128.06,165.12 122.99,168.59 Z"/>
    <path fill="#FFF" d="M124.97,141.49 C124.97,141.49 126.28,154.02 130.97,157.18 C135.66,160.34 146.89,147.05 146.89,147.05 L143.3,144.14 L134.04,148.86 C134.04,148.86 132.72,138.28 130.83,138.13 C128.94,137.98 124.93,139.39 124.97,141.49 Z"/>
    <path fill="#EC9C7D" d="M148.16,139.72 C148.567484,139.339139 149.073076,139.079417 149.62,138.97 C150.117112,138.940459 150.614122,139.029578 151.07,139.23 C151.99,139.53 153.01,140.05 153.19,140.99 C153.249823,141.735435 152.930319,142.460897 152.34,142.92 C151.79,143.4 151.13,143.74 150.57,144.22 C149.78,144.9 149.19,145.88 148.21,146.22 C147.795362,146.360214 147.355064,146.407998 146.92,146.36 C145.47,146.23 143.92,145.01 144.76,143.51 C145.669074,142.062144 146.818969,140.780349 148.16,139.72 Z"/>
    <path fill="url(#hero7-d)" d="M156.22,169.74 C155.859078,168.768117 155.26095,167.901864 154.48,167.22 C154.071797,166.960167 153.643814,166.732801 153.2,166.54 C152.692371,166.239497 152.160521,165.981934 151.61,165.77 C151.524491,165.74997 151.435509,165.74997 151.35,165.77 C151.212049,165.816845 151.127694,165.956029 151.15,166.1 C151.180691,166.233687 151.238558,166.359631 151.32,166.47 C151.591667,166.843365 151.911048,167.179556 152.27,167.47 C151.443625,167.859634 150.486375,167.859634 149.66,167.47 C148.578307,167.000604 147.370089,166.909019 146.23,167.21 C146.012258,167.277723 145.820375,167.410297 145.68,167.59 C145.438167,168.119143 145.554162,168.743117 145.97,169.15 C146.345714,169.6057 146.7643,170.024286 147.22,170.4 C147.641512,170.819699 148.136347,171.158627 148.68,171.4 C148.983276,171.490644 149.294805,171.55094 149.61,171.58 L151.43,171.81 C151.949762,171.852527 152.459457,171.977419 152.94,172.18 C153.85,172.63 154.94,174.71 156.03,174.31 C156.68,174.09 157.6,173.42 157.48,172.65 C157.321187,172.184181 157.109824,171.737971 156.85,171.32 C156.63,170.8 156.44,170.25 156.22,169.74 Z"/>
    <path fill="#3E3E54" d="M164,200.04 C163.970488,201.450387 164.239717,202.851058 164.79,204.15 L164.87,204.15 C166.36,204.15 167.87,204.15 169.35,204.24 C171.830825,204.428 174.298429,204.761911 176.74,205.24 C177.87,205.45 179,205.68 180.12,205.91 L183.34,206.56 C185.39,206.96 187.34,207.3 189.26,207.56 C191.721433,206.509749 193.920487,204.928753 195.7,202.93 L196.26,202.27 C196.49,201.98 196.71,201.67 196.92,201.35 C197.537839,200.453536 197.941548,199.427156 198.1,198.35 C198.148543,197.913276 198.131691,197.471754 198.05,197.04 C197.659912,195.55363 196.729198,194.266321 195.44,193.43 L195.04,193.14 C192.32027,191.259651 189.063986,190.31224 185.76,190.44 L184.93,190.44 C183.165842,190.571514 181.418067,190.869506 179.71,191.33 C177,192.02 174.29,192.99 171.61,193.85 C169.629464,194.380264 167.733984,195.188283 165.98,196.25 C165.48066,196.576451 165.043774,196.989631 164.69,197.47 C164.2096,198.239012 163.969369,199.133785 164,200.04 Z"/>
    <path fill="#3E3E54" d="M164.24,204.35 C164.586667,206.15 164.896667,207.956667 165.17,209.77 C165.808407,213.982412 166.232287,218.224552 166.44,222.48 C166.48889,222.876663 166.451364,223.279208 166.33,223.66 C165.87,224.78 164.33,224.84 163.15,224.83 C161.97,224.82 160.37,225.31 160.389814,226.51 C160.389814,227.45 161.39,228 162.32,228.3 C164.9682,229.19855 167.75443,229.621732 170.55,229.55 C170.890567,229.56221 171.230245,229.507861 171.55,229.39 C173.45,228.56 171.95,226.39 171.75,225.07 C171.46,223.2 172.18,221.14 172.63,219.36 C173.69,215.21 176.49,211.45 176.38,207.04 C176.278483,206.47947 176.381379,205.901119 176.67,205.41 C177.2,204.76 179.41,205.81 180.11,205.95 L183.33,206.6 C189.1,207.72 194.43,209.01 200.33,207.91 C200.68563,207.870974 201.027654,207.751266 201.33,207.56 C201.692373,207.251632 201.945003,206.834091 202.05,206.37 C202.886282,203.763847 202.663573,200.933296 201.43,198.49 C199.99,195.64 197.69,194.49 195.01,193.15 C191.91,191.58 189.3,190.4 185.73,190.5 L184.9,190.5 C183.128236,190.640793 181.373759,190.948831 179.66,191.42 C175.31,192.54 165.28,194.13 163.66,199.18 C163.13,200.77 163.79,202.05 164.11,203.6 L164.24,204.35 Z"/>
    <path fill="url(#hero7-e)" d="M164.24,204.35 C164.586667,206.15 164.896667,207.956667 165.17,209.77 C165.808407,213.982412 166.232287,218.224552 166.44,222.48 C166.48889,222.876663 166.451364,223.279208 166.33,223.66 C165.87,224.78 164.33,224.84 163.15,224.83 C161.97,224.82 160.37,225.31 160.389814,226.51 C160.389814,227.45 161.39,228 162.32,228.3 C164.9682,229.19855 167.75443,229.621732 170.55,229.55 C170.890567,229.56221 171.230245,229.507861 171.55,229.39 C173.45,228.56 171.95,226.39 171.75,225.07 C171.46,223.2 172.18,221.14 172.63,219.36 C173.69,215.21 176.49,211.45 176.38,207.04 C176.278483,206.47947 176.381379,205.901119 176.67,205.41 C177.2,204.76 179.41,205.81 180.11,205.95 L183.33,206.6 C189.1,207.72 194.43,209.01 200.33,207.91 C200.68563,207.870974 201.027654,207.751266 201.33,207.56 C201.692373,207.251632 201.945003,206.834091 202.05,206.37 C202.886282,203.763847 202.663573,200.933296 201.43,198.49 C199.99,195.64 197.69,194.49 195.01,193.15 C191.91,191.58 189.3,190.4 185.73,190.5 L184.9,190.5 C183.128236,190.640793 181.373759,190.948831 179.66,191.42 C175.31,192.54 165.28,194.13 163.66,199.18 C163.13,200.77 163.79,202.05 164.11,203.6 L164.24,204.35 Z"/>
    <path fill="#3E3E54" d="M156.03,204.8 C154.610616,206.518056 153.482336,208.457076 152.69,210.54 C151.69,212.87 145.69,237.85 145.43,237.8 L149.97,239 C155.200163,231.519318 159.561585,223.467462 162.97,215 C163.97,212.57 163.97,212.34 166.66,211.83 C168.98,211.37 171.3,210.88 173.6,210.33 C178.097428,209.282363 182.509834,207.898472 186.8,206.19 C189.396673,205.188363 191.883153,203.921666 194.22,202.41 C194.558882,202.147756 194.861517,201.841759 195.12,201.5 C195.23,201.35 195.34,201.19 195.44,201.03 C195.846885,200.363663 196.042143,199.589605 196,198.81 C195.988575,198.602915 195.951629,198.398032 195.89,198.2 C195.45037,197.059866 194.630964,196.106247 193.57,195.5 C191.956833,194.34477 190.058237,193.653114 188.08,193.5 C186.76,193.42 185.43,193.69 184.08,193.62 C182.73,193.55 182.08,192.9 181.08,192.74 C180.280611,192.649739 179.471233,192.721155 178.7,192.95 C176.941105,193.550577 175.243434,194.317375 173.63,195.24 L164.12,199.99 L164.04,199.99 L162.14,200.94 C160.14,201.94 157.86,202.94 156.28,204.56 L156.03,204.8 Z"/>
    <path fill="#3E3E54" d="M138.74,236.64 C137.907205,236.68679 137.099347,236.941179 136.39,237.38 C135.675228,237.848616 135.353796,238.731536 135.6,239.55 C135.885419,240.086607 136.348523,240.507289 136.91,240.74 C140.231792,242.349933 143.917818,243.060243 147.6,242.8 C148.120514,242.830587 148.636751,242.690114 149.07,242.4 C149.438822,242.019603 149.679993,241.533766 149.76,241.01 C150.100407,240.04724 150.169594,239.009427 149.96,238.01 C149.36,236.01 147.13,236.45 145.55,236.36 C143.276222,236.243269 140.996521,236.337001 138.74,236.64 L138.74,236.64 Z"/>
    <path fill="url(#hero7-f)" d="M172.12,148.32 C171.74,148.8 171.12,149.32 171.38,149.86 C171.5,150.16 171.84,150.31 172.1,150.5 C172.759932,151.082155 173.162597,151.901866 173.22,152.78 C173.281703,153.651314 173.487847,154.506305 173.83,155.31 C174.212969,156.111635 175.109387,156.530522 175.97,156.31 C176.45,156.12 176.9,155.64 177.39,155.8 C177.88,155.96 177.93,156.36 178.15,156.69 C178.770714,157.45986 179.775645,157.809064 180.74,157.59 C181.683663,157.355604 182.573249,156.94137 183.36,156.37 C183.704104,156.191679 183.988984,155.917222 184.18,155.58 C184.289732,155.255698 184.289732,154.904302 184.18,154.58 C183.792326,153.619338 183.221763,152.743115 182.5,152 C181.310125,150.479304 180.51022,148.690676 180.17,146.79 C179.94,145.47 179.88,143.99 178.95,143.04 C177.68,141.74 174.95,142.04 173.6,143.2 C172.25,144.36 173.3,146.8 172.12,148.32 Z"/>
    <path fill="#DD8049" d="M173.83,142.02 C173.85216,142.244773 173.920232,142.462604 174.03,142.66 C174.37,143.22 175.33,143.58 175.91,143.9 C176.524023,144.235475 176.9858,144.793902 177.2,145.46 C177.57,146.68 177.04,148.11 177.54,149.3 C177.71,149.53 178.1,149.3 178.23,149.09 C178.36,148.88 178.42,148.51 178.65,148.34 C179.04,148.06 179.59,148.42 179.81,148.85 C180.299099,149.899132 179.887287,151.147711 178.87,151.7 C178.96,152.08 179.48,152.19 179.87,152.1 C180.240321,151.950375 180.631669,151.859285 181.03,151.83 C181.94,151.91 182.4,153.18 183.31,153.22 C184.22,153.26 184.89,151.81 185.57,151.22 C186.25,150.63 187.48,150.51 187.82,149.68 C187.98,149.28 187.89,148.77 188.22,148.49 C188.470845,148.339845 188.757648,148.26037 189.05,148.26 C189.713021,148.093049 190.244814,147.598971 190.46,146.95 C190.657656,146.293829 190.633048,145.590746 190.39,144.95 C190.318116,144.700468 190.183903,144.473339 190,144.29 C189.698112,144.090524 189.357228,143.957579 189,143.9 C187.41,143.45 186.28,142.09 185.09,140.9 C183.9,139.71 182.33,138.68 180.71,139.04 C180.022628,138.170556 178.978298,137.659422 177.87,137.65 C177.312338,137.75747 176.783954,137.98246 176.32,138.31 C175.525516,138.763646 174.842252,139.388833 174.32,140.14 C173.970563,140.702805 173.799734,141.35823 173.83,142.02 L173.83,142.02 Z"/>
    <path fill="#FFF" d="M181.79,154.85 C180.838705,155.375351 179.923356,155.963312 179.05,156.61 C178.777572,156.799123 178.54906,157.044688 178.38,157.33 C178.219728,157.644068 178.219728,158.015932 178.38,158.33 C178.69,158.76 179.26,158.54 179.7,158.33 C181.722592,157.399965 183.906084,156.870221 186.13,156.77 C186.443882,156.791628 186.741297,156.627267 186.89,156.35 C186.962306,156.041274 186.896594,155.716364 186.71,155.46 C185.36,153.26 183.55,153.8 181.79,154.85 Z"/>
    <path fill="#863399" d="M177.92,183.38 C176.993345,181.391134 176.22756,179.331208 175.63,177.22 C175.49,176.76 175.27,174.95 174.53,175.05 C174.14,175.11 173.44,176.94 173.22,177.31 C171.314077,180.518386 168.763754,183.296842 165.73,185.47 C165.218678,185.910507 164.582213,186.17978 163.91,186.24 C162.985791,186.116305 162.151773,185.621671 161.6,184.87 C158.528302,181.63024 155.791123,178.088994 153.43,174.3 C155.004357,172.97549 156.646578,171.733811 158.35,170.58 C159.690494,172.719015 161.686319,174.367587 164.04,175.28 C165.04,172.52 165.58,168.9 167.25,166.53 C168.38,164.92 169.59,163.3 170.59,161.58 C170.860277,161.110612 171.197106,160.682839 171.59,160.31 C172.16432,159.892695 172.817586,159.596684 173.51,159.44 C178.714002,157.916907 184.00315,156.701472 189.35,155.8 C190.149594,155.61687 190.973339,155.562854 191.79,155.64 C194.07,155.98 195.57,158.13 196.72,160.13 C202.72,170.56 207,182.4 206.33,194.42 C206.322195,195.07181 206.217724,195.718854 206.02,196.34 C205.625892,197.272832 204.982332,198.079012 204.16,198.67 C201.361164,200.683371 197.976119,201.716812 194.53,201.61 C189.43,201.61 182.7,200.12 178.9,196.45 C176.74,194.38 178.9,193.13 179.9,191.08 C181.23,188.45 179.07,185.73 177.92,183.38 Z"/>
    <path fill="url(#hero7-g)" d="M203.3,174.94 C202.933822,173.341302 202.407844,171.783469 201.73,170.29 C198.73,172.41 196.58,176.55 195.48,180.03 C194.38,183.51 193.48,187.18 191.25,190.03 L188.83,189.19 L188.38,190.72 C188.02,191.93 189.04,193.16 188.94,194.38 C188.695066,195.66172 187.719942,196.679922 186.45,196.98 C185.02533,197.261755 183.551278,197.158192 182.18,196.68 C181.27893,196.503221 180.426358,196.13491 179.68,195.6 C178.930492,195.040295 178.578355,194.093439 178.78,193.18 C178.182186,193.545851 177.906812,194.269223 178.11,194.94 C178.327585,195.588537 178.730964,196.158831 179.27,196.58 C181.068083,197.966885 183.100222,199.020211 185.27,199.69 C186.268042,200.096487 187.294021,200.430682 188.34,200.69 C190.741662,201.229164 193.198902,201.48093 195.66,201.44 C197.15,201.44 198.05,201.24 198.66,199.76 C199.6,197.66 199.66,195.28 199.9,192.98 C200.566652,186.888019 201.703373,180.856708 203.3,174.94 L203.3,174.94 Z"/>
    <path fill="#505365" d="M224.5,181.1 C224.459164,182.718139 224.120157,184.314859 223.5,185.81 C223.39,186.14 223.27,186.47 223.15,186.81 C221.45,191.743333 219.74,196.67 218.02,201.59 C217.3,203.66 216.52,205.83 214.87,207.28 C213.230882,208.499819 211.32508,209.312184 209.31,209.65 C202.79,211.28 196.2,212.92 189.48,213.11 C185.103589,213.292119 180.730969,212.668428 176.58,211.27 L176.58,211.27 C174.357149,210.489463 172.251089,209.409518 170.32,208.06 C168.32,206.68 166.48,204.25 167.55,202.11 C168.37,200.46 170.55,200.02 172.38,200.11 C177.23,200.31 178.64,199.75 181.5,195.78 C184.13,192.13 186,187.99 188.21,184.08 C191.21,178.79 195.28,173.56 201.1,171.81 C204.7,170.72 208.56,171.1 212.26,171.73 C215.046007,172.070446 217.737432,172.957393 220.18,174.34 C222.630201,175.76032 224.240303,178.279832 224.5,181.1 Z"/>
    <path fill="url(#hero7-h)" d="M223.13,186.8 C221.43,191.733333 219.72,196.66 218,201.58 C217.28,203.65 216.5,205.82 214.85,207.27 C213.210882,208.489819 211.30508,209.302184 209.29,209.64 C202.77,211.27 196.18,212.91 189.46,213.1 C185.083589,213.282119 180.710969,212.658428 176.56,211.26 L176.56,211.26 C175.640222,210.436904 174.778185,209.551478 173.98,208.61 C173.43,207.94 172.88,207.01 173.33,206.28 C173.78,205.55 174.64,205.57 175.41,205.56 C181.833316,205.370228 187.731696,201.966449 191.11,196.5 C192.430288,194.083533 193.547466,191.56152 194.45,188.96 C196.6,183.62 199.6,178.29 204.52,175.27 C206.037437,174.229491 207.851825,173.710092 209.69,173.79 C210.816968,173.945942 211.911179,174.283662 212.93,174.79 C217.09,176.65 222.72,180.22 223.15,185.32 C223.188348,185.812915 223.181654,186.308301 223.13,186.8 Z"/>
    <path fill="#863399" d="M206.64 210.14L215.79 244.54C215.876623 244.88647 215.819159 245.253254 215.630726 245.556631 215.442293 245.860009 215.138973 246.074086 214.79 246.15 214.683883 246.165317 214.576117 246.165317 214.47 246.15L214.47 246.15C213.868204 246.145151 213.345875 245.733869 213.2 245.15L204.09 210.8C203.904616 210.102024 204.314548 209.384641 205.01 209.19L205.01 209.19C205.352173 209.098697 205.71663 209.147631 206.022601 209.325958 206.328573 209.504284 206.550788 209.797276 206.64 210.14L206.64 210.14zM189.68 210.13L182.91 244.29C182.783614 245.057527 183.302671 245.782417 184.07 245.910119L184.3 245.910119 184.3 245.910119C184.891896 245.91827 185.401399 245.493684 185.5 244.91L192.3 210.8C192.420172 210.071377 191.957805 209.373464 191.24 209.2L191.24 209.2C190.928366 209.103758 190.591171 209.136305 190.303698 209.290376 190.016225 209.444446 189.802414 209.707209 189.71 210.02L189.68 210.13zM200.5 210.27L206.38 244.55C206.428048 244.934618 206.321181 245.322557 206.082954 245.628314 205.844726 245.93407 205.494692 246.132547 205.11 246.180082L204.95 246.180082C204.36258 246.186869 203.859572 245.760591 203.77 245.18L197.88 210.91C197.777895 210.172493 198.254837 209.47876 198.98 209.31L198.98 209.31C199.615078 209.122693 200.281856 209.48517 200.47 210.12L200.5 210.27zM183.06 210.43L171.06 244.55C170.820942 245.168481 171.124185 245.864156 171.74 246.11 171.887726 246.162413 172.043253 246.189461 172.2 246.19L172.2 246.19C172.817969 246.180909 173.361223 245.778499 173.55 245.19L185.55 211.08C185.789058 210.461519 185.485815 209.765844 184.87 209.52L184.74 209.52 184.74 209.52C184.029787 209.349834 183.305468 209.742174 183.06 210.43L183.06 210.43z"/>
    <path fill="#FF6B00" d="M227.44 103.05C224.81 103.05 220.93 101.25 219.05 104.05 218.732986 104.580662 218.458784 105.135754 218.23 105.71 216.68 108.98 213.23 110.87 209.92 112.32 211.92 109.83 213.68 106.83 213.36 103.66 213.03 100.31 209.06 100.22 206.5 99.13 203.826796 98.0225018 201.311687 96.5665626 199.02 94.8 195.43 91.96 192.43 87.93 192.43 83.18 192.43 72.18 208.11 63.28 227.43 63.28 246.75 63.28 262.43 72.19 262.43 83.18 262.43 94.17 246.78 103.05 227.44 103.05zM122.04 104.53C120.215305 104.650011 118.384695 104.650011 116.56 104.53 114.35 104.23 112.22 103.72 112.73 107.19 113.33 111.19 116.96 114.09 118.56 117.84 110.97 115.95 105.34 111.58 100.12 105.99 97.8 103.5 93.82 104.53 90.55 104.53L84.93 104.53C71.531572 104.53 60.67 93.668428 60.67 80.27 60.67 66.871572 71.531572 56.01 84.93 56.01L122.04 56.01C135.438428 56.01 146.3 66.871572 146.3 80.27 146.3 93.668428 135.438428 104.53 122.04 104.53L122.04 104.53z"/>
    <path fill="#EC9C7D" d="M162.14,149.5 C162.171854,149.163401 162.308224,148.845204 162.53,148.59 C162.83,148.34 163.28,148.42 163.67,148.44 C165.34,148.51 166.67,147.14 168.04,146.2 C168.105815,146.148825 168.186633,146.120714 168.27,146.12 C168.36,146.12 168.42,146.23 168.47,146.31 C169.23,147.71 168.66,149.46 167.85,150.82 C167.04,152.18 165.99,153.3 164.54,153.36 C163.642655,153.200624 162.730522,153.140262 161.82,153.18 C161.24,153.31 160.82,153.67 160.55,152.97 C159.99,151.72 161.86,150.6 162.14,149.5 Z"/>
    <path fill="url(#hero7-i)" d="M139.19,171.41 C139.197688,172.007642 139.092514,172.601366 138.88,173.16 C139.877854,172.61988 140.971726,172.280168 142.1,172.16 L143.68,171.87 C143.98891,171.768306 144.326322,171.800959 144.61,171.96 C144.850988,172.200487 144.939466,172.554399 144.84,172.88 C144.66977,173.450139 144.360499,173.969028 143.94,174.39 C143.444397,174.947344 142.90971,175.468664 142.34,175.95 C141.959332,176.27905 141.531176,176.548755 141.07,176.75 C139.96,177.15 138.73,176.75 137.55,176.85 C137.257435,176.880024 136.962565,176.880024 136.67,176.85 C136.171784,176.771659 135.756899,176.425921 135.59,175.95 C135.17,174.72 136.33,174.26 136.98,173.53 C137.63,172.8 138.17,171.72 139.19,171.41 Z"/>
    <path fill="#3E3E54" d="M129.15,192.18 C129.178551,193.374603 128.950059,194.561393 128.48,195.66 L128.41,195.66 C127.15,195.66 125.88,195.66 124.62,195.74 C122.514289,195.907742 120.420531,196.201603 118.35,196.62 C117.35,196.79 116.44,196.99 115.49,197.18 L112.75,197.74 C111.02,198.08 109.35,198.37 107.75,198.6 C105.661469,197.710421 103.796571,196.368104 102.29,194.67 C102.12,194.49 101.97,194.3 101.81,194.11 C101.65,193.92 101.43,193.6 101.25,193.33 C100.722693,192.573147 100.380193,191.703198 100.25,190.79 C100.190088,190.422425 100.190088,190.047575 100.25,189.68 C100.597591,188.441852 101.387544,187.374348 102.47,186.68 L102.81,186.43 C105.117768,184.838005 107.878365,184.034731 110.68,184.14 L111.38,184.14 C112.876779,184.257506 114.359643,184.511903 115.81,184.9 C118.1,185.48 120.4,186.31 122.67,187.03 C124.346453,187.468112 125.952403,188.141466 127.44,189.03 C128.563858,189.668191 129.227061,190.889882 129.15,192.18 L129.15,192.18 Z"/>
    <path fill="url(#hero7-j)" d="M129.57,203.11 C129.27,204.63 129.01,206.16 128.78,207.7 C128.46,209.81 128.32,211.96 127.98,214.06 C127.64,216.16 127.7,218.24 127.35,220.31 C127.180158,221.082087 127.089688,221.869513 127.08,222.66 C127.179395,223.758521 127.459848,224.833029 127.91,225.84 C127.85,225.98 127.65,225.97 127.5,225.93 C126.662262,225.739701 125.849958,225.451031 125.08,225.07 C124.301283,224.688905 123.686781,224.038882 123.35,223.24 C122.69,221.53 123.48,219.62 122.98,217.83 C122.259586,215.638342 121.888383,213.347009 121.88,211.04 C122.081548,209.380764 122.188388,207.711392 122.2,206.04 C121.97,203.18 120.2,200.3 121.2,197.62 C122.039466,195.792801 123.788257,194.550741 125.79,194.36 C126.423396,194.252717 127.073653,194.307765 127.68,194.52 C130.68,195.72 130.16,200.18 129.68,202.52 L129.57,203.11 Z"/>
    <path fill="#3E3E54" d="M122.64,223.2 C122.680552,223.149441 122.731772,223.108464 122.79,223.08 C123.02,222.98 123.24,223.25 123.37,223.47 C123.936359,224.409498 124.792699,225.139492 125.81,225.55 C125.932504,225.615742 126.075083,225.633565 126.21,225.6 C126.36,225.54 126.44,225.38 126.56,225.27 C126.746315,225.121982 126.99575,225.080409 127.22,225.16 C127.441,225.233637 127.647436,225.345315 127.83,225.49 C128.411155,225.877952 128.959646,226.312731 129.47,226.79 C129.768169,227.029067 129.904006,227.417172 129.82,227.79 C129.720345,227.964257 129.560232,228.095905 129.37,228.16 C128.65911,228.384561 127.892425,228.356296 127.2,228.08 C125.9,227.65 124.76,226.87 123.49,226.36 C123.402081,226.320055 123.306567,226.299588 123.21,226.3 L123,226.35 C122.767384,226.32396 122.560263,226.190811 122.44,225.99 C121.737096,225.160279 121.825934,223.920978 122.64,223.2 Z"/>
    <path fill="url(#hero7-k)" d="M135.65,203.88 C136.211942,205.318708 136.477255,206.856165 136.43,208.4 C136.43,212.4 135.33,216.22 134.26,220.03 C133.81,221.63 133.43,223.28 132.9,224.86 C132.37,226.44 133.54,229.2 134.39,230.55 C134.600978,230.830425 134.769457,231.140425 134.89,231.47 C135.018739,231.831004 134.901904,232.233882 134.6,232.47 C134.416012,232.568372 134.208204,232.613397 134,232.6 C132.258826,232.492773 130.591566,231.857958 129.22,230.78 C128.64388,230.5172 128.327843,229.889283 128.46,229.27 C128.96,220.49 131.46,212.04 125.46,204.49 C124.08,202.75 122.35,201.16 121.76,199.03 C121.670217,198.702712 121.670217,198.357288 121.76,198.03 C121.882196,197.71515 122.103269,197.448459 122.39,197.27 C123.76,196.27 125.63,196.4 127.28,196.78 C131.08728,197.586841 134.233034,200.255282 135.65,203.88 Z"/>
    <path fill="#3E3E54" d="M129.14,231.8 C130.42,232.21 131.43,233.16 132.67,233.66 C133.785772,234.237384 134.982748,234.641996 136.22,234.86 C136.420264,234.909963 136.629736,234.909963 136.83,234.86 C137.066402,234.738368 137.244639,234.527607 137.325326,234.274289 C137.406012,234.020971 137.382506,233.745951 137.26,233.51 L137.26,233.51 C136.998514,233.040612 136.66054,232.618144 136.26,232.26 C135.893123,231.853535 135.55876,231.418863 135.26,230.96 C135,230.58 134.73,229.96 134.26,229.81 C133.79,229.66 133.17,230.01 132.72,230.08 C132.068092,230.147733 131.412465,229.992638 130.86,229.64 C130.31781,229.281104 129.829563,228.846733 129.41,228.35 C129.19,228.1 128.87,227.81 128.56,227.94 C128.25,228.07 128.22,228.38 128.19,228.66 C128.12,229.34 128.07,230.02 128.06,230.66 C128.028891,230.867759 128.060217,231.080077 128.15,231.27 C128.3,231.59 128.76,231.69 129.14,231.8 Z"/>
    <path fill="#93D500" d="M129.74,188.18 C134.049334,190.838615 136.709646,195.50735 136.8,200.57 C132.691464,203.66065 127.952487,205.808212 122.92,206.86 C122.345654,207.030035 121.734346,207.030035 121.16,206.86 C120.685831,206.618771 120.269603,206.2776 119.94,205.86 C115.33,201.12 107.21,201.6 102.37,197.1 C100.54,195.39 99.37,192.45 100.79,190.41 C101.374551,189.684868 102.103255,189.088965 102.93,188.66 C106.7,186.42 111.14,183.07 115.69,183.85 C120.24,184.63 125.81,185.8 129.74,188.18 Z"/>
    <path fill="url(#hero7-l)" d="M131.52,204.09 C129.21,201.62 128.79,198 128.52,194.63 C127.856901,195.201125 127.111963,195.66966 126.31,196.02 L125.92,194.97 C125.890062,194.863272 125.822591,194.770943 125.73,194.71 C125.625444,194.679993 125.514556,194.679993 125.41,194.71 C122.130025,195.82104 118.692972,196.398384 115.23,196.42 C113.898764,196.529544 112.565857,196.229465 111.41,195.56 C110.247958,194.818852 109.873658,193.295231 110.56,192.1 C107.761338,192.862261 104.910273,193.417099 102.03,193.76 C101.796279,193.752077 101.569209,193.83858 101.4,194 C101.18,194.29 101.4,194.7 101.59,195 C103.899689,198.248179 107.381524,200.471389 111.3,201.2 C112.39,201.39 118.17,203.55 120.77,206.94 C121.142698,207.378243 121.733208,207.56472 122.29,207.42 L131.52,204.09 Z"/>
    <path fill="url(#hero7-m)" d="M121.03,143.99 C120.729499,143.749955 120.391689,143.560781 120.03,143.43 C118.865239,142.907223 117.505786,143.081017 116.51,143.88 C115.72,144.69 115.67,145.95 115.51,147.07 C115.218259,148.682766 114.531078,150.197999 113.51,151.48 C112.898263,152.112308 112.412903,152.855622 112.08,153.67 C111.989882,153.946167 111.989882,154.243833 112.08,154.52 C112.250782,154.800661 112.492132,155.031667 112.78,155.19 C113.426837,155.650266 114.15196,155.989108 114.92,156.19 C115.41,156.33 116.04,156.86 116.52,156.7 C117,156.54 117.24,155.96 117.68,155.7 C118.238853,155.487578 118.860257,155.512868 119.4,155.77 C119.94846,156.020095 120.588609,155.959128 121.08,155.61 C121.228292,155.429839 121.340348,155.222704 121.41,155 C121.612928,154.397035 121.747111,153.773081 121.81,153.14 C121.772412,152.481208 121.967039,151.830095 122.36,151.3 C122.469045,151.212755 122.566501,151.111939 122.65,151 C122.87,150.62 122.5,150.18 122.32,149.78 C122.186706,149.405169 122.132236,149.006856 122.16,148.61 C122.12,147.08 122.43,145.07 121.03,143.99 Z"/>
    <path fill="#FFF" d="M109.9,154.4 C109.737954,154.617753 109.682837,154.897009 109.75,155.16 C109.880885,155.387386 110.127933,155.52249 110.39,155.51 C112.275432,155.589902 114.126956,156.038345 115.84,156.83 C116.21,157.01 116.7,157.2 116.96,156.83 C117.109476,156.559261 117.109476,156.230739 116.96,155.96 C116.815027,155.718833 116.620796,155.510972 116.39,155.35 C115.64656,154.808259 114.871888,154.310733 114.07,153.86 C112.58,152.98 111.05,152.52 109.9,154.4 Z"/>
    <path fill="#FFF" d="M115.65,184.54 C116.52,186.28 118.35,187.34 116.52,189.09 C113.3,192.2 107.59,193.5 103.27,193.46 C100.346677,193.553044 97.474509,192.677683 95.1,190.97 C94.4017604,190.461373 93.8582817,189.769044 93.53,188.97 C93.3586424,188.447042 93.2708962,187.900316 93.27,187.35 C92.7,177.16 96.27,167.12 101.41,158.28 C102.41,156.58 103.66,154.76 105.59,154.47 C106.282601,154.408171 106.980576,154.452006 107.66,154.6 C112.045614,155.358149 116.385653,156.359696 120.66,157.6 C123.86,158.53 126.17,161.96 127.19,165.01 C128.08,167.63 128.42,170.41 129.19,173.01 C129.290608,173.533566 129.583027,174.000723 130.01,174.32 C130.483242,174.53401 131.021177,174.555527 131.51,174.38 C133.049238,174.060232 134.56322,173.629098 136.04,173.09 C136.819958,174.814268 137.342207,176.643825 137.59,178.52 C136.490285,179.391513 135.460474,180.347766 134.51,181.38 C132.347923,183.320263 129.486525,184.292127 126.59,184.07 C125.581072,184.059367 124.614671,183.662069 123.89,182.96 C123.492861,182.429444 123.216417,181.818536 123.08,181.17 C122.633333,179.583333 122.24,177.98 121.9,176.36 C121.72,175.48 121.55,174.6 121.4,173.71 C121.3,173.15 121.4,171.55 120.99,171.14 C119.91,169.89 119.46,172.6 119.27,173.2 C118.749812,174.842121 118.108037,176.443217 117.35,177.99 C116.38,180.04 114.55,182.35 115.65,184.54 Z"/>
    <path fill="#2F3554" d="M122.3,144.3 C122.512981,143.653543 122.537263,142.959766 122.37,142.3 C122.081349,141.331017 121.579017,140.439122 120.9,139.69 C119.675532,138.043684 117.901646,136.890658 115.9,136.44 C110.5,135.56 104.22,141.07 102.17,145.62 C100.88,148.48 100.49,151.62 99.77,154.71 C99.05,157.8 97.88,160.89 95.46,162.9 C94.46,163.72 93.29,164.36 92.7,165.49 C92.0682649,166.949982 92.3244574,168.642405 93.36,169.85 C94.2513489,170.791525 95.3004854,171.569916 96.46,172.15 C97.4700365,172.874145 98.27325,173.849722 98.79,174.98 C100.03,177.38 100.52,180.12 102.05,182.38 L104.26,181.16 C106.16296,180.235975 107.910536,179.021444 109.44,177.56 C110.975148,176.065755 111.741538,173.950814 111.52,171.82 C111.175408,170.587835 110.744338,169.381508 110.23,168.21 C108.99,164.38 111.7,162.84 114.06,160.57 C115.678897,158.958023 116.423216,156.66552 116.06,154.41 C115.920836,153.91955 115.87671,153.407019 115.93,152.9 C116.179839,152.190251 116.598537,151.551909 117.15,151.04 C118.15,149.82 117.36,148.24 118.55,147.12 C119.47,146.25 120.88,146.12 121.75,145.12 C121.987738,144.887369 122.174968,144.608227 122.3,144.3 L122.3,144.3 Z"/>
    <path fill="url(#hero7-n)" d="M95.8,170.9 C96.1057811,169.544177 96.5515039,168.223765 97.13,166.96 C99.65,168.75 101.5,172.26 102.43,175.22 C103.36,178.18 104.12,181.27 106.02,183.72 L108.07,183.01 L108.45,184.31 C108.75,185.31 107.89,186.38 107.98,187.41 C108.181582,188.500557 109.009939,189.368173 110.09,189.62 C111.298734,189.849802 112.546514,189.760183 113.71,189.36 C114.472044,189.21099 115.192233,188.896974 115.82,188.44 C116.442333,187.978712 116.742319,187.199529 116.59,186.44 C117.090432,186.759052 117.318914,187.371058 117.15,187.94 C116.958784,188.490644 116.611293,188.973656 116.15,189.33 C114.649121,190.491015 112.957044,191.381047 111.15,191.96 C110.295886,192.301359 109.424728,192.59842 108.54,192.85 C106.504577,193.298601 104.424056,193.510009 102.34,193.48 C101.07,193.48 100.34,193.31 99.75,192.06 C99.1095213,190.209607 98.7718473,188.267981 98.75,186.31 C98.1634635,181.105258 97.1772178,175.953378 95.8,170.9 Z"/>
    <path fill="#863399" d="M87.3 199.13L74.67 232.42C74.4203407 233.104662 74.7681605 233.862731 75.45 234.12 75.5540808 234.15389 75.6612755 234.177339 75.77 234.19L75.77 234.19C76.3614301 234.25108 76.9198246 233.906189 77.13 233.35L89.77 200.07C89.8962114 199.745306 89.8868263 199.383541 89.7439492 199.065828 89.6010721 198.748114 89.3366586 198.501037 89.01 198.38L89.01 198.38C88.6853056 198.253789 88.3235411 198.263174 88.0058276 198.406051 87.688114 198.548928 87.4410369 198.813341 87.32 199.14L87.3 199.13zM104.19 200.86L107.43 235.53C107.46973 236.310884 106.870708 236.97696 106.09 237.02L105.88 237.02C105.300179 236.965769 104.839523 236.509302 104.78 235.93L101.54 201.27C101.491357 200.529722 102.024676 199.878373 102.76 199.78L102.76 199.78C103.081192 199.722053 103.41221 199.795217 103.679058 199.983138 103.945905 200.171059 104.126331 200.458066 104.18 200.78 104.18 200.78 104.19 200.8 104.19 200.86zM93.42 199.9L84.06 233.39C83.9697118 233.763962 84.0317354 234.158476 84.2324169 234.486694 84.4330983 234.814911 84.7559863 235.049925 85.13 235.14L85.31 235.14 85.31 235.14C85.8865233 235.214952 86.4294843 234.851553 86.58 234.29L95.95 200.8C96.1255105 200.075702 95.7233821 199.336304 95.02 199.09L95.02 199.09C94.7269652 198.971636 94.3988824 198.974698 94.1081081 199.098512 93.8173338 199.222325 93.5877536 199.456719 93.47 199.75 93.4488661 199.798398 93.4321319 199.848601 93.42 199.9L93.42 199.9zM110.74 201.8L119.22 236.97C119.407552 237.599581 119.049462 238.262048 118.42 238.45 118.258498 238.484586 118.091502 238.484586 117.93 238.45L117.93 238.45C117.327171 238.379019 116.832351 237.940066 116.69 237.35L108.19 202.17C108.104102 201.864975 108.143411 201.538287 108.299214 201.262346 108.455018 200.986404 108.714447 200.784001 109.02 200.7L109.19 200.7 109.19 200.7C109.909643 200.625205 110.573046 201.096007 110.74 201.8z"/>
    <path fill="#505365" d="M108.3,175.07 C105.86,169.5 102.36,163.89 96.74,161.54 C93.28,160.1 89.4,160.07 85.65,160.33 C82.8440851,160.38444 80.0757294,160.985666 77.5,162.1 C74.9068052,163.270857 73.042783,165.626981 72.5,168.42 C72.379855,170.035687 72.5595432,171.659661 73.03,173.21 L76.87,189.45 C77.37,191.59 77.93,193.82 79.42,195.45 C80.9243408,196.836877 82.7378914,197.844786 84.71,198.39 C91.03,200.67 97.42,202.98 104.08,203.86 C110.74,204.74 117.81,204.1 123.66,200.8 C125.75,199.62 127.88,197.4 127.04,195.16 C126.38,193.43 124.28,192.77 122.43,192.66 C117.59,192.36 116.25,191.66 113.81,187.42 C111.58,183.49 110.15,179.19 108.3,175.07 Z"/>
  </g>
</svg>
