<svg xmlns="http://www.w3.org/2000/svg" width="387" height="292" viewBox="0 0 387 292">
  <g fill="none" fill-rule="evenodd">
    <path fill="#863399" fill-rule="nonzero" d="M1.41,190.75 C3.34,199.16 7.25,207.18 13.41,213.22 C18.23,217.98 20.41,220.33 23.55,226.44 C26.5205126,232.151982 29.9907166,237.589862 33.92,242.69 C49.26,262.59 71.2,276.3 95,283.79 C123.33,292.69 154,292.94 183.08,287.17 C198.29,284.17 213.33,279.53 228.83,279.17 C240.58,278.87 252.22,281.01 263.83,282.55 C303.24,287.81 374.41,290.9 383.54,240 C385.84,227.22 383.39,215 379.95,202.69 C378.466161,197.558304 376.06025,192.739705 372.85,188.47 C370.46,185.06 367.85,181.73 365.26,177.55 C359.26,171.55 359.9,154.63 361.11,146.78 C362.7,136.44 370.35,127.46 375.76,118.72 C379.76,112.21 383.9,105.52 385.42,98.01 C387.5,87.7 384.49,77.11 381.5,67.01 C378.25,56.01 374.72,44.63 366.79,36.4 C360.79,30.18 352.79,26.34 344.99,22.64 C323.83,12.64 301.74,2.26 278.07,0.35 C254.4,-1.56 235.23,4.35 215.54,17.46 C201.32,26.87 187.46,37.58 171.06,42.21 C159.06,45.6 146.37,45.5 133.96,46.83 C92.8971878,51.4008012 55.0886006,71.3519589 28.14,102.67 C23.6674145,107.770484 19.7394632,113.32391 16.42,119.24 C13.529595,124.783188 11.0690312,130.540104 9.06,136.46 C3.97,150.57 -0.58,165.26 0.06,180.25 C0.179325986,183.784624 0.631322263,187.30015 1.41,190.75 Z" opacity=".18"/>
    <path fill="#4C506D" fill-rule="nonzero" d="M165.14,167.56 C164.550376,167.232654 163.942742,166.938853 163.32,166.68 C162.53998,166.494587 161.73071,166.467384 160.94,166.6 L151.35,167.6 C150.769745,167.605516 150.203542,167.779198 149.72,168.1 C149.08,168.62 148.99,169.53 148.72,170.32 C147.54,173.9 142.95,174.65 139.48,176.12 C138.870734,176.330521 138.328732,176.69991 137.91,177.19 C137.06,178.34 137.68,180.03 138.66,181.07 C140.89,183.43 144.41,183.89 147.66,184.13 C152.326667,184.47 156.993333,184.626667 161.66,184.6 C165.25,184.6 170.66,185.34 174.01,183.79 C180.01,180.97 176.78,174.63 172.36,172.66 C174.96,168.22 167.14,168.4 165.14,167.56 Z"/>
    <path fill="url(#lunch_break-(2)-a)" fill-rule="nonzero" d="M321.37,220.35 L316.75,225.79 L342.75,233.63 C343.659807,233.791257 344.474599,234.291567 345.03,235.03 C346.03,236.79 343.72,238.53 341.84,239.2 C310.03,250.59 275.07,240.73 241.3,239.92 C222.5,239.46 203.77,241.92 185.01,243.29 C175.81,243.99 166.55,244.45 157.37,243.45 C150.431699,242.522304 143.545881,241.237263 136.74,239.6 C115.51,235.03 93.95,231.6 72.24,231.18 C68.14,231.1 63.97,231.1 60.08,229.81 C59.0323046,229.542631 58.0885255,228.968005 57.37,228.16 C56.1,226.51 56.81,223.95 58.37,222.56 C59.93,221.17 62.06,220.66 64.1,220.24 C116.46,209.59 170.33,229.72 223.68,226.65 C238.77,225.78 254.44,226.49 269.37,223.97 C277.37,222.61 285.27,220.44 293.37,219.54 C296.89,219.15 320.36,221.53 321.37,220.35 Z"/>
    <path fill="#2F3554" fill-rule="nonzero" d="M227,86.13 C228.284121,86.7124352 229.487451,87.4586344 230.58,88.35 C231.664402,87.138703 233.224645,86.4627195 234.85,86.5 C236.44,86.65 237.94,88.14 237.66,89.71 C237.56,90.31 237.23,90.84 237.15,91.44 C236.97,92.81 238.09,93.95 239.09,94.89 C240.703309,96.3072013 242.098373,97.9549941 243.23,99.78 C244.362777,101.627532 244.775705,103.827446 244.39,105.96 C244.058628,106.822453 243.951954,107.754993 244.08,108.67 C244.38,109.67 245.44,110.26 246.08,111.11 C247.15,112.52 246.94,114.51 246.49,116.22 C246.04,117.93 245.38,119.69 245.73,121.42 C245.96,122.6 246.63,123.66 246.8,124.84 C247.09,127.01 245.29,128.16 244.85,130.02 C244.28,132.37 243.71,134.52 241.96,136.32 C241.388794,136.953585 240.661183,137.426015 239.85,137.69 C238.802202,137.887708 237.722372,137.832859 236.7,137.53 C234.326991,137.112095 232.011175,136.417351 229.8,135.46 C227.573045,134.486625 225.757784,132.763365 224.67,130.59 C224.168901,129.331962 223.832774,128.014345 223.67,126.67 L221.92,115.67 C221.50698,113.486667 221.282818,111.271812 221.25,109.05 C221.32,104.38 223.08,99.67 221.99,95.12 C221.44,92.89 219.63,88.56 221.63,86.68 C222.94058,85.6177816 224.708255,85.3111827 226.3,85.87 L227,86.13 Z"/>
    <rect width="228.87" height="5.81" x="91.54" y="182.65" fill="#863399" fill-rule="nonzero"/>
    <path fill="#FDB9A9" fill-rule="nonzero" d="M175.92 108.81C174.05 108.31 172.12 108.4 170.18 107.86 168.64219 107.428437 167.276094 106.530517 166.27 105.29 165.28274 104.014167 164.997613 102.329671 165.51 100.8 165.606837 100.470962 165.834624 100.19617 166.14 100.04 166.426451 99.9501396 166.733549 99.9501396 167.02 100.04 168.258874 100.340789 169.477884 100.718181 170.67 101.17 171.084968 101.351347 171.528158 101.459607 171.98 101.49 172.440685 101.498153 172.861763 101.230552 173.05 100.81 173.071355 100.617562 173.129043 100.430925 173.22 100.26 173.447061 100.010086 173.83078 99.9836224 174.09 100.2 174.329446 100.429292 174.508137 100.714511 174.61 101.03 175.119645 102.757883 176.220481 104.251621 177.72 105.25 179.369695 106.2897 181.239284 106.930017 183.18 107.12 184.59 107.24 186.02 107.12 187.42 107.36 189.083421 107.642975 190.627217 108.407919 191.86 109.56 192.062624 109.720636 192.215255 109.935707 192.3 110.18 192.348738 110.44229 192.320966 110.713064 192.22 110.96 191.81 112.39 191.22 113.96 189.94 114.67 188.923042 115.1881 187.73931 115.271106 186.66 114.9 185.586956 114.521084 184.575979 113.985265 183.66 113.31 181.601204 111.752162 179.401691 110.389603 177.09 109.24 176.711475 109.067189 176.320345 108.92344 175.92 108.81zM204.58 206.52C199.42 205.36 200.43 212.66 199.08 215.37 198.227514 216.752954 197.153145 217.986113 195.9 219.02 194.639456 220.068324 193.812762 221.547109 193.58 223.17 193.554176 223.474537 193.61667 223.780063 193.76 224.05 194.008751 224.367401 194.36395 224.584073 194.76 224.66 197.698586 225.521154 200.856611 225.209294 203.57 223.79 204.831547 223.183572 205.878112 222.206777 206.57 220.99 207.137223 219.678928 207.40374 218.257502 207.35 216.83 207.52 213.79 208.87 207.46 204.58 206.52z"/>
    <path fill="#863399" fill-rule="nonzero" d="M200.02,221.56 C200.02,221.56 185.37,222.18 191.57,226.78 C197.77,231.38 207.04,225.66 207.95,224.61 C208.86,223.56 208.12,221.76 208.12,221.76 L200.02,221.56 Z"/>
    <path fill="#FFF" fill-rule="nonzero" d="M207.31,223.58 C206,225.17 199.12,227.31 196.07,227.09 C193.02,226.87 190.29,225.45 190.59,223.48 C190.89,221.51 196.27,216.93 197.28,216.939984 C198.29,216.95 199.1,219.29 201.13,219.78 C202.992852,220.097088 204.88659,219.422917 206.13,218 C206.515323,217.480353 207.211629,217.301065 207.8,217.57 C208.631987,219.532493 208.448893,221.778195 207.31,223.58 L207.31,223.58 Z"/>
    <path fill="#FDB9A9" fill-rule="nonzero" d="M222.24,209.46 C217.09,208.26 218.1,215.56 216.74,218.27 C215.896537,219.662464 214.821016,220.900328 213.56,221.93 C212.291735,222.970465 211.466047,224.453843 211.25,226.08 C211.218167,226.381657 211.28108,226.68574 211.43,226.95 C211.677699,227.270453 212.032828,227.490633 212.43,227.57 C215.369559,228.420661 218.523605,228.109195 221.24,226.7 C222.498675,226.084662 223.543741,225.105783 224.24,223.89 C224.801284,222.580635 225.067581,221.163803 225.02,219.74 C225.14,216.61 226.53,210.32 222.24,209.46 Z"/>
    <path fill="#863399" fill-rule="nonzero" d="M217.68,224.37 C217.68,224.37 203.03,224.99 209.24,229.6 C215.45,234.21 224.71,228.46 225.61,227.46 C226.51,226.46 225.78,224.6 225.78,224.6 L217.68,224.37 Z"/>
    <path fill="#FFF" fill-rule="nonzero" d="M224.97,226.36 C223.66,227.96 216.78,230.1 213.74,229.88 C210.7,229.66 207.95,228.25 208.25,226.28 C208.55,224.31 213.93,219.72 214.94,219.729984 C215.95,219.74 216.76,222.09 218.8,222.57 C220.662852,222.887088 222.55659,222.212917 223.8,220.79 C224.185323,220.270353 224.881629,220.091065 225.47,220.36 C226.29899,222.320717 226.112088,224.563539 224.97,226.36 L224.97,226.36 Z"/>
    <path fill="#473F47" fill-rule="nonzero" d="M208.96,142.94 L215.85,215.39 L225.77,214.17 C229.69,196.49 228.77,143.6 228.77,143.6 L208.96,142.94 Z"/>
    <path fill="#473F47" fill-rule="nonzero" d="M215.85,140.98 L208.96,213.46 L199.02,212.24 C193.34,166.39 198.02,137.85 198.02,137.85 L215.85,140.98 Z"/>
    <path fill="#FFF" fill-rule="nonzero" d="M187.79,107.62 C187.79,107.27 188.05,107.09 188.36,106.77 L190.63,104.45 L197.06,97.86 L202.38,92.41 L202.38,108.97 C202.38,110.32 202.64,111.51 201.18,112.19 C200.583236,112.418718 199.962685,112.579727 199.33,112.67 C196.62673,113.149111 193.970109,113.861781 191.39,114.8 C191.009317,114.962377 190.603235,115.057129 190.19,115.080157 C189.774938,115.086927 189.390089,114.863715 189.19,114.5 C188.89,113.84 189.53,113.15 189.66,112.5 C189.710914,112.006739 189.638762,111.508549 189.45,111.05 C189.296592,110.526466 189.11295,110.012269 188.9,109.51 C188.65,108.97 188.06,108.46 187.9,107.94 C187.839752,107.842955 187.802153,107.733578 187.79,107.62 L187.79,107.62 Z"/>
    <path fill="#FFF" fill-rule="nonzero" d="M198.89,114.78 C198.77,113.45 198.42,112.14 198.28,110.78 C197.954853,108.049324 198.005322,105.286976 198.43,102.57 C198.899339,99.6730003 199.771098,96.8557728 201.02,94.2 C202.17,91.9 204.24,90.92 206.56,89.78 C208.507339,88.7204118 210.620874,88.0001194 212.81,87.65 C214.354446,87.5113447 215.910863,87.5989353 217.43,87.91 C222.1,88.8 228.27,91.21 231.43,94.91 C233.83,97.69 234.12,101.65 234.19,105.32 C234.29,110.38 234.186667,115.44 233.88,120.5 C233.84,121.233333 233.79,121.963333 233.73,122.69 C233.3,128.24 232.85,134 231.27,139.35 C230.77,141.03 230.27,142.72 228.69,143.62 C225.04,145.75 219.44,144.62 215.48,144.03 C210.24,143.29 204.85,142.51 200.2,139.96 C199.227959,139.543675 198.441866,138.786037 197.99,137.83 C197.58,136.7 198.08,135.46 198.43,134.3 C200,129.13 198.78,123.68 198.78,118.4 C198.78,117.4 198.91,116.47 198.91,115.51 C198.93,115.27 198.89,115.02 198.89,114.78 Z"/>
    <path fill="#020202" fill-rule="nonzero" d="M219.87,144.95 C219.35,143.95 220.44,141.26 220.03,139.87 C219.31,137.34 218.42,135.39 218.54,132.59 C218.677808,130.568377 218.982174,128.56157 219.45,126.59 L222.81,110.59 C223.42,107.66 224.75,93.59 229.22,95.15 C231.740351,96.2263361 233.657656,98.3595203 234.46,100.98 C235.218419,103.575243 235.532845,106.279985 235.39,108.98 C235.31,115.98 233.91,123.22 233.01,130.21 C232.66,132.86 232.25,142.68 228.75,143.55 C228.07,143.73 227.39,144.07 226.75,144.2 C225.57,144.41 222.04,145.81 220.51,145.35 C220.250157,145.311923 220.018091,145.166881 219.87,144.95 L219.87,144.95 Z" opacity=".1"/>
    <path fill="#FDB9A9" fill-rule="nonzero" d="M214.58 145.19C213.470154 147.297502 213.070327 149.706988 213.44 152.06 213.430797 152.3139 213.57743 152.54772 213.81 152.65 213.961287 152.689548 214.122316 152.660269 214.25 152.57 215.15 152.02 215.04 150.25 216.09 150.19 216.31086 150.199364 216.52798 150.250251 216.73 150.34 217.635386 150.772305 218.584009 151.107508 219.56 151.34 220.543952 151.557559 221.573971 151.381702 222.43 150.85 223.43073 149.975864 224.000402 148.708708 223.99 147.38 223.958432 145.991065 224.119976 144.604478 224.47 143.26 224.917631 142.019361 225.252323 140.740837 225.47 139.44 225.96 136.58 226.28 133.62 227.6 130.99 228.6 128.99 230.11 127.35 231.15 125.4 232.29 123.26 233.27 118.7 230.01 118.08 228.972011 117.883678 227.911312 117.836536 226.86 117.94 226.464028 117.960127 226.077731 118.069521 225.73 118.26 225.212257 118.68737 224.858827 119.281132 224.73 119.94 222.701806 125.587256 221.120277 131.385083 220 137.28 219.38 140.76 216.14 142.02 214.58 145.19zM208.98 80.38C208.990954 78.989637 209.077749 77.6009069 209.24 76.22 209.37 75.02 209.56 73.8 209.8 72.61 209.819297 71.8935465 210.156476 71.2228534 210.72 70.78 212.581251 69.6398244 214.727484 69.0503904 216.91 69.08 219.638019 68.6613546 222.189303 70.5322961 222.61 73.26 222.649841 73.5080152 222.669905 73.7588051 222.67 74.01 223 77.01 222.21 80.08 221.77 83.11 221.423728 85.4564342 221.296513 87.8299961 221.39 90.2 220.248108 90.9593942 218.935481 91.4232809 217.57 91.55 216.930822 91.5474651 216.296154 91.4428124 215.69 91.24 215.350873 91.1686427 215.051008 90.9723025 214.85 90.69 214.757167 90.4375013 214.733012 90.1648879 214.78 89.9 214.818177 89.6516083 214.841552 89.4011664 214.85 89.15L214.85 89.15C214.948467 87.7670829 214.921691 86.3780948 214.77 85 214.773174 84.8847584 214.729939 84.773069 214.65 84.69 214.555645 84.6601002 214.454355 84.6601002 214.36 84.69L213.97 84.69C213.281775 84.7599889 212.588225 84.7599889 211.9 84.69 211.073227 84.6100051 210.304597 84.2292485 209.74 83.62 209.084765 82.6755421 208.813081 81.5173087 208.98 80.38z"/>
    <path fill="#2F3554" fill-rule="nonzero" d="M211.25,71.97 C210.50952,73.0076266 209.068472,73.249293 208.03,72.51 L207.94,72.44 C207.72985,72.3042287 207.619956,72.0569686 207.66,71.81 C207.14,71.86 206.8,71.27 206.73,70.75 C206.624054,69.810052 206.955886,68.8735486 207.63,68.21 C208.314102,67.5560346 209.26668,67.2632189 210.2,67.42 C210.278171,66.5879643 210.721353,65.8334553 211.41,65.36 C212.112746,64.9068194 212.978192,64.7826626 213.78,65.02 C214.134841,64.5259057 214.670255,64.1917211 215.27,64.09 C216.108526,63.7831972 216.997398,63.6373136 217.89,63.66 C218.796822,63.7003992 219.616315,64.2125821 220.05,65.01 C220.079573,65.0936684 220.123571,65.171511 220.18,65.24 C220.303498,65.322576 220.452541,65.3580624 220.6,65.34 C221.635189,65.2577344 222.673059,65.4618488 223.6,65.93 C224.608077,66.5464503 225.328103,67.5400862 225.6,68.69 C225.94,69.99 225.6,71.17 225.66,72.45 C225.66,72.69 225.94,72.83 226.15,72.96 C226.658212,73.2798778 227.094154,73.702196 227.43,74.2 C227.827062,74.7699855 228.062073,75.4370032 228.11,76.13 C228.18,77.84 226.97,79.34 225.66,80.43 C224.92,81.04 224.13,81.6 223.41,82.23 C223.052132,82.5378609 222.717861,82.872132 222.41,83.23 C222.21,83.48 222.01,84.05 221.67,84.11 C221.33,84.17 221.08,83.81 220.99,83.49 C220.605884,82.118716 220.704739,80.6570749 221.27,79.35 C221.660306,78.711027 221.890181,77.9870897 221.94,77.24 C221.87,76.5 220.87,75.92 220.38,76.35 C219.89,76.78 219.81,77.85 219.22,77.64 C219.362654,77.0539118 219.436486,76.4531892 219.44,75.85 C219.400014,75.2471062 219.257998,74.655371 219.02,74.1 C218.72,73.44 217.32,71.38 216.43,72.24 C216.303364,72.3966973 216.155235,72.5347267 215.99,72.65 C215.737285,72.7671576 215.441824,72.7444298 215.21,72.59 C214.987842,72.4278171 214.792183,72.2321581 214.63,72.01 C214.213473,72.5698688 213.583439,72.9319571 212.89,73.01 C212.155668,73.1445812 211.441377,72.6916165 211.25,71.97 L211.25,71.97 Z"/>
    <path fill="#DE9F93" fill-rule="nonzero" d="M213.98,84.64 C215.587948,84.3432337 217.160017,83.8773112 218.67,83.25 C218.8,88.14 214.83,89.15 214.83,89.15 L214.83,89.15 C214.928467,87.7670829 214.901691,86.3780948 214.75,85 C214.753174,84.8847584 214.709939,84.773069 214.63,84.69 C214.535645,84.6601002 214.434355,84.6601002 214.34,84.69 L213.98,84.69 L213.98,84.64 Z"/>
    <path fill="#2F3554" fill-rule="nonzero" d="M97.95,142.67 C100.8,144.31 103.2,142.6 103.95,139.67 C104.26,138.36 104.38,137 104.81,135.67 C105.469355,134.023254 106.347226,132.472685 107.42,131.06 C108.502418,129.64895 109.278923,128.027827 109.7,126.3 C110.097538,124.532997 109.508429,122.689162 108.16,121.48 C107.851062,121.202461 107.444746,121.058632 107.03,121.08 C106.37,121.14 106.03,121.89 105.87,122.55 C105.847456,123.226706 105.743371,123.898222 105.56,124.55 C105.042187,125.430139 104.197496,126.069947 103.21,126.33 C100.99,127.24 98.61,128.05 97.05,129.86 C95.7265536,131.535363 95.0933658,133.653144 95.28,135.78 C95.36,137.87 95.98,141.55 97.95,142.67 Z"/>
    <path fill="#4C506D" fill-rule="nonzero" d="M125.31,156.85 L122.14,168.91 C112.78,170.85 102.14,167.13 102.14,167.13 C102.65,161.75 102.14,154.4 101.14,152.13 C98.49,146.03 95.23,137.94 99.02,133.33 C102.08,129.61 107.68,129.97 111.1,130.07 C114.484292,130.118361 117.86882,129.991524 121.24,129.69 C134.23,143.62 125.31,156.85 125.31,156.85 Z"/>
    <path fill="#2F3554" fill-rule="nonzero" d="M113.72,107.38 L117.72,118.720117 C117.72,118.720117 124.24,118.83 122.9,112.3 C121.56,105.77 117.05,105.5 117.05,105.5 L113.72,107.38 Z"/>
    <path fill="#EC9C7D" fill-rule="nonzero" d="M107.86,107.51 C107.86,107.51 118.77,104.44 120.56,112.09 C120.933044,113.672698 121.117659,115.293951 121.11,116.92 C121.119976,117.474011 121.099946,118.028155 121.05,118.58 C120.56,123.58 118.05,127.38 113.99,127.04 C106.9,126.46 99.33,111.34 107.86,107.51 Z"/>
    <path fill="#D68369" fill-rule="nonzero" d="M109.14,121.81 C109.008338,121.944377 108.828128,122.020102 108.64,122.020102 C108.451872,122.020102 108.271662,121.944377 108.14,121.81 L108.14,121.81 C108.939618,123.007354 109.440297,124.379077 109.6,125.81 C110.15,129.94 108.14,130.11 108.14,130.11 C115.58,134.27 116.68,131.45 116.68,131.45 C115.702619,130.081124 115.597619,128.272798 116.41,126.8 C113.03,127.73 110.06,123.75 109.41,121.49 C109.352682,121.620434 109.258928,121.731549 109.14,121.81 L109.14,121.81 Z"/>
    <path fill="#2F3554" fill-rule="nonzero" d="M115.69,106.38 C115.115554,106.180398 114.506736,106.098769 113.9,106.14 C110.9,106.14 107.73,106.32 105.01,107.67 C103.29,108.52 101.69,110.04 101.56,111.96 C101.561728,112.936207 101.748351,113.903252 102.11,114.81 C102.40854,115.51631 102.610363,116.259689 102.71,117.02 C102.71,117.6 102.48,118.2 102.48,118.8 C102.490973,120.122721 102.890917,121.412974 103.63,122.51 C104.229049,123.32072 104.920361,124.059014 105.69,124.71 L107.31,126.18 C107.376945,126.260207 107.46823,126.316383 107.57,126.34 C107.656433,126.339298 107.740433,126.311298 107.81,126.26 C109.019152,125.57022 109.711792,124.235812 109.58,122.85 C109.55462,122.346928 109.340348,121.871958 108.98,121.52 C108.661772,121.301722 108.327485,121.107835 107.98,120.94 C107.197349,120.460102 106.720209,119.608066 106.72,118.69 C106.679199,118.299988 106.85104,117.918119 107.17,117.69 C107.538467,117.528254 107.96799,117.603124 108.26,117.88 C108.68,118.26 108.63,118.7 109.18,118.81 C109.776723,118.811377 110.359543,118.6299 110.85,118.29 C114.46,116.29 115.85,111.02 116.94,107.29 C116.43,107.17 116.21,106.6 115.69,106.38 Z"/>
    <path fill="#EC9C7D" fill-rule="nonzero" d="M107.14,145.25 C104.14,136.53 102.14,132.25 99.08,133.33 C99.08,133.33 95.08,135.33 97.35,143.33 C99.89,152.33 106.62,160.72 106.62,160.72 L109.73,153.86 C109.73,153.86 108.72,150.05 107.14,145.25 Z"/>
    <path fill="#DC9BD5" fill-rule="nonzero" d="M138.91,177.19 C138.72,176.96 138.1,176.19 137.18,175.19 C137.260843,175.262777 137.334514,175.343146 137.4,175.43 C137.94,175.99 138.44,176.6 138.91,177.19 Z"/>
    <path fill="#93D500" fill-rule="nonzero" d="M102.58,164.59 C106.71,164.83 111.04,165.12 115.28,165.73 C115.28,165.73 131.9,179.73 134.02,183.12 C138.93,190.99 143.71,188.75 136.59,200.25 C131.85,207.91 127.1,215.576667 122.34,223.25 C119.92,224.06 117.34,221.93 116.64,219.46 C115.94,216.99 116.64,214.37 117.39,211.91 C118.843333,206.95 120.273333,201.993333 121.68,197.04 C121.98,195.91 122.29,194.64 121.68,193.64 C121.279164,193.091206 120.750566,192.648419 120.14,192.35 C118.45,191.35 117.29,188.97 115.42,188.4 C112.227822,187.549651 109.190275,186.19963 106.42,184.4 C103.628981,182.576514 101.66766,179.72793 100.96,176.47 C100.28,172.54 102.14,168.6 102.58,164.59 Z"/>
    <path fill="#93D500" fill-rule="nonzero" d="M115.31,165.77 C118.72,166.19 124.31,164.63 124.31,164.63 C129.18,166.8 134.44,172.19 137.13,175.21 L137.13,175.21 C138.06,176.21 138.68,176.99 138.87,177.21 L138.87,177.26 L138.87,177.26 L139.14,177.6 C142.14,181.6 144.03,186.31 145.89,190.95 L155.27,214.32 C155.62431,215.050104 155.815402,215.848598 155.83,216.66 C155.69,219.55 151.83,220.32 148.94,220.26 L136.48,200.26 C136.48,200.26 138.84,193.12 133.9,183.13 C132.14,179.55 115.14,165.74 115.14,165.74 L115.31,165.77 Z"/>
    <path fill="url(#lunch_break-(2)-b)" fill-rule="nonzero" d="M115.31,165.77 C118.72,166.19 124.31,164.63 124.31,164.63 C129.18,166.8 134.44,172.19 137.13,175.21 L137.13,175.21 C138.06,176.21 138.68,176.99 138.87,177.21 L138.87,177.26 L138.87,177.26 L139.14,177.6 C142.14,181.6 144.03,186.31 145.89,190.95 L155.27,214.32 C155.62431,215.050104 155.815402,215.848598 155.83,216.66 C155.69,219.55 151.83,220.32 148.94,220.26 L136.48,200.26 C136.48,200.26 138.84,193.12 133.9,183.13 C132.14,179.55 115.14,165.74 115.14,165.74 L115.31,165.77 Z"/>
    <path fill="#EC9C7D" fill-rule="nonzero" d="M122.08 225.22C121.801559 224.511421 121.487834 223.817219 121.14 223.14 120.527737 222.547903 119.857728 222.018597 119.14 221.56 118.85 221.3 117.14 219.85 117.24 219.44 116.861299 220.819918 116.348872 222.159597 115.71 223.44 115.218713 224.179038 114.970492 225.053056 115 225.94 115.268585 226.760805 115.808065 227.466008 116.53 227.94 119.19 230.13 122.37 232.21 125.79 231.82 126.003689 231.825779 126.210163 231.742465 126.36 231.59 126.448807 231.46879 126.491367 231.319831 126.48 231.17 126.54 229.65 125.06 228.63 123.95 227.6 123.204737 226.910541 122.573561 226.107225 122.08 225.22zM155.54 218.64C154.85 217.84 154.79 217.82 153.77 218.28 153.030397 218.616505 152.323973 219.021611 151.66 219.49 151.571283 219.539759 151.501104 219.616957 151.46 219.71 151.4301 219.804355 151.4301 219.905645 151.46 220L152.46 223C152.550641 223.433498 152.778574 223.826243 153.11 224.12 153.386371 224.285226 153.69855 224.381281 154.02 224.4 156.495647 224.902783 159.039194 224.977195 161.54 224.62 162.18 224.49 162.88 224.14 162.88 223.52 162.867843 223.285294 162.780151 223.060803 162.63 222.88 161.87 221.88 160.47 221.63 159.27 221.2 157.824393 220.687137 156.538369 219.804503 155.54 218.64z"/>
    <path fill="#FFF" fill-rule="nonzero" d="M153.56 223.73C154.243688 223.719366 154.922933 223.84163 155.56 224.09 156.322023 224.236893 157.094389 224.323826 157.87 224.35 158.538883 224.451154 159.219741 224.270075 159.75 223.85 160.21 223.39 160.27 222.65 160.68 222.13 161.069022 221.674943 161.64144 221.418088 162.24 221.43 162.831041 221.44789 163.413884 221.573269 163.96 221.8 165.428211 222.289797 166.730457 223.179896 167.72 224.37 167.841548 224.496319 167.909616 224.664699 167.91 224.84 167.898401 224.956963 167.853258 225.068085 167.78 225.16 167.090009 225.889302 166.133902 226.307824 165.13 226.32 162.875601 226.70011 160.595881 226.9107 158.31 226.95 157.188773 226.879854 156.063366 226.920047 154.95 227.07 154.74769 227.130016 154.53231 227.130016 154.33 227.07 154.201918 226.980683 154.098677 226.860235 154.03 226.72 153.64 226.05 152.23 224.07 153.56 223.73zM115.57 224.59C116.22 224.8 116.77 225.73 117.24 226.21 117.866639 226.828298 118.534867 227.402975 119.24 227.93 119.816197 228.446024 120.579059 228.702721 121.35 228.64 122.09 228.49 122.62 227.82 123.35 227.59 124.007215 227.408713 124.71103 227.529681 125.27 227.92 125.821129 228.301191 126.298809 228.778871 126.68 229.33 127.75991 230.73397 128.43124 232.408833 128.62 234.17 128.651106 234.368283 128.60841 234.571089 128.5 234.74 128.412067 234.841994 128.297969 234.91806 128.17 234.96 127.048148 235.206644 125.874247 234.994189 124.91 234.37 122.533519 233.302082 120.243335 232.051674 118.06 230.63 117.039781 229.850224 115.940404 229.179873 114.78 228.63 114.549713 228.57182 114.347653 228.433569 114.21 228.24 114.131742 228.078587 114.107211 227.896361 114.14 227.72 114.21 226.79 114.14 224.01 115.57 224.59z"/>
    <path fill="#4C506D" fill-rule="nonzero" d="M96.14,135.88 C96.89,133.88 100.68,129.29 103.24,131.17 C104.882154,132.387509 106.057448,134.131038 106.57,136.11 C106.81,137.02 106.9,137.99 107.13,138.93 C107.44,140.09 107.92,141.19 108.13,142.36 C108.318322,143.594755 108.341861,144.849049 108.2,146.09 C105.76,145.75 103.326667,145.393333 100.9,145.02 L97.26,144.44 C96.58,144.33 95.2,144.61 94.87,143.9 C94.7170528,143.490378 94.6926338,143.043858 94.8,142.62 L95.09,140.55 C95.2673106,139.022803 95.6024344,137.518097 96.09,136.06 C96.1020031,135.998801 96.1187195,135.938622 96.14,135.88 L96.14,135.88 Z"/>
    <path fill="#FF6B00" fill-rule="nonzero" d="M252.63,220.16 L252.63,226.22 L230.95,226.22 C230.95,226.22 232.22,221.57 240.81,220.16 L243.62,217.87 L252.63,220.16 Z"/>
    <path fill="url(#lunch_break-(2)-c)" fill-rule="nonzero" d="M252.63,218.95 L252.63,225 L230.95,225 C230.95,225 232.22,220.36 240.81,218.95 L243.62,216.66 L252.63,218.95 Z"/>
    <path fill="#FF6B00" fill-rule="nonzero" d="M268.33,227.52 L268.33,233.57 L246.65,233.57 C246.65,233.57 247.92,228.92 256.5,227.52 L259.32,225.23 L268.33,227.52 Z"/>
    <path fill="url(#lunch_break-(2)-d)" fill-rule="nonzero" d="M268.33,226.3 L268.33,232.36 L246.65,232.36 C246.65,232.36 247.92,227.71 256.5,226.3 L259.32,224.01 L268.33,226.3 Z"/>
    <path fill="#863399" fill-rule="nonzero" d="M309.14,149.66 C308.557904,150.911459 308.102307,152.217948 307.78,153.56 C307.49,155.2 307.01,156.81 306.7,158.46 C306.122228,161.781537 305.847764,165.148741 305.88,168.52 C305.88,169.85 305.88,171.35 304.88,172.27 C304.18328,172.83052 303.339436,173.177781 302.45,173.27 C300.72,173.62 299.16,174.27 297.45,174.59 C295.572985,174.863172 293.676209,174.976911 291.78,174.93 C286.19,174.93 275.78,174.31 276.12,166.48 C276.5,157.62 277.19,149 278.43,140.16 C278.85,137.21 278.94,133.79 279.83,130.94 C280.6,128.56 283.38,128.53 285.69,128.78 L286.14,128.78 C286.583819,128.801497 287.025217,128.858344 287.46,128.95 C290.542931,129.261661 293.644455,129.348557 296.74,129.21 C300.22,129.11 305.79,128.76 309.22,132.04 C309.456191,132.267706 309.679853,132.508059 309.89,132.76 C313.32,136.97 311.46,143.71 309.14,149.66 Z"/>
    <path fill="#863399" fill-rule="nonzero" d="M264,147.57 C263.702057,149.435397 263.548269,151.320977 263.54,153.21 C263.488864,153.869737 263.631354,154.530058 263.95,155.11 C264.679282,155.902245 265.756307,156.277514 266.82,156.11 C270.194302,156.072271 273.421711,154.72393 275.82,152.35 C278.046378,150.137581 280.083501,147.74254 281.91,145.19 C282.927706,143.984218 283.420992,142.421545 283.28,140.85 C283.28,138.71 283.2,136.56 283,134.42 C283,133.92 279.51,134.31 279.16,134.42 C277.870795,134.78829 276.641466,135.340646 275.51,136.06 C275.519828,134.571894 275.650255,133.087032 275.9,131.62 C275.976043,131.194418 275.923831,130.755835 275.75,130.36 C275.36,129.67 274.38,129.6 273.58,129.67 C271.85,129.8 269.94,130.09 268.86,131.44 C268.407849,132.080618 268.069559,132.79441 267.86,133.55 C266.169857,138.102766 264.878337,142.793727 264,147.57 Z"/>
    <path fill="url(#lunch_break-(2)-e)" fill-rule="nonzero" d="M269.14,149.37 C268.955246,150.064897 269.026221,150.803039 269.34,151.45 C270.11,152.62 271.88,152.22 273.13,151.65 C274.809907,150.851396 276.407537,149.890139 277.9,148.78 C278.153079,148.532461 278.496164,148.398838 278.85,148.41 C279.099869,148.499555 279.318609,148.65927 279.48,148.87 C281.817039,151.436326 284.669122,153.48083 287.85,154.87 C288.93,155.34 290.36,155.63 291.14,154.78 C291.92,153.93 291.31,152.33 290.61,151.26 L282.38,138.54 C282.280504,138.357707 282.126721,138.210914 281.94,138.12 C281.63,138.01 281.31,138.25 281.06,138.47 C279.927482,139.448888 278.669786,140.27278 277.32,140.92 C276.847498,141.218783 276.277558,141.322735 275.73,141.21 C274.96,140.95 274.73,140.01 274.6,139.21 C274.438483,137.883029 274.401655,136.543842 274.49,135.21 C274.578984,134.658777 274.541367,134.094533 274.38,133.56 C273.943173,132.649608 272.854272,132.261352 271.94,132.69 L271.94,132.69 C271.878567,132.70997 271.821052,132.74042 271.77,132.78 C270.77,133.55 270.91,136.45 270.77,137.69 L269.14,149.37 Z"/>
    <path fill="url(#lunch_break-(2)-f)" fill-rule="nonzero" d="M297.58,148.92 C296.831893,150.277655 295.830493,151.479334 294.63,152.46 C293.28,153.51 290.17,157.62 288.24,156.36 C289.086967,157.107032 290.086965,157.659932 291.17,157.98 C288.17,160.07 284.43,160.63 280.85,161.3 C279.91962,161.418367 279.022149,161.720924 278.21,162.19 C277.390062,162.681967 276.920876,163.597073 277,164.55 C277.26,166.17 279.3,166.65 280.95,166.75 C284.95,167 289,167.08 293,167.57 C296.4,167.99 300.07,168.88 302.16,171.57 C302.306945,171.807568 302.518539,171.998349 302.77,172.12 C303.208156,172.228451 303.661542,172.010154 303.85,171.6 C304.015918,171.194516 304.091011,170.757612 304.07,170.32 C304.132502,166.982609 304.64719,163.669099 305.6,160.47 C305.99,159.18 306.03,157.86 306.41,156.63 C306.87,155.09 307.71,153.63 308.23,152.14 C309.278204,149.087885 309.982562,145.928336 310.33,142.72 C310.57,140.47 310.41,137.72 308.48,136.57 C306.984119,135.801625 305.175502,135.989941 303.87,137.05 C302.613149,138.098935 301.64002,139.446873 301.04,140.97 C299.88,143.58 299.01,146.46 297.58,148.92 Z"/>
    <path fill="#FFF" fill-rule="nonzero" d="M309.22,132.1 C305.79,128.82 300.22,129.17 296.73,129.28 C293.637508,129.410083 290.539678,129.319855 287.46,129.01 C287.02,128.95 286.58,128.89 286.13,128.85 C287.97,128.08 290.58,128.6 292.55,128.66 C295.516667,128.76 298.486667,128.943333 301.46,129.21 C304.28,129.46 307.39,129.95 309.22,132.1 Z"/>
    <path fill="#D68369" fill-rule="nonzero" d="M298.66,119.84 C297.485711,122.891156 294.166928,124.530974 291.03,123.61 C291.03,123.61 292.48,128.02 290.66,130.68 C290.32,131.18 292.6,131.68 292.73,131.68 C294.021413,131.67127 295.297455,131.399047 296.48,130.88 C298.310433,130.019315 300.237546,129.38142 302.22,128.98 C301.272807,128.556956 300.527012,127.782477 300.14,126.82 C299.08,124.6 299.43,122.6 299.85,120.33 C299.529841,120.515161 299.127153,120.474892 298.85,120.23 C298.748077,120.122625 298.681731,119.986442 298.66,119.84 Z"/>
    <path fill="#EC9C7D" fill-rule="nonzero" d="M294.68,125.51 C290.4,126.77 286.91,123.24 285.33,118.03 C285.16,117.46 285.02,116.87 284.89,116.26 C284.531984,114.527238 284.377605,112.758586 284.43,110.99 C284.66,102.45 296.94,103.31 296.94,103.31 C306.88,105.54 302.14,123.32 294.68,125.51 Z"/>
    <path fill="#FF681C" fill-rule="nonzero" d="M288.38,101.92 C286.814675,102.312237 285.448065,103.266017 284.54,104.6 C284.139625,105.341295 283.692036,106.0561 283.2,106.74 C282.44,107.67 281.3,108.34 280.9,109.47 C282.835783,109.786955 284.821776,109.434203 286.53,108.47 C286.807729,108.946925 287.318103,109.240199 287.87,109.24 C288.416465,109.231244 288.957481,109.129803 289.47,108.94 C289.748343,108.824346 290.055364,108.796435 290.35,108.86 C290.570972,108.961711 290.76846,109.108125 290.93,109.29 C291.951055,110.161771 293.347981,110.448707 294.63,110.05 C295.4,109.82 296.17,109.36 296.89,109.59 C297.686007,110.016169 298.170709,110.857612 298.14,111.76 C298.14,112.28 297.88,112.76 297.86,113.32 C297.839269,113.880004 297.920593,114.439107 298.1,114.97 C298.371294,114.579919 298.709919,114.241294 299.1,113.97 C299.511241,113.712235 300.027657,113.689452 300.46,113.91 C300.628689,114.022193 300.771807,114.168718 300.88,114.34 C301.58035,115.431045 301.39928,116.866973 300.45,117.75 C300.58,118.28 300.71,118.82 300.83,119.35 C301.509141,118.608218 302.050914,117.75154 302.43,116.82 C302.752728,115.775619 303.18865,114.769645 303.73,113.82 C304.114809,113.403227 304.450352,112.943533 304.73,112.45 C304.847324,112.079682 304.984183,111.715839 305.14,111.36 C305.64,110.47 306.34,109.58 306.05,108.49 C305.76,107.4 304.51,106.49 304.79,105.42 C304.86,105.21 304.92,105.01 304.97,104.8 C304.998125,104.484547 304.932,104.167844 304.78,103.89 C303.609275,101.609584 301.469847,99.9811184 298.96,99.46 C296.478344,98.9681896 293.922057,98.9920165 291.45,99.53 C288.96,99.96 286.5,100.58 283.98,100.77 C283.772377,100.744749 283.567986,100.837303 283.45,101.01 C283.420283,101.097547 283.420283,101.192453 283.45,101.28 C283.55,101.82 284.05,102.18 284.45,102.56 C284.85,102.94 285.22,103.56 284.92,104.01"/>
    <path fill="#2F3554" fill-rule="nonzero" d="M297.65,168.75 C297.65,168.75 292.45,181.75 288.27,183.12 C284.09,184.49 268.64,189.2 268.64,189.2 L252.07,222.82 L243.62,217.62 L257.62,177.12 L274.49,168.46 C274.49,168.46 278.8,168.62 297.65,168.75 Z"/>
    <path fill="#4C506D" fill-rule="nonzero" d="M304.87,171.25 C304.87,171.25 305.87,183.1 301.66,184.47 C297.45,185.84 282.04,190.56 282.04,190.56 L268.26,228.07 L259.26,225.78 L271.01,178.46 L287.84,169.83 C287.84,169.83 297.62,166.3 304.87,171.25 Z"/>
    <path fill="#863399" fill-rule="nonzero" d="M311.24,138.26 C311.24,138.26 303.91,154.7 296.13,156.92 C288.35,159.14 278.99,136.1 278.99,136.1 L285.23,133.75 L295.7,144.27 C295.7,144.27 302.19,130.49 304.83,131.12 C307.47,131.75 312.23,135.46 311.24,138.26 Z"/>
    <path fill="#D68369" fill-rule="nonzero" d="M277.4,124.58 C277.322599,125.22193 277.058325,125.826979 276.64,126.32 C276.134866,127.346352 275.797262,128.446939 275.64,129.58 C275.45913,130.713302 275.002391,131.784751 274.31,132.7 C273.57212,133.609537 272.330548,133.937118 271.24,133.51 C270.537384,133.098408 270.070316,132.379271 269.98,131.57 C269.899491,130.766491 269.991545,129.955055 270.25,129.19 C270.528947,128.189805 270.910995,127.221279 271.39,126.3 C271.811244,125.416962 272.410443,124.630513 273.15,123.99 C274.25,123.08 277.26,122.29 277.4,124.58 Z"/>
    <path fill="#FFF" fill-rule="nonzero" d="M285.22,124.8 C285.446586,124.996463 285.612989,125.253002 285.7,125.54 C285.740812,125.812667 285.699016,126.091308 285.58,126.34 C284.913014,127.700604 283.92028,128.875396 282.69,129.76 L280.76,131.39 C280.626033,131.522114 280.470457,131.630341 280.3,131.71 C279.999947,131.800068 279.680053,131.800068 279.38,131.71 L275.48,131.17 C274.978057,131.140282 274.490804,130.989302 274.06,130.73 C273.712227,130.448646 273.446315,130.079132 273.29,129.66 C272.158739,127.092124 272.470672,124.117354 274.11,121.84 C274.485579,121.293454 274.986092,120.844363 275.57,120.53 C277.4,119.63 278.97,120.87 280.57,121.64 C282.28878,122.420599 283.86144,123.489331 285.22,124.8 Z"/>
    <path fill="#D8DAE1" fill-rule="nonzero" d="M283.02,125.34 C283.54,125.24 284.02,124.84 284.55,125.01 C284.727909,125.075808 284.88144,125.194446 284.99,125.35 C285.369267,125.962725 285.369267,126.737275 284.99,127.35 C284.628589,127.940963 284.160671,128.459742 283.61,128.88 C283.51657,128.970803 283.403729,129.039191 283.28,129.08 C282.97,129.15 282.7,128.86 282.5,128.61 L280.68,126.15 C280.28,125.61 278.68,123.99 280.1,124.15 C281.19,124.26 281.8,125.57 283.02,125.34 Z"/>
    <path fill="#EC9C7D" fill-rule="nonzero" d="M280.52,125.57 C280.136208,124.873142 279.564527,124.297996 278.87,123.91 C278.209536,123.649521 277.496525,123.550111 276.79,123.62 C275.41,123.62 273.79,123.87 273.13,125.08 C272.713866,126.066031 272.826853,127.195897 273.43,128.08 C273.96,128.98 274.72,129.74 275.26,130.63 C276.03,131.91 276.4,133.51 277.57,134.44 C278.063171,134.820711 278.638455,135.080959 279.25,135.2 C281.25,135.67 283.93,134.71 283.45,132.29 C282.870786,129.896914 281.879312,127.622954 280.52,125.57 Z"/>
    <path fill="#863399" fill-rule="nonzero" d="M300.36 127.97C300.685795 127.869744 301.034205 127.869744 301.36 127.97 301.86 128.19 302.09 128.83 302.6 129.03 301.41 130.13 299.79 130.63 298.42 131.49 296.997265 132.48325 295.72431 133.675382 294.64 135.03 293.34 134.32 293.42 132.31 292.29 131.36 293.094383 131.147649 293.860395 130.810198 294.56 130.36 295.10603 130.095347 295.633861 129.794684 296.14 129.46 297.440788 128.703103 298.872345 128.197648 300.36 127.97zM289.25 128.73C288.840089 129.088095 288.471167 129.490556 288.15 129.93L286.87 131.56C286.733468 131.685245 286.660104 131.864988 286.67 132.05 286.749999 132.269978 286.982433 132.394803 287.21 132.34 287.421895 132.278241 287.629093 132.201378 287.83 132.11 288.304174 132.018339 288.788591 131.991427 289.27 132.03 289.863196 131.97008 290.443464 131.818266 290.99 131.58 291.051226 131.572543 291.106891 131.540808 291.144497 131.491921 291.182103 131.443033 291.198497 131.38109 291.19 131.32 291.19 131.32 291.19 131.32 291.19 131.32 291.155291 130.747839 291.24396 130.174902 291.45 129.64 291.59 129.24 291.86 128.78 291.59 128.37 291.07 127.54 289.76 128.31 289.25 128.73z"/>
    <path fill="#EC9C7D" fill-rule="nonzero" d="M132.69,152 L130.91,149.94 C130.91,149.94 111.91,152.94 109.16,154.03 C106.41,155.12 106.57,160.71 106.57,160.71 C114.01,162.77 132.69,152 132.69,152 Z"/>
    <path fill="#EC9C7D" fill-rule="nonzero" d="M129.28,152.56 C129.339389,152.790181 129.468651,152.996302 129.65,153.15 C129.851051,153.263227 130.071509,153.337844 130.3,153.37 C131.64,153.69 132.68,154.76 133.96,155.26 C135.7,155.94 137.66,155.53 139.47,155.09 C140.123014,155.155436 140.741133,154.783012 140.988453,154.175112 C141.235774,153.567213 141.053221,152.869039 140.54,152.46 C140.099818,151.566565 139.480271,150.773408 138.72,150.13 C137.13,148.93 134.91,149.19 132.95,149.5 C131.14,149.79 128.47,149.88 129.28,152.56 Z"/>
    <path fill="#FFF" fill-rule="nonzero" d="M235.6,107.89 C235.993536,110.373488 235.966492,112.905484 235.52,115.38 C235.298431,116.594624 235.011345,117.796378 234.66,118.98 C234.550103,119.302398 234.489421,119.639517 234.48,119.98 C234.48,120.33 234.7,120.61 234.48,120.98 C234.19,121.59 233.28,121.33 232.69,120.98 C230.273532,119.750425 227.561574,119.220502 224.86,119.45 C224.22,119.51 223.42,119.54 223.1,118.98 C222.971162,118.691591 222.929451,118.371807 222.98,118.06 C223.15,115.39 223.39,112.7 223.68,109.98 C224.073297,107.606077 224.648321,105.265863 225.4,102.98 C225.98,100.86 227.83,95.16 230.82,96.44 C233.28,97.56 235.21,105.58 235.6,107.89 Z"/>
    <rect width="210.34" height="3.64" x="100.81" y="157.07" fill="#863399" fill-rule="nonzero"/>
    <rect width="210.34" height="3.64" x="100.81" y="157.07" fill="url(#lunch_break-(2)-g)" fill-rule="nonzero"/>
    <path fill="#2F3554" fill-rule="nonzero" d="M223.44,114.63 C223.817641,111.999784 224.382407,109.399854 225.13,106.85 C226.33,102.75 228.36,98.41 232.3,96.79 C232.856158,96.6603958 233.346458,96.3335288 233.68,95.87 C234,95.22 233.58,94.46 233.18,93.87 C231.23,90.96 229.37,90.99 226.76,93.03 C224.32,94.94 222.27,96.84 221.1,99.79 C220.017755,102.743095 219.581278,105.893913 219.82,109.03 C219.975563,112.23619 220.543572,115.408976 221.51,118.47 C221.72,119.16 222.25,120 222.93,119.77 C223.02,118.05 223.19,116.33 223.44,114.63 Z"/>
    <path fill="#FFF" fill-rule="nonzero" d="M175.21,95.6 C175.540622,96.4374389 175.568912,97.3639494 175.29,98.22 C175.06,99.68 175.13,101.22 174.83,102.62 C174.626294,104.111287 173.713368,105.411741 172.38,106.11 C171.238125,106.450139 170.021875,106.450139 168.88,106.11 C168.469243,106.087103 168.087548,105.890803 167.83,105.57 C167.741996,105.378813 167.697592,105.170455 167.7,104.96 C167.697079,104.001508 167.572756,103.047246 167.33,102.12 C166.9,100.8 165.85,99.54 166.21,98.2 C166.61,96.7 168.96,95.26 170.39,94.87 C171.82,94.48 174.34,94.2 175.21,95.6 Z"/>
    <path fill="#863399" fill-rule="nonzero" d="M173.97 93.15C173.954373 93.0497122 173.916814 92.9541069 173.86 92.87 173.783715 92.762985 173.684677 92.6741923 173.57 92.61 173.15953 92.3480743 172.728053 92.1206287 172.28 91.93 172.079624 91.8277419 171.850622 91.7960339 171.63 91.84 171.477344 91.8925979 171.349264 91.999331 171.27 92.14 171.02345 92.6560903 170.987582 93.2479116 171.17 93.79L171.35 94.66C171.658203 94.5899752 171.974109 94.5597289 172.29 94.57 172.633743 94.5834415 172.972354 94.6579357 173.29 94.79 173.52 94.89 173.76 95.06 174.01 94.93 174.209615 94.8040637 174.318668 94.5742742 174.29 94.34 174.234151 93.9313839 174.126624 93.5315169 173.97 93.15zM169.81 92.46C169.587694 92.1959732 169.260152 92.0435748 168.915 92.0435748 168.569848 92.0435748 168.242306 92.1959732 168.02 92.46L166.45 93.58C166.027277 93.8149147 165.703991 94.1950424 165.54 94.65 165.490095 94.8874057 165.490095 95.1325943 165.54 95.37 165.731829 96.2312543 166.070074 97.0531892 166.54 97.8 166.4 97.58 167.77 96.52 167.94 96.4 168.507391 96.0281444 169.098672 95.6940871 169.71 95.4 170.104067 95.1600186 170.385945 94.7725672 170.492982 94.3237655 170.600018 93.8749638 170.523343 93.4019998 170.28 93.01 170.163111 92.7960977 170.003063 92.6088082 169.81 92.46z"/>
    <rect width="9.78" height="20.95" x="162.88" y="136.12" fill="#863399" fill-rule="nonzero" rx="2.36"/>
    <rect width="9.78" height="20.95" x="162.88" y="136.12" fill="url(#lunch_break-(2)-h)" fill-rule="nonzero" rx="2.36"/>
    <rect width="3.75" height="72.86" x="177.32" y="160.71" fill="#863399" fill-rule="nonzero"/>
    <rect width="3.75" height="72.86" x="234" y="160.71" fill="#863399" fill-rule="nonzero"/>
    <rect width="3.75" height="72.86" x="307.34" y="160.71" fill="#863399" fill-rule="nonzero"/>
    <rect width="3.75" height="72.86" x="102.2" y="160.71" fill="#863399" fill-rule="nonzero"/>
    <path fill="#863399" fill-rule="nonzero" d="M279.26,118.99 C279.974274,118.559379 280.811993,118.379868 281.64,118.48 C282.475417,118.586805 283.187338,119.13797 283.5,119.92 C283.689951,120.453599 283.689951,121.036401 283.5,121.57 C283.290975,122.095228 283.01177,122.589723 282.67,123.04 C283.159505,122.768289 283.610216,122.431937 284.01,122.04 C284.36,121.7 284.77,121.29 285.24,121.42 C285.437664,121.490096 285.613506,121.610771 285.75,121.77 C285.95,121.98 286.16,122.2 286.35,122.42 C286.501764,122.572728 286.617871,122.757132 286.69,122.96 C286.74952,123.400787 286.630741,123.847105 286.36,124.2 C286.159574,124.643994 285.803994,124.999574 285.36,125.2 C284.781549,125.270272 284.20284,125.071225 283.79,124.66 L281.71,123.12 C281.38949,122.871949 281.055658,122.641605 280.71,122.43 C280.3,122.21 279.87,122.01 279.44,121.83 C279.01,121.65 277.44,121.19 277.54,120.54 C277.64,119.89 278.76,119.26 279.26,118.99 Z"/>
    <polygon fill="#863399" fill-rule="nonzero" points="247.33 157.07 257.37 157.07 259.25 141.11 245.35 140.97"/>
    <rect width="16.94" height="3.1" x="243.62" y="139.4" fill="#FFF" fill-rule="nonzero"/>
    <polyline stroke="#2F3554" points="257.04 130.37 253.52 130.37 251.76 139.4"/>
    <polygon fill="#FFF" fill-rule="nonzero" points="184.12 157.07 217.91 157.07 220.58 153.95 181.73 153.95"/>
    <path fill="#FFF" fill-rule="nonzero" d="M207.63,150.55 C207.089617,149.751002 206.392095,149.070493 205.58,148.55 C204.74351,148.161463 203.832321,147.960114 202.91,147.96 C201.670149,147.806668 200.411938,147.993326 199.27,148.5 C197.995078,149.345629 196.994266,150.544518 196.39,151.95 C196.280147,152.113089 196.217825,152.30352 196.21,152.5 C196.21,152.98 196.77,153.23 197.21,153.35 C199.785373,154.028163 202.450593,154.301432 205.11,154.16 C205.86,154.16 208.87,154.37 209.31,153.63 C209.75,152.89 208.14,151.13 207.63,150.55 Z"/>
    <path fill="#FFF" fill-rule="nonzero" d="M197.49,150.55 C196.970651,149.75071 196.28929,149.069349 195.49,148.55 C194.65351,148.161463 193.742321,147.960114 192.82,147.96 C191.570689,147.792291 190.299274,147.965037 189.14,148.46 C187.865078,149.305629 186.864266,150.504518 186.26,151.91 C186.150147,152.073089 186.087825,152.26352 186.08,152.46 C186.08,152.94 186.64,153.19 187.08,153.31 C189.655373,153.988163 192.320593,154.261432 194.98,154.12 C195.73,154.12 198.74,154.33 199.18,153.59 C199.62,152.85 197.95,151.13 197.49,150.55 Z"/>
    <path fill="#FFF" fill-rule="nonzero" d="M202.69 146.04C202.149617 145.241002 201.452095 144.560493 200.64 144.04 199.797784 143.65917 198.884314 143.461479 197.96 143.46 196.720221 143.312152 195.463461 143.498595 194.32 144 193.050331 144.848814 192.053541 146.047045 191.45 147.45 191.34287 147.615149 191.277651 147.803941 191.26 148 191.26 148.48 191.83 148.73 192.26 148.85 194.83632 149.522941 197.500725 149.796127 200.16 149.66 200.91 149.66 203.91 149.86 204.36 149.13 204.81 148.4 203.14 146.62 202.69 146.04zM137.72 143.56C138.83 143.71 139.91 144.37 140.99 144.11 142.07 143.85 142.8 142.7 143.9 142.46 144.869985 142.322254 145.835415 142.73932 146.4 143.54 146.947843 144.32782 147.338331 145.214057 147.55 146.15 147.800534 146.76401 147.880017 147.43443 147.78 148.09 147.43 149.52 145.6 150.09 144.93 151.37 144.56 152.08 144.56 152.97 144.04 153.57 143.435084 154.098965 142.653297 154.380979 141.85 154.36 140.254917 154.590021 138.635083 154.590021 137.04 154.36 134.71 153.93 131.78 151.88 132.54 149.17 133.23 146.73 134.61 143.14 137.72 143.56z"/>
    <path fill="#863399" fill-rule="nonzero" d="M146.14,140.35 C146.156908,139.810811 146.032819,139.276543 145.78,138.8 C145.15,137.8 143.69,137.9 142.67,138.41 C141.533504,138.977076 140.628789,139.920666 140.11,141.08 C139.646225,140.481609 138.962026,140.093989 138.210346,140.003787 C137.458665,139.913585 136.702183,140.128324 136.11,140.6 C135.864561,140.794947 135.651876,141.027888 135.48,141.29 C135.157889,141.859918 134.941093,142.483207 134.84,143.13 C134.645678,143.652565 134.678301,144.232524 134.93,144.73 C135.298378,145.116621 135.806075,145.339864 136.34,145.35 C137.39,145.5 138.45,145.62 139.5,145.7 C141.199058,145.981659 142.943614,145.737421 144.5,145 C146.19,144.06 146.24,142 146.14,140.35 Z"/>
    <path fill="#2F3554" fill-rule="nonzero" d="M281.29,149.62 C282.035852,148.683809 283.041052,147.988169 284.18,147.62 C285.08798,147.480156 286.01202,147.480156 286.92,147.62 C291.79,148.06 296.6,146.54 301.45,145.9 C302.909934,145.575511 304.43626,145.744321 305.79,146.38 C306.503131,146.86993 307.148675,147.451592 307.71,148.11 C310.31,150.71 313.91,152.11 316.71,154.44 C316.971673,154.619729 317.168133,154.879337 317.27,155.18 C317.47,155.94 316.55,156.49 315.79,156.69 C309.24,158.43 302.31,155.94 295.57,156.59 C292.73,156.86 289.93,157.69 287.08,157.59 C285.357662,157.396555 283.648087,157.102722 281.96,156.71 C281.07,156.55 278.39,156.71 277.74,156.15 C276.32,154.84 280.23,150.75 281.29,149.62 Z"/>
    <path fill="#2F3554" fill-rule="nonzero" d="M309.01,158.46 C308.321165,160.976954 307.859317,163.550584 307.63,166.15 C307.52,168.3 307.74,170.97 309.26,172.64 C310.075134,173.498519 311.114359,174.111662 312.26,174.41 C312.772122,174.490163 313.266251,174.659386 313.72,174.91 C314.396065,175.392846 314.774334,176.190993 314.72,177.02 C314.642,177.832209 314.378566,178.615667 313.95,179.31 C313.817439,179.579085 313.626049,179.814905 313.39,180 C313.019763,180.218815 312.584289,180.300245 312.16,180.23 C309.986565,180.111117 307.940549,179.166802 306.44,177.59 C304.046688,175.322521 302.712112,172.15653 302.76,168.86 C302.87,166.03 304.11,163.39 305.1,160.74 C306.09,158.09 306.85,155.14 305.96,152.45 C305.88,152.21 305.8,151.89 305.96,151.72 C306.086337,151.634792 306.238266,151.595926 306.39,151.61 C310.33,151.63 309.66,155.72 309.01,158.46 Z"/>
  </g>
</svg>
