<svg xmlns="http://www.w3.org/2000/svg" width="340" height="242" viewBox="0 0 340 242">
  <g fill="none">
    <path fill="#863399" d="M4.7152101,201.339979 C4.7152101,201.339979 -37.1519807,60.4207285 128.624929,8.20367802 C271.813527,-36.8853699 369.074486,114.616635 332.121924,201.339979 C318.063032,234.325027 4.7152101,201.339979 4.7152101,201.339979 Z" opacity=".18"/>
    <path fill="#25233A" d="M251.000167,86.8499958 C251.018391,85.5384998 251.860331,84.2028658 253.03759,84.0137851 C253.151777,83.9892521 253.269762,83.9975646 253.380197,84.0379231 C253.467185,84.0836575 253.543312,84.151154 253.602528,84.2350498 C254.26223,85.0839015 253.999807,86.3913745 253.544211,87.389077 C253.124349,88.2298012 252.758959,89.1022916 252.450783,90 C251.514079,89.7183904 250.989233,87.8476983 251.000167,86.8499958 Z"/>
    <path fill="#93D500" d="M249.675203,105 L241.409119,123.575149 L226.488757,120.339451 L224,124.8254 C224,124.8254 240.27639,131.43802 242.087133,130.976964 C243.897876,130.515908 250,124.8254 250,124.8254 L249.675203,105 Z"/>
    <path fill="url(#navigation-(1)-a)" d="M249.675203,105 L241.409119,123.575149 L226.488757,120.339451 L224,124.8254 C224,124.8254 240.27639,131.43802 242.087133,130.976964 C243.897876,130.515908 250,124.8254 250,124.8254 L249.675203,105 Z"/>
    <path fill="#FF6B00" d="M69.4958478,87 C57.417708,87.0046167 46.1701093,93.1183103 39.6391025,103.228796 C33.1080957,113.339283 32.1893268,126.060035 37.2002308,136.996027 L39.3261444,140.941994 L66.3152818,191 L95.9867242,145.825904 L101.799769,136.996027 C106.810673,126.060035 105.891904,113.339283 99.3608975,103.228796 C92.8298907,93.1183103 81.582292,87.0046167 69.5041522,87 L69.4958478,87 Z M69.4958478,103.250774 C78.7047296,103.253057 86.1683588,110.683329 86.1668304,119.847251 C86.1653016,129.011173 78.699194,136.43898 69.4903119,136.43822 C60.2814299,136.437459 52.8165609,129.008419 52.8165609,119.844497 C52.8165609,115.442853 54.5739702,111.221548 57.7020627,108.109502 C60.8301552,104.997457 65.0726078,103.249679 69.4958478,103.250774 L69.4958478,103.250774 Z"/>
    <rect width="38" height="7" x="45" y="194" fill="#863399"/>
    <path fill="#863399" d="M332,200 C327.14403,207.721432 320.528966,214.165431 312.703855,218.797147 C278.389524,238.872334 221.098685,225.967449 175.504228,227.689484 C145.059841,228.843039 102.577001,255.349921 39.8748346,233.199994 C28.6730146,229.245539 6.16634108,206.016747 5,200.004149 L332,200 Z"/>
    <path fill="url(#navigation-(1)-b)" d="M332,200 C327.14403,207.721432 320.528966,214.165431 312.703855,218.797147 C278.389524,238.872334 221.098685,225.967449 175.504228,227.689484 C145.059841,228.843039 102.577001,255.349921 39.8748346,233.199994 C28.6730146,229.245539 6.16634108,206.016747 5,200.004149 L332,200 Z"/>
    <path fill="#1D2741" d="M220.097947,203.570086 L223.132086,206.649141 C221.997512,206.792638 220.980869,207.432527 220.348058,208.401449 C219.778132,209.390251 219.897038,210.81713 220.786778,211.522225 C221.676519,212.227321 223.017281,212.010368 224.157133,211.764211 C241.521431,207.963372 259.504856,209.298463 277.262772,209.048134 C280.854537,208.998068 284.643111,208.827009 287.693651,206.911987 C288.357882,206.494771 289.046713,205.864774 288.997511,205.067892 C288.931908,204.029023 287.689551,203.524192 286.668604,203.528364 C283.925578,203.528364 280.665928,205.247295 278.771641,203.232141 C278.123812,202.539562 277.820398,201.521554 277.033161,201.004206 C275.741602,200.169774 274.093326,201.112682 272.760765,201.884532 C266.302969,205.601928 258.369104,204.93021 250.988765,204.150016 C249.214726,204.019869 247.456396,203.722368 245.736424,203.261346 C243.842137,202.68976 242.083156,201.730162 240.213471,201.083477 C236.326492,199.744214 232.209903,199.886067 228.175318,200.249045 C227.215874,200.311627 219.286109,202.743998 220.097947,203.570086 Z" opacity=".18"/>
    <polygon fill="#25233A" points="249 145.587 256.499 172.566 272.108 194 277 190.725 266.154 169.713 267.973 148.517 252.596 142"/>
    <path fill="#3F3D56" d="M236,191.696018 L241.405212,195 C241.405212,195 246.941659,176.068184 250.77206,170.372945 C259.687789,157.128107 267,148.351905 267,148.351905 L254.184151,142.0826 L254.02421,142 L251.497949,147.781968 L241.28218,165.623471 L239.998545,171.360009 L236,191.696018 Z"/>
    <polygon fill="#FF6B00" points="279.639 171.195 281 182.39 258.674 185 254 184.441 255.988 164.285 257.146 163"/>
    <polygon fill="url(#navigation-(1)-c)" points="279.639 171.195 281 182.39 258.674 185 254 184.441 255.988 164.285 257.146 163"/>
    <polygon fill="url(#navigation-(1)-d)" points="259 185 257.659 167.205 256.497 165 255 184.408"/>
    <path fill="#863399" d="M271.725118,157 C271.725118,157 273.890995,158.026037 274,161 L272.364929,161 C272.364929,161 272.255924,158.824494 271,158.604629 L271.725118,157 Z"/>
    <path fill="#93D500" d="M248,149.004989 L251.770372,142.593153 L256.097921,150 C256.097921,150 263.299332,149.929812 267.685531,149.06279 L268.259465,148.943059 C269.964511,148.554963 271.104002,148.022364 270.982512,147.291588 C270.869401,146.626871 270.425335,144.595562 270.102758,141.883021 C269.727109,138.948626 269.652721,135.984374 269.880725,133.035266 C270.081812,130.706692 271.137516,128.34096 271.908348,126.198177 C272.300358,125.196039 272.581277,124.155068 272.746208,123.093411 C272.924712,121.411911 273.204493,119.742357 273.584069,118.093583 C273.930055,116.626333 274.061253,115.117844 273.973674,113.613969 C273.885698,110.249097 273.244735,106.595218 272.863509,105.843798 C272.482282,105.092379 269.042865,103.527611 266.956592,102.65646 C266.013999,102.243592 265.3479,102 265.3479,102 L256.969296,102 L249.74275,105.988302 C249.74275,105.988302 248.330955,114.658524 248.138247,116.483399 C247.945539,118.308275 250.270602,125.702735 250.467499,127.6845 C250.94089,132.626527 248,149.004989 248,149.004989 Z"/>
    <path fill="url(#navigation-(1)-e)" d="M263,130.382498 L267.343763,149 L268.627794,149 C270.281593,148.609452 271.386835,148.073487 271.268996,147.338094 C271.0577,146.050117 269.643641,139.576993 270.196262,132.995845 C270.501016,129.422747 272.662739,125.816411 273,122.987016 L267.770419,117 L263,130.382498 Z"/>
    <path fill="#FFF" d="M266,102 L256,118 C256,118 256.416667,106.132992 257.054167,104.086957 C257.691667,102.040921 266,102 266,102 Z"/>
    <path fill="url(#navigation-(1)-f)" d="M263.757519,95.5660946 C263.757519,95.5660946 265.092834,100.701803 266,101.053619 C264.928003,102.497319 263.305827,103.482995 261.481125,103.799404 C260.442546,103.989465 256.250081,104.357457 256.885946,103.099815 C257.240855,102.466092 257.455822,101.769693 257.517571,101.053619 L257.517571,99.0074237 C257.517571,99.0074237 254.126295,100.030522 253.765972,98.6030372 C253.405648,97.1755529 251.718489,94.6360056 252.04066,88.4933747 C252.362831,82.3507437 262.244162,83.9682897 263.60915,84.9590366 C264.974139,85.9497835 265.970326,91.8619142 263.757519,95.5660946 Z"/>
    <path fill="#93D500" d="M267.825475,148.077928 L267.514315,149.012168 L272.01577,150.748949 L272.667133,151 C272.667133,151 280.549866,135.241389 280.964747,133.253556 C281.379628,131.265724 278.097921,113.498703 272.949252,105 C272.482631,105.247994 272.031024,105.522836 271.596741,105.823119 C269.79201,107.057797 266.738488,109.597119 266,113.231189 L272.003324,125.285765 L274.056983,129.40136 L270.215188,140.904447 L267.825475,148.077928 Z"/>
    <path fill="url(#navigation-(1)-g)" d="M268.399021,150 C268.399021,150 265.324044,153.16129 265.099706,153.870968 C264.875368,154.580645 265.099706,156.391398 265.099706,156.391398 L265.67989,156.391398 L265.811399,158.369892 C265.811399,158.369892 266.078283,159.754839 266.701015,159.703226 C267.2762,159.719795 267.846999,159.819558 268.399021,160 C268.399021,160 270.572779,159.802151 271.149095,159.16129 C271.725412,158.52043 272.038711,155.501075 271.996165,154.662366 C271.953618,153.823656 271.996165,151.346237 271.996165,151.346237 L268.399021,150 Z"/>
    <path fill="#863399" d="M265.284318,156.00041 C265.284318,156.00041 264.133534,155.908109 263.507313,158.492548 C262.881091,161.076986 263.011215,162 263.011215,162 L264.694694,162 C264.694694,162 265.101331,157.842425 266,157.413023 L265.894274,156.00041 L265.284318,156.00041 Z"/>
    <path fill="url(#navigation-(1)-h)" d="M271.725118,157 C271.725118,157 273.890995,158.026037 274,161 L272.364929,161 C272.364929,161 272.255924,158.824494 271,158.604629 L271.725118,157 Z"/>
    <path fill="url(#navigation-(1)-i)" d="M265.284318,156.00041 C265.284318,156.00041 264.133534,155.908109 263.507313,158.492548 C262.881091,161.076986 263.011215,162 263.011215,162 L264.694694,162 C264.694694,162 265.101331,157.842425 266,157.413023 L265.894274,156.00041 L265.284318,156.00041 Z"/>
    <path fill="#FF6B00" d="M256.018813,164.29795 L257.017272,171.450868 C257.151044,172.402775 258.028073,173.082381 259.006004,172.991928 L279.335275,171.11864 C279.911844,171.068787 280.429843,170.753774 280.730661,170.270056 C280.954779,169.910618 281.043098,169.48574 280.980276,169.06923 L280.018646,162.536739 C279.883849,161.611911 279.044373,160.944175 278.091293,161.003685 L257.721103,162.252544 C257.386186,162.271473 257.063209,162.38094 256.788117,162.568761 C256.217529,162.956079 255.919689,163.625543 256.018813,164.29795 L256.018813,164.29795 Z"/>
    <path fill="url(#navigation-(1)-j)" d="M256.018813,164.29795 L257.017272,171.450868 C257.151044,172.402775 258.028073,173.082381 259.006004,172.991928 L279.335275,171.11864 C279.911844,171.068787 280.429843,170.753774 280.730661,170.270056 C280.954779,169.910618 281.043098,169.48574 280.980276,169.06923 L280.018646,162.536739 C279.883849,161.611911 279.044373,160.944175 278.091293,161.003685 L257.721103,162.252544 C257.386186,162.271473 257.063209,162.38094 256.788117,162.568761 C256.217529,162.956079 255.919689,163.625543 256.018813,164.29795 L256.018813,164.29795 Z"/>
    <path fill="#25233A" d="M239.653612 197.663934L241 194.512295 236.715269 192 234.903149 196.098361C234.903149 196.098361 228.890976 196.286885 226.164329 198.831967L225 201 239.602805 201 239.653612 197.663934zM278.01245 194.694949L275.798499 192 272.434834 194.064646 273.853814 196.892929 271.674056 200.840404C271.674056 200.840404 270.062745 200.779798 268.280472 202.20202 266.498199 203.624242 267.096564 204 267.096564 204L275.935269 204 281 196.892929C281 196.892929 279.174987 194.8 278.01245 194.694949z"/>
    <path fill="#93D500" d="M264.536,100 C264.536,100 266.864,100 267,101.428322 L266.264,106.726399 L263.464,107.922203 L264.016,110.882649 L255,119 L265.4,101.428322 C265.04168,101.002149 264.750122,100.520159 264.536,100 Z"/>
    <path fill="#93D500" d="M255.662886,102.284188 L256.988799,101 C257.027849,101.64881 256.964605,102.300287 256.801999,102.924217 C256.541945,103.704639 255.303937,115.625698 255.516376,118 L254,109.497935 L255.303937,106.98324 L254.798478,105.178771 L255.662886,102.284188 Z"/>
    <path fill="url(#navigation-(1)-k)" d="M264.536,100 C264.536,100 266.864,100 267,101.428322 L266.264,106.726399 L263.464,107.922203 L264.016,110.882649 L255,119 L265.4,101.428322 C265.04168,101.002149 264.750122,100.520159 264.536,100 Z"/>
    <path fill="url(#navigation-(1)-l)" d="M255.662886,102.284188 L256.988799,101 C257.027849,101.64881 256.964605,102.300287 256.801999,102.924217 C256.541945,103.704639 255.303937,115.625698 255.516376,118 L254,109.497935 L255.303937,106.98324 L254.798478,105.178771 L255.662886,102.284188 Z"/>
    <polygon fill="#3F3D56" points="259.349 105.016 260 106.755 258.746 108.098 259.046 113.016 256 118 256.222 113.053 258.002 107.91 257.642 106.408 258.419 105"/>
    <path fill="url(#navigation-(1)-m)" d="M222.242068,115 C221.923928,115.556117 222.505789,116.163507 222.899279,116.672295 C223.276227,117.15411 223.515501,117.719076 223.594164,118.313038 C222.191505,118.043134 220.850749,117.541036 219.634155,116.830059 C219.035549,116.482979 218.311361,116.068849 217.687639,116.372544 C217.243922,116.6524 216.984487,117.127863 217.001126,117.63071 C216.971732,118.959065 217.519061,120.241172 218.516478,121.180393 C219.509668,122.101245 220.661932,122.856139 221.923928,123.41275 C222.903465,123.886041 224.146723,124.308059 225.034167,123.69278 C225.398033,123.401433 225.684706,123.034093 225.871378,122.619987 C226.289984,121.87061 227.081149,120.939804 226.993242,120.08788 C226.848277,119.29718 226.524176,118.545197 226.043007,117.883132 C225.377424,116.881332 223.652769,115 222.242068,115 Z"/>
    <path fill="#863399" d="M214.110487,111.884036 L220.053709,121.555979 C220.313896,121.97457 220.858244,122.121479 221.297541,121.891665 L222.498921,121.270647 C222.722868,121.152555 222.889457,120.950518 222.961293,120.709888 C223.03313,120.469257 223.004195,120.210192 222.880985,119.990845 L217.604253,110.646195 C217.413146,110.302644 217.023344,110.115885 216.632112,110.180431 L215.736383,110 C214.3185,110.444784 213.736913,111.317566 214.110487,111.884036 Z"/>
    <path fill="url(#navigation-(1)-n)" d="M214.110487,111.884036 L220.053709,121.555979 C220.313896,121.97457 220.858244,122.121479 221.297541,121.891665 L222.498921,121.270647 C222.722868,121.152555 222.889457,120.950518 222.961293,120.709888 C223.03313,120.469257 223.004195,120.210192 222.880985,119.990845 L217.604253,110.646195 C217.413146,110.302644 217.023344,110.115885 216.632112,110.180431 L215.736383,110 C214.3185,110.444784 213.736913,111.317566 214.110487,111.884036 Z"/>
    <path fill="#FFF" d="M215.138726,111.74551 L221.071806,121.54425 C221.329108,121.973208 221.873111,122.124632 222.311554,121.889336 L223.5007,121.254548 C223.724014,121.135511 223.890265,120.930385 223.961724,120.685721 C224.033183,120.441057 224.003789,120.177603 223.880214,119.95515 L218.626044,110.484455 C218.433518,110.138523 218.048443,109.949946 217.66039,110.01156 L215.775467,110.318303 C215.46971,110.37212 215.210231,110.57554 215.082694,110.861405 C214.955156,111.14727 214.976143,111.478414 215.138726,111.74551 Z"/>
    <polygon fill="#863399" points="216 111.8 218.612 111 223 119.135 220.757 120"/>
    <path fill="#863399" d="M65.6535258 207C64.2830514 205.772314 63.0568153 204.382614 62 202.859438L66.1626874 200C66.9931369 201.160541 67.9446314 202.223158 69 203.168675L65.6535258 207zM100.424608 218C98.3139369 218 96.2238782 217.914052 94.2080228 217.742156L94.6656096 212.499318C97.8741001 212.76457 101.097136 212.811064 104.312034 212.638472L104.584113 217.893588C103.182496 217.967258 101.780878 218 100.424608 218zM114.787062 216.809004L114.032662 211.603001C116.918345 211.193724 120.142064 210.71487 123.926431 210.150068L124.709688 215.356071C120.867607 215.929059 117.709846 216.391542 114.787062 216.809004L114.787062 216.809004zM83.8937688 215.99045C80.4743011 215.112243 77.1579437 213.877549 74 212.306958L76.3992389 207.616644C79.2199256 209.024759 82.1824961 210.133224 85.2376724 210.923602L83.8937688 215.99045zM134.644681 213.866303L133.849057 208.664393 134.842556 208.51296 143.763437 207.174625 144.550817 212.376535 135.63818 213.71487 134.644681 213.866303zM154.465197 210.907231L153.694308 205.701228C157.284922 205.177353 160.537498 204.71487 163.637546 204.281037L164.371333 209.491132C161.287775 209.920873 158.043444 210.383356 154.465197 210.907231L154.465197 210.907231zM174.281592 208.160982L173.601395 202.942701C177.134295 202.488404 180.494054 202.079127 183.594102 201.71487L184.195973 206.941337C181.124782 207.301501 177.785635 207.706685 174.281592 208.160982L174.281592 208.160982zM194.106231 205.946794L193.636277 200.703956C197.34644 200.376535 200.751546 200.139154 203.752656 200L204 205.259209C201.068971 205.390177 197.742191 205.623465 194.106231 205.946794L194.106231 205.946794zM219.008734 206C217.351316 205.731068 215.678572 205.562418 214 205.495007L214.279476 200C216.196852 200.079337 218.107362 200.275148 220 200.586305L219.008734 206z"/>
    <path fill="#3F3D56" d="M252.003176,85.6841627 C252.059493,84.7725463 252.424917,83.9091405 253.037001,83.2414929 C254.802774,81.203127 257.78846,80.8367265 260.447458,81.0557245 C263.106456,81.2747225 265.7944,81.9401394 268.41618,81.422125 C268.879334,81.3336835 269.495493,81.278934 269.685717,81.71693 C269.966918,82.3655009 268.933093,82.7276899 268.519563,83.2962423 L270,83.4647023 C269.86273,84.1093076 269.490266,84.6767918 268.957904,85.0524377 L269.631958,85.3598772 L268.449263,87.465627 L269.04061,87.9246805 C267.630473,88.3458305 266.815819,89.8198554 266.274095,91.2096503 C265.732371,92.5994452 265.244405,94.1282196 264.06171,95 C263.939654,94.248603 263.665008,93.5314057 263.255326,92.8942502 C263.859773,92.6436303 264.220178,92.0072559 264.130514,91.3489124 C264.040851,90.6905688 263.523981,90.1781192 262.875376,90.1045069 C262.22677,90.0308945 261.611808,90.4148891 261.382036,91.0369788 C260.517758,89.5292619 259.314386,88.14789 257.763648,87.4277235 C256.580881,86.8869379 255.243587,86.8104415 254.008796,87.2129371 C252.681365,87.667779 251.945282,87.4866845 252.003176,85.6841627 Z"/>
  </g>
</svg>
