<svg xmlns="http://www.w3.org/2000/svg" width="196" height="196" viewBox="0 0 196 196">
  <path fill="#93D500" d="M81.327,95.173 C82.234,96.086 83.312,96.812 84.5,97.307 C85.689,97.802 86.963,98.057 88.25,98.057 C89.537,98.057 90.811,97.802 92,97.307 C93.188,96.812 94.266,96.086 95.173,95.173 L134.173,56.1725 C135.082,55.2634 135.803,54.1842 136.295,52.9964 C136.787,51.8087 137.04,50.5356 137.04,49.25 C137.04,47.9644 136.787,46.6913 136.295,45.5036 C135.803,44.3158 135.082,43.2366 134.173,42.3275 C133.263,41.4184 132.184,40.6973 130.996,40.2053 C129.809,39.7133 128.536,39.4601 127.25,39.4601 C125.964,39.4601 124.691,39.7133 123.504,40.2053 C122.316,40.6973 121.237,41.4184 120.327,42.3275 L88.25,74.5025 L75.6725,61.8275 C73.8365,59.9915 71.3464,58.9601 68.75,58.9601 C66.1536,58.9601 63.6635,59.9915 61.8275,61.8275 C59.9915,63.6635 58.9601,66.1536 58.9601,68.75 C58.9601,71.3464 59.9915,73.8365 61.8275,75.6725 L81.327,95.173 Z M185.75,117.5 L176,117.5 L176,20 L185.75,20 C188.336,20 190.816,18.9728 192.644,17.1443 C194.473,15.3158 195.5,12.8359 195.5,10.25 C195.5,7.6641 194.473,5.1842 192.644,3.3557 C190.816,1.5272 188.336,0.5 185.75,0.5 L10.25,0.5 C7.6641,0.5 5.1842,1.5272 3.3557,3.3557 C1.5272,5.1842 0.5,7.6641 0.5,10.25 C0.5,12.8359 1.5272,15.3158 3.3557,17.1443 C5.1842,18.9728 7.6641,20 10.25,20 L20,20 L20,117.5 L10.25,117.5 C7.6641,117.5 5.1842,118.527 3.3557,120.356 C1.5272,122.184 0.5,124.664 0.5,127.25 C0.5,129.836 1.5272,132.316 3.3557,134.144 C5.1842,135.973 7.6641,137 10.25,137 L88.25,137 L88.25,148.212 L43.8875,177.462 C42.0675,178.589 40.6688,180.283 39.9072,182.284 C39.1457,184.284 39.0635,186.479 39.6735,188.531 C40.2835,190.583 41.5516,192.377 43.2824,193.636 C45.0131,194.896 47.1101,195.551 49.25,195.5 C51.1669,195.522 53.0423,194.942 54.6125,193.842 L88.25,171.612 L88.25,185.75 C88.25,188.336 89.277,190.816 91.106,192.644 C92.934,194.473 95.414,195.5 98,195.5 C100.586,195.5 103.066,194.473 104.894,192.644 C106.723,190.816 107.75,188.336 107.75,185.75 L107.75,171.612 L141.388,193.842 C142.958,194.942 144.833,195.522 146.75,195.5 C148.833,195.484 150.856,194.801 152.523,193.552 C154.19,192.302 155.413,190.552 156.012,188.557 C156.612,186.562 156.557,184.427 155.855,182.466 C155.153,180.504 153.842,178.819 152.112,177.658 L107.75,148.408 L107.75,137 L185.75,137 C188.336,137 190.816,135.973 192.644,134.144 C194.473,132.316 195.5,129.836 195.5,127.25 C195.5,124.664 194.473,122.184 192.644,120.356 C190.816,118.527 188.336,117.5 185.75,117.5 Z M156.5,117.5 L39.5,117.5 L39.5,20 L156.5,20 L156.5,117.5 Z"/>
</svg>
