<svg xmlns="http://www.w3.org/2000/svg" width="218" height="167" viewBox="0 0 218 167">
  <defs>
    <linearGradient id="progress2-a" x1="62.775%" x2="25.455%" y1="34.538%" y2="81.102%">
      <stop offset="1%"/>
      <stop offset="13%" stop-opacity=".69"/>
      <stop offset="25%" stop-opacity=".32"/>
      <stop offset="100%" stop-opacity="0"/>
    </linearGradient>
    <linearGradient id="progress2-b" x1="125.796%" x2="-67.204%" y1="35.184%" y2="72.205%">
      <stop offset="1%"/>
      <stop offset="13%" stop-opacity=".69"/>
      <stop offset="25%" stop-opacity=".32"/>
      <stop offset="100%" stop-opacity="0"/>
    </linearGradient>
    <linearGradient id="progress2-c" x1="2.76%" x2="89.012%" y1="49.993%" y2="49.993%">
      <stop offset="0%" stop-color="#93D500"/>
      <stop offset="44%" stop-color="#84C000"/>
      <stop offset="100%" stop-color="#76AA00"/>
    </linearGradient>
    <linearGradient id="progress2-d" x1="82.557%" x2="9.333%" y1="157.081%" y2="-100.302%">
      <stop offset="1%"/>
      <stop offset="8%" stop-opacity=".69"/>
      <stop offset="21%" stop-opacity=".32"/>
      <stop offset="100%" stop-opacity="0"/>
    </linearGradient>
    <linearGradient id="progress2-e" x1="290.507%" x2="279.746%" y1="107.68%" y2="181.79%">
      <stop offset="1%"/>
      <stop offset="8%" stop-opacity=".69"/>
      <stop offset="21%" stop-opacity=".32"/>
      <stop offset="100%" stop-opacity="0"/>
    </linearGradient>
    <linearGradient id="progress2-f" x1="67.985%" x2="-15.604%" y1="-17.975%" y2="191.98%">
      <stop offset="1%"/>
      <stop offset="8%" stop-opacity=".69"/>
      <stop offset="21%" stop-opacity=".32"/>
      <stop offset="100%" stop-opacity="0"/>
    </linearGradient>
    <linearGradient id="progress2-g" x1="337.826%" x2="346.975%" y1="154.37%" y2="170.753%">
      <stop offset="1%"/>
      <stop offset="8%" stop-opacity=".69"/>
      <stop offset="21%" stop-opacity=".32"/>
      <stop offset="100%" stop-opacity="0"/>
    </linearGradient>
    <linearGradient id="progress2-h" x1="97.486%" x2="-11.665%" y1="13.778%" y2="107.443%">
      <stop offset="1%"/>
      <stop offset="8%" stop-opacity=".69"/>
      <stop offset="21%" stop-opacity=".32"/>
      <stop offset="100%" stop-opacity="0"/>
    </linearGradient>
    <linearGradient id="progress2-i" x1="45.438%" x2="54.071%" y1="31.699%" y2="89.752%">
      <stop offset="1%"/>
      <stop offset="8%" stop-opacity=".69"/>
      <stop offset="21%" stop-opacity=".32"/>
      <stop offset="100%" stop-opacity="0"/>
    </linearGradient>
    <linearGradient id="progress2-j" x1="117.419%" x2="-93.454%" y1="15.307%" y2="119.715%">
      <stop offset="1%"/>
      <stop offset="8%" stop-opacity=".69"/>
      <stop offset="21%" stop-opacity=".32"/>
      <stop offset="100%" stop-opacity="0"/>
    </linearGradient>
    <linearGradient id="progress2-k" x1="86.941%" x2="-6.091%" y1="59.455%" y2="36.812%">
      <stop offset="1%"/>
      <stop offset="8%" stop-opacity=".69"/>
      <stop offset="21%" stop-opacity=".32"/>
      <stop offset="100%" stop-opacity="0"/>
    </linearGradient>
    <linearGradient id="progress2-l" x1="-107.802%" x2="276.278%" y1="69.471%" y2="12.727%">
      <stop offset="1%"/>
      <stop offset="8%" stop-opacity=".69"/>
      <stop offset="21%" stop-opacity=".32"/>
      <stop offset="100%" stop-opacity="0"/>
    </linearGradient>
    <linearGradient id="progress2-m" x1="118.201%" x2="-163.576%" y1="68.389%" y2="-8.026%">
      <stop offset="1%"/>
      <stop offset="8%" stop-opacity=".69"/>
      <stop offset="21%" stop-opacity=".32"/>
      <stop offset="100%" stop-opacity="0"/>
    </linearGradient>
    <linearGradient id="progress2-n" x1="42.219%" x2="65.538%" y1="44.104%" y2="61.88%">
      <stop offset="1%"/>
      <stop offset="8%" stop-opacity=".69"/>
      <stop offset="21%" stop-opacity=".32"/>
      <stop offset="100%" stop-opacity="0"/>
    </linearGradient>
    <linearGradient id="progress2-o" x1="43.602%" x2="73.259%" y1="53.95%" y2="37.711%">
      <stop offset="1%"/>
      <stop offset="8%" stop-opacity=".69"/>
      <stop offset="21%" stop-opacity=".32"/>
      <stop offset="100%" stop-opacity="0"/>
    </linearGradient>
    <linearGradient id="progress2-p" x1="-3.002%" x2="153.001%" y1="84.601%" y2="-21.349%">
      <stop offset="1%"/>
      <stop offset="8%" stop-opacity=".69"/>
      <stop offset="21%" stop-opacity=".32"/>
      <stop offset="100%" stop-opacity="0"/>
    </linearGradient>
    <linearGradient id="progress2-q" x1="8.996%" x2="121.846%" y1="57.671%" y2="32.518%">
      <stop offset="1%"/>
      <stop offset="8%" stop-opacity=".69"/>
      <stop offset="21%" stop-opacity=".32"/>
      <stop offset="100%" stop-opacity="0"/>
    </linearGradient>
    <linearGradient id="progress2-r" x1="82.802%" x2="-38.341%" y1="57.483%" y2="30.606%">
      <stop offset="0%"/>
      <stop offset="8%" stop-opacity=".69"/>
      <stop offset="21%" stop-opacity=".32"/>
      <stop offset="100%" stop-opacity="0"/>
    </linearGradient>
  </defs>
  <g fill="none">
    <path fill="#863399" d="M71.45,0.3 C59.6827914,1.30838142 48.8958147,7.26157139 41.77,16.68 C34.84,25.98 32.17,37.68 30.05,49.09 C29.5717453,52.4669691 28.6887269,55.774091 27.42,58.94 C24.87,64.55 19.98,68.67 15.85,73.24 C5.33,84.91 -0.08,100.69 0.05,116.32 C0.12,130.11 4.64,150.82 18.19,157.39 C38.1455328,166.984065 60.7849399,169.45446 82.34,164.39 C95.93,161.15 109.1,154.91 123.07,155.24 C137.04,155.57 150.19,162.47 164.15,163.15 C180.202646,163.763842 195.474994,156.210465 204.73,143.08 C208.647972,137.117823 211.563209,130.554318 213.36,123.65 C215.718429,115.333965 217.081299,106.767356 217.42,98.13 C218.44,70.64 199.98,44 177.05,30.26 C125.85,-0.37 85.63,-0.82 71.45,0.3 Z" opacity=".18"/>
    <path fill="#863399" d="M49.38,132.63 C50.4291589,133.813044 51.7456731,134.728433 53.22,135.3 C59.7,138.3 66.48,141.08 73.61,141.7 C84.1,142.61 94.38,138.93 104.26,135.31 C103.26,135.47 99.67,132.31 98.75,131.67 C96.94,130.48 95.16,129.24 93.38,128.02 C90.55,126.09 87.02,125.44 83.66,124.92 C76.0765905,123.771309 68.3290103,124.432646 61.05,126.85 C56.9045419,128.210959 52.9748254,130.157297 49.38,132.63 Z"/>
    <path fill="url(#progress2-a)" d="M49.38,132.63 C50.4291589,133.813044 51.7456731,134.728433 53.22,135.3 C59.7,138.3 66.48,141.08 73.61,141.7 C84.1,142.61 94.38,138.93 104.26,135.31 C103.26,135.47 99.67,132.31 98.75,131.67 C96.94,130.48 95.16,129.24 93.38,128.02 C90.55,126.09 87.02,125.44 83.66,124.92 C76.0765905,123.771309 68.3290103,124.432646 61.05,126.85 C56.9045419,128.210959 52.9748254,130.157297 49.38,132.63 Z"/>
    <path fill="#863399" d="M83.86,112.52 C79.86,108.27 75.75,103.96 70.74,100.92 C65.73,97.88 59.61,96.22 53.95,97.72 L67.95,118.34 C70.65,122.34 73.4,126.34 77.18,129.34 C83.8,134.52 96.1,137.4 104.23,134.91 C102.97,131.06 97.95,127.44 95.16,124.49 L83.86,112.52 Z"/>
    <path fill="url(#progress2-b)" d="M83.86,112.52 C79.86,108.27 75.75,103.96 70.74,100.92 C65.73,97.88 59.61,96.22 53.95,97.72 L67.95,118.34 C70.65,122.34 73.4,126.34 77.18,129.34 C83.8,134.52 96.1,137.4 104.23,134.91 C102.97,131.06 97.95,127.44 95.16,124.49 L83.86,112.52 Z"/>
    <path fill="#863399" d="M41.05 145.47C46.28 145.47 51.72 146.08 56.18 148.81 56.5855794 149.003448 56.9109476 149.332353 57.1 149.74 57.45 150.74 56.22 151.53 55.2 151.86 48.9435343 153.726179 42.4247899 154.560443 35.9 154.33 31.5493922 154.229353 27.2085142 153.872065 22.9 153.26 21.3887794 153.176635 19.9172193 152.745433 18.6 152 17.2748345 151.196346 16.6264996 149.624134 17 148.12 17.53 146.64 19.26 145.95 20.83 145.87 27.48 145.45 34.33 145.5 41.05 145.47zM177.79 141.45L188.38 142.92C188.889048 142.943311 189.38121 143.109676 189.8 143.4 190.369583 144.00607 190.467578 144.916612 190.04 145.63 189.599938 146.311925 189.012089 146.886103 188.32 147.31 190.83 147.91 195.2 147.78 195.08 151.36 195.009259 152.707839 194.174055 153.896548 192.93 154.42 192.170633 154.678814 191.372139 154.804001 190.57 154.79 182.74 155.06 174.79 155.33 167.21 153.36 165.76 152.99 164.05 152.17 164.05 150.68 164.05 150.15 164.28 149.68 164.31 149.12 164.48 145.73 157.24 147.72 155.38 147.83 151.24 148.07 147.1 148.23 142.96 148.34 134.5 148.57 126.04 148.56 117.59 148.44 114.918819 148.314178 112.241744 148.424607 109.59 148.77 107.51 149.12 105.49 149.77 103.45 150.28 96.7274676 151.989952 89.732639 152.35023 82.87 151.34 79.76 150.88 75.94 149.21 76.14 146.07 76.31 143.38 79.37 141.98 81.98 141.28 85.8384014 140.260317 89.7604067 139.498633 93.72 139 100.72571 138.224643 107.771924 137.874002 114.82 137.95 130.13 137.83 145.44 137.82 160.76 137.81 165.91 137.77 172.69 140.74 177.79 141.45z" opacity=".44"/>
    <polygon fill="#863399" points="36.99 116.58 36.35 147.84 32.11 147.84 30.89 122.99 28.23 147.84 23.37 148.65 22.25 115.55"/>
    <polygon fill="url(#progress2-c)" points="36.99 116.58 36.35 147.84 32.11 147.84 30.89 122.99 28.23 147.84 23.37 148.65 22.25 115.55"/>
    <path fill="#93D500" d="M50.79,88 C48.8647231,91.5510783 46.7551796,94.9991139 44.47,98.33 C43.6054889,99.3176216 42.3624208,99.8919045 41.05,99.91 C40.517966,99.9044553 39.989393,99.8236544 39.48,99.67 C37.97,99.3 36.48,98.86 34.98,98.37 C34.8542526,98.3222581 34.733642,98.2619528 34.62,98.19 L34.62,98.19 C33.62,97.46 33.4,95.45 33.18,94.29 C33.06,93.65 32.47,91.11 33.56,90.92 C34.11,90.82 35.91,92.42 36.42,92.73 C37.4886822,93.3766156 38.5901597,93.967408 39.72,94.5 C39.8547798,94.5837428 40.0114186,94.6255131 40.17,94.62 C40.3406314,94.5717481 40.4913247,94.4701178 40.6,94.33 C42.8885832,91.6435193 44.8088289,88.6639437 46.31,85.47 C46.75,85.66 47.18,85.87 47.61,86.09 C48.21,86.4033333 48.8,86.7366667 49.38,87.09 L49.56,87.19 C50.05,87.43 50.4,87.68 50.79,88 Z"/>
    <path fill="url(#progress2-d)" d="M50.79,88 C48.8647231,91.5510783 46.7551796,94.9991139 44.47,98.33 C43.6054889,99.3176216 42.3624208,99.8919045 41.05,99.91 C40.517966,99.9044553 39.989393,99.8236544 39.48,99.67 C37.97,99.3 36.48,98.86 34.98,98.37 C34.8519842,98.3201452 34.7282417,98.2599461 34.61,98.19 C34.53,98.19 34.32,97.41 34.29,97.31 C34.18862,96.9828372 34.1117408,96.6485798 34.06,96.31 C33.9696181,95.6463967 33.9696181,94.9736033 34.06,94.31 C34.06,94.08 34.12,93.91 34.33,94.09 C34.54,94.27 34.46,94.28 34.55,94.36 C34.64,94.44 34.86,94.58 35.01,94.69 C35.43,94.99 35.85,95.29 36.3,95.57 C37.1620699,96.0849994 38.0861546,96.4882363 39.05,96.77 C39.6920728,96.9933248 40.3709398,97.0917605 41.05,97.06 C42.0880248,96.9281542 42.9823545,96.2649859 43.41,95.31 C43.76,94.77 44.1,94.21 44.41,93.65 C44.7280725,93.0879781 45.0962333,92.5558184 45.51,92.06 C46.39,91 47.26,89.94 48.14,88.89 C48.5867521,88.2812923 49.081677,87.7094534 49.62,87.18 C50.05,87.43 50.4,87.68 50.79,88 Z"/>
    <polygon fill="url(#progress2-e)" points="26.27 147.35 26.27 118.37 22.25 115.55 23.61 147.84"/>
    <path fill="#93D500" d="M25.39,88.92 C24.2577462,89.4846151 23.1562023,90.1088233 22.09,90.79 C19.82,92.24 20.23,92.91 20.65,95.42 C21.5327386,100.778257 21.9775428,106.199517 21.98,111.63 C21.8894517,112.942866 21.9803068,114.261947 22.25,115.55 C22.6168231,116.296049 22.8985933,117.080981 23.09,117.89 C26.59,118.37 34.59,120.17 36.98,116.58 C39.37,112.99 35.15,100.92 35.92,95.5 C36.69,90.08 29.65,89.5 29.65,89.5 L25.39,88.92 Z"/>
    <path fill="#473F47" d="M32.54,108.92 L33.35,104.38 C33.4755533,103.828364 33.9458859,103.422905 34.51,103.38 L43.23,102.7 C43.4920027,102.684922 43.7468122,102.788918 43.9234425,102.983017 C44.1000728,103.177117 44.1796481,103.440576 44.14,103.7 L40.78,118.83 C40.6878399,119.220213 40.3409364,119.49691 39.94,119.500001 L31.94,119.500001 C31.6871888,119.500433 31.4469931,119.389606 31.2832601,119.196979 C31.1195271,119.004352 31.0488443,118.749439 31.09,118.5 L32.54,108.92 Z"/>
    <path fill="url(#progress2-f)" d="M30.21,114 L23.87,118.28 L22.87,116.95 C22.2586824,114.74673 21.9723289,112.466009 22.02,110.18 C22.17,106.77 22.02,107.99 22.02,107.99 L30.94,113.63 L30.21,114 Z"/>
    <path fill="#FFBBAB" d="M33.36,83.63 C33.3702274,83.9910443 33.3501571,84.3523104 33.3,84.71 C33.1349274,85.4585804 32.8405129,86.1726201 32.43,86.82 C32.3263574,87.0452201 32.1724052,87.2436475 31.98,87.4 C31.5733662,87.6024796 31.1047058,87.6418328 30.67,87.51 C30.568179,87.4849983 30.461821,87.4849983 30.36,87.51 C30.11,87.61 30.08,87.95 30.09,88.22 L30.16,89.46 C30.1904638,89.6309195 30.162272,89.8071182 30.08,89.96 C29.9888072,90.0559074 29.8755037,90.1280096 29.75,90.17 C28.8126839,90.4797091 27.7809377,90.2448713 27.07,89.56 C26.8968675,89.4006468 26.7545019,89.2108261 26.65,89 C26.570599,88.7911855 26.5201313,88.5724921 26.5,88.35 C26.35,87.16 26.5,85.96 26.39,84.76 C26.2278008,83.7683478 26.1975381,82.7595921 26.3,81.76 C26.4962969,80.6835824 27.2164193,79.775928 28.22,79.34 C29.2459951,79.0181709 30.3493661,79.0427683 31.36,79.41 C31.8548886,79.5477285 32.342223,79.711286 32.82,79.9 C33.0548623,79.9658019 33.2575783,80.1151716 33.39,80.32 C33.58,80.7 33.39,81.25 33.39,81.66 C33.35,82.34 33.36,83 33.36,83.63 Z"/>
    <path fill="#963637" d="M33.37 78.74C33.48 78.98 33.64 79.19 33.76 79.43 33.9031825 79.6557709 33.9500002 79.9294742 33.89 80.19 33.8157904 80.3934261 33.6837007 80.5707044 33.51 80.7 32.6367986 81.311605 31.568286 81.5787332 30.51 81.45 30.2071818 81.4249998 29.9028182 81.4249998 29.6 81.45 29.2950207 81.4792471 29.0108946 81.6177586 28.8 81.84 28.5616707 82.2513844 28.4277669 82.7148976 28.41 83.19 28.41 83.19 28.41 83.25 28.41 83.27 28.41 83.29 28.41 83.27 28.41 83.27 28.07 83.27 27.75 82.92 27.41 83.05 27.2576824 83.1402271 27.1630523 83.3029908 27.16 83.48 27.1300848 83.6877589 27.1613597 83.8997329 27.25 84.09 27.2896524 84.1643094 27.3134861 84.2460252 27.32 84.33 27.3291447 84.3829413 27.3291447 84.4370587 27.32 84.49L27.11 85.08C27.0572618 85.3020671 26.9212231 85.4953852 26.73 85.62 26.4548439 85.703739 26.1561306 85.6477303 25.93 85.47 25.7561653 85.3831548 25.6053804 85.2563584 25.49 85.1 25.410251 84.9715437 25.3559326 84.8289578 25.33 84.68 25.0432053 83.2014807 24.9257816 81.6951016 24.98 80.19 24.9595435 79.8506671 25.0071432 79.5106691 25.12 79.19 25.5008398 78.5651644 26.1520478 78.1544593 26.88 78.08 28.1992461 77.8415168 29.5401507 77.7443012 30.88 77.79 31.2983329 77.7714653 31.7174429 77.7982883 32.13 77.87 32.5419549 77.9557128 32.9163822 78.1691714 33.2 78.48M31.3 85C31.087511 85.10849 30.9208119 85.2893762 30.83 85.51 30.83 85.51 30.83 85.57 30.83 85.59 30.83 85.61 30.83 85.59 30.9 85.59 31.3561751 85.6199668 31.8138249 85.6199668 32.27 85.59 32.617329 85.5708386 32.9573235 85.48244 33.27 85.33 33.2928148 85.3369568 33.3171852 85.3369568 33.34 85.33 33.3455206 85.3069932 33.3455206 85.2830068 33.34 85.26 33.3298926 85.0757977 33.2453781 84.9036071 33.1058447 84.7829296 32.9663113 84.662252 32.7837351 84.6034453 32.6 84.62 32.1433654 84.6459139 31.6987011 84.7758927 31.3 85z"/>
    <path fill="#FFF" d="M26.5,88.35 C26.5,88.35 25.5,89.03 25.5,89.77 C25.5,90.51 30.79,105.32 30.79,105.32 C30.79,105.32 30.91,91.14 30.79,90.48 C30.6105695,89.8396391 30.3729117,89.2170428 30.08,88.62 C30.08,88.62 28.05,90.14 26.5,88.35 Z"/>
    <polygon fill="#212741" points="28.23 89.69 27.87 90.84 28.47 91.33 28.75 99.38 30.84 105.32 30.89 99.28 29.1 91.3 29.75 90.17 28.89 89.69"/>
    <path fill="#93D500" d="M32.11,110.61 C31.4902005,111.394837 30.7859673,112.109131 30.01,112.74 L29.53,113.12 C29.3565244,113.2758 29.1407796,113.376712 28.91,113.41 C28.750381,113.408105 28.5932084,113.370521 28.45,113.3 C25.39,112.113333 22.39,110.78 19.45,109.3 C18.23,108.67 16.88,107.85 16.62,106.5 C16.5450166,106.029636 16.5450166,105.550364 16.62,105.08 C17.0799343,101.647536 17.9737457,98.2873429 19.28,95.08 C19.65,94.18 20.11,92.44 21.07,91.85 L21.07,91.85 L21.18,91.85 L21.32,91.78 C22.62,91.31 23.75,92.61 24.11,93.71 C24.5152706,95.3121729 24.4633047,96.9958696 23.96,98.57 C23.4606488,100.130502 23.0894179,101.729136 22.85,103.35 C22.8099083,103.574688 22.8306237,103.80601 22.91,104.02 C23.0314916,104.226431 23.2035693,104.398508 23.41,104.52 L32.11,110.61 Z"/>
    <path fill="#212741" d="M32.11 147.84L32.34 150.14 33.79 150.41 34.44 149.84 35.55 150.72 39.9 150.72C39.9 150.72 41.01 148.81 38.6 148.16L36.2 147.51 32.11 147.84zM23.61 147.84L23.84 150.14 25.29 150.41 25.94 149.84 27.04 150.72 31.4 150.72C31.4 150.72 32.5 148.81 30.1 148.16L27.69 147.51 23.61 147.84z"/>
    <polygon fill="url(#progress2-g)" points="30.89 122.99 32.84 121.41 34.21 147.51 32.11 147.84"/>
    <path fill="url(#progress2-h)" d="M30.05,112.74 L29.57,113.12 C29.3965244,113.2758 29.1807796,113.376712 28.95,113.41 C28.790381,113.408105 28.6332084,113.370521 28.49,113.3 C25.43,112.113333 22.43,110.78 19.49,109.3 C18.27,108.67 16.92,107.85 16.66,106.5 C16.5850166,106.029636 16.5850166,105.550364 16.66,105.08 C17.1199343,101.647536 18.0137457,98.2873429 19.32,95.08 C19.69,94.18 20.15,92.44 21.11,91.85 L21.11,91.85 L21.22,91.85 L21.36,91.78 C22.6066673,91.7617105 23.7274172,92.5369963 24.15,93.71 C24.15,93.71 19.52,103.19 19.72,104.62 C19.92,106.05 29.64,110.69 29.64,110.69 L30.05,112.74 Z"/>
    <path fill="#FFBBAB" d="M34.29,111.41 C34.5427182,111.46979 34.7786168,111.58603 34.98,111.75 C35.1852598,111.919443 35.2747603,112.191836 35.21,112.45 C35.1354391,112.599344 35.0449104,112.740166 34.94,112.87 C34.82,113.09 34.8,113.37 34.68,113.6 C34.4547325,113.958667 34.0941078,114.211105 33.68,114.3 C32.5348916,114.816552 31.2028202,114.695109 30.17,113.98 C29.49,113.39 28.17,110.98 29.63,110.63 C30.2700097,110.592282 30.9118715,110.659846 31.53,110.83 C32.4645684,110.946004 33.3877899,111.140015 34.29,111.41 Z"/>
    <polygon fill="#863399" points="159.44 128.43 116.7 128.43 124.27 107.11 153.06 107.11"/>
    <polygon fill="url(#progress2-i)" points="159.44 128.43 116.7 128.43 124.27 107.11 153.06 107.11"/>
    <rect width="126.1" height="85.43" x="76.83" y="29.68" fill="#863399" rx="7.67"/>
    <path fill="url(#progress2-j)" d="M181.05,102.34 C181.018479,102.606301 181.164569,102.861957 181.41,102.97 C181.655337,103.063003 181.919046,103.097251 182.18,103.07 L183.3,103.07 C183.414431,103.061294 183.528958,103.085587 183.63,103.14 C183.749453,103.261683 183.808156,103.430453 183.79,103.6 L183.91,108.36 C184.01897,109.446463 183.86816,110.543268 183.47,111.56 C183.23,112.05 182.87,112.47 182.62,112.95 C182.32649,113.414725 182.249829,113.984203 182.41,114.51 C184.31,114.59 186.21,114.59 188.1,114.51 C188.459125,114.538612 188.81593,114.43157 189.1,114.21 C189.228241,114.063176 189.320665,113.888598 189.37,113.7 C189.929945,112.116852 190.390835,110.500395 190.75,108.86 C191.125901,107.305288 191.303976,105.70933 191.28,104.11 C191.249051,102.50168 190.797398,100.929515 189.97,99.55 C189.773939,99.2028729 189.508411,98.8998988 189.19,98.66 C188.859478,98.451526 188.493362,98.3057576 188.11,98.23 C186.214755,97.7962876 184.28291,97.5418333 182.34,97.47 C181.695233,97.3579324 181.031505,97.4597741 180.45,97.76 C179.886378,98.1821785 179.586317,98.8696606 179.66,99.57 C179.737075,100.265022 179.933276,100.941577 180.24,101.57"/>
    <path fill="url(#progress2-k)" d="M87.63,110.06 C88.83,106.113333 90.1933333,102.216667 91.72,98.37 C91.7868331,98.2140595 91.9026878,98.0841618 92.05,98 C92.2146294,97.9395682 92.3953706,97.9395682 92.56,98 L95.89,98.47 C95.6753004,100.33866 95.1194232,102.15204 94.25,103.82 C92.9579715,106.881715 92.0121031,110.078213 91.43,113.35 C91.4020077,113.678777 91.2994065,113.996841 91.13,114.28 C90.7753916,114.695344 90.2735538,114.957017 89.73,115.01 C88.1,115.35 87.04,115.85 86.73,114.19 C86.53,112.92 87.29,111.18 87.63,110.06 Z"/>
    <path fill="url(#progress2-l)" d="M103.22,111.09 L106.8,111.09 C107.04635,111.05774 107.295887,111.118342 107.5,111.26 C107.67,111.41 107.71,111.65 107.85,111.84 C108.14,112.24 108.72,112.23 109.21,112.18 C110.924689,111.987076 112.620474,111.652602 114.28,111.18 L113.64,106.82 C110.604223,107.492596 107.498647,107.798117 104.39,107.73 L104.22,102.48 L108.94,102.48 C109.184116,102.52985 109.436654,102.449949 109.607668,102.268755 C109.778683,102.08756 109.843866,101.830829 109.78,101.59 C109.788223,100.948216 109.751466,100.306645 109.67,99.67 C109.668386,99.5194474 109.607271,99.3756484 109.5,99.27 C109.366405,99.1944631 109.208943,99.172991 109.06,99.21 C105.4643,99.6882659 101.831155,99.8222067 98.21,99.61 C98.0084526,104.972438 97.0316558,110.277455 95.31,115.36 C97.23,115.15 99.51,115.48 101.36,115.06 C102.24,114.86 102.2,114.77 102.48,113.82 C102.56,113.53 103.11,111.1 103.22,111.09 Z"/>
    <path fill="#473F47" d="M202.92,37.35 L202.92,98.82 L76.82,98.82 L76.82,37.35 C76.8255091,33.11626 80.25626,29.6855091 84.49,29.68 L195.25,29.68 C199.48374,29.6855091 202.914491,33.11626 202.92,37.35 L202.92,37.35 Z"/>
    <path fill="#863399" d="M185.56,95.39 C184.160577,96.5024672 182.541892,97.3066978 180.81,97.75 C180.591325,97.7592929 180.385718,97.8566856 180.24,98.02 C180.174564,98.1906075 180.174564,98.3793925 180.24,98.55 C180.502211,99.7980265 180.87708,101.019698 181.36,102.2 C183.914508,101.866829 186.370726,101.001531 188.57,99.66 C188.932855,99.4658098 189.247305,99.192375 189.49,98.86 C189.679145,98.4699045 189.781494,98.0434487 189.79,97.61 C189.88,96.42 190.05,94.73 189.35,93.68 C188.79,92.86 188.49,93.4 187.75,93.91 L185.56,95.39 Z"/>
    <path fill="url(#progress2-m)" d="M186.46,95.19 C185.061721,96.3042654 183.442634,97.1086958 181.71,97.55 C181.485671,97.5567109 181.274784,97.6585183 181.13,97.83 C181.064242,97.9970966 181.064242,98.1829034 181.13,98.35 C181.388811,99.597743 181.760335,100.819421 182.24,102 C184.797616,101.666738 187.257081,100.801497 189.46,99.46 C189.822103,99.2687206 190.133903,98.9946114 190.37,98.66 C190.569929,98.273842 190.67289,97.8448346 190.67,97.41 C190.76,96.23 190.94,94.53 190.23,93.49 C189.68,92.67 189.37,93.2 188.63,93.71 L186.46,95.19 Z"/>
    <path fill="#FFF" d="M201.05,38.82 L201.05,96.82 L78.72,96.82 L78.72,38.82 C78.73058,36.857389 79.5203857,34.9793676 80.9156626,33.5990937 C82.3109395,32.2188198 84.1973893,31.4493626 86.16,31.4596675 L193.58,31.4596675 C195.547788,31.4413567 197.44196,32.207271 198.843741,33.5884105 C200.245523,34.9695501 201.039451,36.8521518 201.05,38.82 L201.05,38.82 Z"/>
    <path fill="#863399" d="M201.05,38.82 L201.05,96.82 L78.72,96.82 L78.72,38.82 C78.73058,36.857389 79.5203857,34.9793676 80.9156626,33.5990937 C82.3109395,32.2188198 84.1973893,31.4493626 86.16,31.4596675 L193.58,31.4596675 C195.547788,31.4413567 197.44196,32.207271 198.843741,33.5884105 C200.245523,34.9695501 201.039451,36.8521518 201.05,38.82 L201.05,38.82 Z" opacity=".18"/>
    <rect width="40.28" height="37" x="89.3" y="39.05" fill="#863399" opacity=".18"/>
    <path fill="#863399" d="M175.42,131.27 C174.205377,132.484163 173.525128,134.132596 173.53,135.85 C173.525872,136.74919 173.713368,137.63894 174.08,138.46 C174.870069,140.261913 176.438256,141.605548 178.34,142.109994 L178.34,143.590005 L100.34,143.590005 C97.0054709,143.593933 94.0452783,141.456464 93,138.29 C92.7345444,137.503911 92.5999935,136.679701 92.5999935,135.85 C92.5973416,133.796411 93.4119499,131.826166 94.8640581,130.374058 C96.3161663,128.92195 98.2864106,128.107342 100.34,128.109994 L178.34,128.109994 L178.34,129.59 C177.237375,129.88713 176.231061,130.466105 175.42,131.27 L175.42,131.27 Z"/>
    <path fill="url(#progress2-n)" d="M178.34,142.11 L178.34,143.590005 L100.34,143.590005 C97.0054709,143.593933 94.0452783,141.456464 93,138.29 C96,138.81 114.71,141.8 125.15,135.85 L174.05,138.46 C174.84636,140.268858 176.426943,141.613643 178.34,142.11 L178.34,142.11 Z"/>
    <path fill="#FFF" d="M102.54 147.92C104.75 148.04 107.12 148.14 109.01 146.98 109.144809 146.907353 109.261132 146.804714 109.35 146.68 109.440482 146.473785 109.417782 146.235428 109.29 146.05 109.156808 145.870491 108.981717 145.726299 108.78 145.63 108.071824 145.288516 107.311181 145.068774 106.53 144.98 105.53 144.81 104.62 144.65 103.66 144.55 103.04 144.49 101.99 144.24 101.49 144.74 101.181225 145.20936 101.093519 145.790413 101.25 146.33 101.37 147.23 101.54 147.86 102.54 147.92zM87.89 145.42C89.63 146.79 91.53 148.21 93.74 148.34 93.8893936 148.36085 94.0416436 148.340089 94.18 148.28 94.3767058 148.166439 94.4984866 147.957128 94.5 147.73 94.491113 147.505488 94.4294466 147.28623 94.32 147.09 93.9233779 146.413663 93.4240908 145.803048 92.84 145.28 92.15 144.6 91.46 143.92 90.72 143.28 90.25 142.88 89.53 142.07 88.84 142.2 88.15 142.33 87.96 142.92 87.73 143.37 87.32 144.18 87.1 144.8 87.89 145.42zM175.42 131.27C173.783796 132.909183 173.146843 135.297005 173.749251 137.533338 174.351658 139.769672 176.101825 141.514469 178.34 142.11L178.34 142.33 131.66 142.33C128.070149 142.33 125.16 139.419851 125.16 135.83 125.16 132.240149 128.070149 129.33 131.66 129.33L178.34 129.33 178.34 129.54C177.23213 129.8514 176.225303 130.44791 175.42 131.27L175.42 131.27zM36.15 103.56L36.38 102.8C36.4226005 102.659507 36.5442359 102.55749 36.69 102.54L41.3 102.2C41.3794975 102.191354 41.4577797 102.224621 41.5067328 102.287852 41.555686 102.351083 41.5682831 102.435203 41.54 102.51L41.26 103.34C41.2032863 103.510135 41.0489901 103.628824 40.87 103.64L36.43 103.91C36.3403817 103.917466 36.2529284 103.879822 36.1967504 103.8096 36.1405723 103.739377 36.123044 103.645794 36.15 103.56z"/>
    <path fill="#FFBBAB" d="M54.27,83.93 C53.9348743,84.5291167 53.4305031,85.0160957 52.82,85.33 C52.2477045,85.597565 51.6560226,85.821535 51.05,86 C50.4375047,86.1603653 49.8914483,86.5104014 49.49,87 L49.42,87.09 C48.84,86.7433333 48.25,86.41 47.65,86.09 C47.73,85.93 47.88,85.74 47.94,85.62 C48.07,85.33 48.17,85.03 48.29,84.74 C48.723831,83.7317464 49.4478937,82.875403 50.37,82.28 C50.44,82.28 50.53,82.19 50.6,82.28 C50.6201076,82.3245007 50.6201076,82.3754993 50.6,82.42 C50.5924468,82.8458371 50.4753531,83.262553 50.26,83.63 L53.88,82.33 C53.9692604,82.2840139 54.0704937,82.2665599 54.17,82.28 C54.2874116,82.3258379 54.3787999,82.4208818 54.42,82.54 C54.571651,83.0034046 54.5170237,83.5096178 54.27,83.93 L54.27,83.93 Z"/>
    <path fill="#473F47" d="M105.17,142.91 L105.17,145.11 C103.842947,145.270415 102.503864,145.307239 101.17,145.22 C101.0458,145.244072 100.917639,145.206403 100.826217,145.118955 C100.734794,145.031507 100.691469,144.905147 100.71,144.78 C100.43,141.13 100.89,137.45 100.47,133.83 C100.403551,133.068968 100.228439,132.321377 99.95,131.61 C99.6083052,130.901497 99.1926618,130.231104 98.71,129.61 C97.3098841,127.68029 96.0627522,125.644088 94.98,123.52 C93.9432763,121.362974 93.4653023,118.979981 93.59,116.59 C93.59,114.2 94.85,113.17 97.18,113.79 C97.5386107,113.848468 97.8799935,113.985021 98.18,114.19 C98.4168469,114.403101 98.6133241,114.657167 98.76,114.94 C100.166312,117.227782 101.412622,119.610139 102.49,122.07 C105.05,128.62 105.26,135.83 105.17,142.91 Z"/>
    <path fill="url(#progress2-o)" d="M105.17,142.91 L105.17,145.11 C103.842947,145.270415 102.503864,145.307239 101.17,145.22 C101.0458,145.244072 100.917639,145.206403 100.826217,145.118955 C100.734794,145.031507 100.691469,144.905147 100.71,144.78 C100.43,141.13 100.89,137.45 100.47,133.83 C100.403551,133.068968 100.228439,132.321377 99.95,131.61 C99.6083052,130.901497 99.1926618,130.231104 98.71,129.61 C97.3098841,127.68029 96.0627522,125.644088 94.98,123.52 C93.9432763,121.362974 93.4653023,118.979981 93.59,116.59 C93.59,114.2 94.85,113.17 97.18,113.79 C97.5386107,113.848468 97.8799935,113.985021 98.18,114.19 C98.4168469,114.403101 98.6133241,114.657167 98.76,114.94 C100.166312,117.227782 101.412622,119.610139 102.49,122.07 C105.05,128.62 105.26,135.83 105.17,142.91 Z"/>
    <path fill="#FFBBAB" d="M106.44,100.82 C111.188853,99.4961306 115.270033,96.442381 117.88,92.26 C118.377572,91.6432524 118.55879,90.8296191 118.37,90.06 C118.347277,89.9657901 118.285431,89.8857541 118.2,89.84 C118.07,89.78 117.92,89.84 117.79,89.95 L111.63,93.95 C109.983463,95.156491 108.1487,96.08232 106.2,96.69 C105.900063,97.289882 105.687894,97.9297561 105.57,98.59 C105.586319,99.412995 105.894678,100.203387 106.44,100.82 Z"/>
    <rect width="72.26" height="58.23" x="108.71" y="52.84" fill="#FFF"/>
    <path fill="#863399" d="M118.89 109.91C118.558357 110.135689 118.177975 110.279617 117.78 110.33 115.14826 110.857846 112.457926 111.032717 109.78 110.85 109.516887 110.863852 109.256617 110.789991 109.04 110.64 108.822759 110.406899 108.704454 110.098589 108.71 109.78 108.637979 108.956634 108.691933 108.1271 108.87 107.32 108.87 107.21 115.41 107.22 116.03 107.32 116.9 107.46 120.43 108.67 118.89 109.91zM174.95 86.91C174.855103 87.432392 174.855103 87.967608 174.95 88.49 175.164593 89.2255078 175.532686 89.9071615 176.03 90.49 178.01044 93.2411483 179.564588 96.2752764 180.64 99.49 181.040478 97.7163101 181.191933 95.8954802 181.09 94.08 181.108498 93.443544 181.061585 92.8068709 180.95 92.18 180.707271 91.316423 180.371994 90.4815833 179.95 89.69 179.366923 88.4091481 178.927576 87.0676285 178.64 85.69 178.44 84.69 178.1 82.29 176.58 82.45 175.27 82.66 175.05 85.94 174.95 86.91z" opacity=".16"/>
    <path fill="#473F47" d="M89.05,118.6 C89.6388872,120.890844 90.4597983,123.11568 91.5,125.24 C92.36,127.05 94.35,129.37 94.34,131.41 C94.34,135.09 90.47,140 88.09,142.52 C89.3457138,143.347932 90.686742,144.038561 92.09,144.58 C92.396615,144.742451 92.7505615,144.792003 93.09,144.72 C93.4616661,144.556562 93.7555644,144.255496 93.91,143.88 L96.5,139.39 C97.94,136.89 99.43,134.25 99.55,131.39 C99.5567377,130.342578 99.483189,129.296181 99.33,128.26 C99.06,126.05 99.33,123.55 98.78,121.4 C98.29,119.4 97.65,117.5 97.2,115.51 C97.0879478,114.482363 96.6127729,113.528467 95.86,112.82 C95.5035925,112.581481 95.1073314,112.408752 94.69,112.31 C92.69,111.74 90.49,111.67 89.39,113.76 C88.7143399,115.283977 88.5940367,116.996528 89.05,118.6 Z"/>
    <path fill="#FFF" d="M107.05,96.91 C108.15,97.31 107.12,99.91 106.83,100.64 C106.798791,100.833443 106.684465,101.00353 106.517126,101.105471 C106.349788,101.207413 106.14621,101.230992 105.96,101.17 C104.31,101.02 102.66,100.82 101.02,100.58 C100.670122,100.54704 100.330243,100.445076 100.02,100.28 C99.6279133,100.000813 99.364786,99.5754836 99.29,99.1 C99.14,98.33 99.06,96.49 99.73,95.9 C100.21,95.47 101.18,95.78 101.81,95.84 C103.593681,95.9822449 105.353346,96.3415659 107.05,96.91 L107.05,96.91 Z"/>
    <path fill="url(#progress2-p)" d="M106.7,98 C107.8,98.4 106.77,101 106.47,101.73 C106.423061,101.917334 106.313726,102.0831 106.16,102.2 C105.98808,102.279314 105.794978,102.30038 105.61,102.26 C103.95,102.11 102.31,101.91 100.67,101.68 C100.303255,101.645494 99.9466772,101.540219 99.62,101.37 C99.2299811,101.090516 98.9701397,100.664665 98.9,100.19 C98.74,99.42 98.67,97.58 99.34,96.99 C99.82,96.57 100.78,96.87 101.42,96.93 C103.217049,97.0700114 104.990221,97.4293472 106.7,98 L106.7,98 Z"/>
    <path fill="#FFBBAB" d="M103.84,87.44 C104.04,87.77 104.43,87.96 104.56,88.31 C104.69,88.66 104.42,89.19 104.26,89.62 C104.05,90.22 104.12,90.9 103.91,91.5 C103.870706,91.6320474 103.794352,91.750049 103.69,91.84 C103.59363,91.9052937 103.484603,91.9495859 103.37,91.97 C102.922829,92.0616006 102.464826,92.088542 102.01,92.05 C101.926029,92.0194286 101.833971,92.0194286 101.75,92.05 C101.682015,92.1084648 101.639061,92.1907924 101.63,92.28 C101.349913,93.4197108 101.349913,94.6102892 101.63,95.75 C101.73,96.12 101.84,96.58 101.56,96.85 C101.461146,96.9377146 101.340058,96.9965291 101.21,97.02 C100.307596,97.1024007 99.4325206,96.6840535 98.93,95.93 C98.4060249,95.3185099 97.9562324,94.6471777 97.59,93.93 C97.4797592,93.7338241 97.402083,93.5210589 97.36,93.3 C97.3498735,93.0118234 97.3904918,92.7241105 97.48,92.45 C97.7294962,91.5048119 97.8803027,90.5362987 97.93,89.56 C97.876553,88.3136422 98.0285845,87.0669843 98.38,85.87 C98.5193759,85.463703 98.7858551,85.1130725 99.14,84.87 C99.557681,84.6742339 100.022455,84.6013962 100.48,84.66 C101.394616,84.5956914 102.298369,84.8897698 103,85.48 C103.23,85.75 103.6,87 103.84,87.44 Z"/>
    <path fill="#473F47" d="M103.47,84.48 C103.84,84.41 104.11,84.91 103.97,85.25 C103.784269,85.5863311 103.442846,85.8076932 103.06,85.84 C102.687353,85.8729972 102.316796,85.9264108 101.95,86 C101.572907,86.0921946 101.295819,86.4134559 101.26,86.8 C100.835076,86.7397194 100.431876,87.0056596 100.32,87.42 C100.215407,87.8233295 100.215407,88.2466705 100.32,88.65 C100.2,88.78 99.99,88.65 99.88,88.56 C99.77,88.47 99.7,88.27 99.56,88.18 C99.24,88.01 98.86,88.41 98.9,88.77 C98.9931885,89.1208483 99.2008289,89.4305492 99.49,89.65 C99.5594778,89.7019711 99.6145477,89.7708085 99.65,89.85 C99.75,90.15 99.35,90.36 99.04,90.43 C99.0648474,90.6630868 99.0375204,90.898782 98.96,91.12 C98.8837845,91.3491455 98.6714441,91.505396 98.43,91.51 C98.22,91.51 98.05,91.34 97.86,91.26 C97.67,91.18 97.37,91.26 97.35,91.44 C97.03,90.77 97.35,90.14 97.23,89.44 C97.11,88.74 96.59,89.07 96.23,88.68 C96.04,88.46 96.05,88.13 95.96,87.85 C95.87,87.57 95.55,87.2 95.47,86.85 C95.33,86.23 95.85,85.67 96.32,85.25 C96.2182681,85.0114959 96.2784317,84.7347432 96.47,84.56 C96.6652688,84.4019464 96.9007657,84.3015138 97.15,84.27 C97.2148169,84.2617193 97.2766182,84.2376854 97.33,84.2 C97.41,84.12 97.39,83.99 97.33,83.88 C97.18,81.99 100.26,82.51 101.39,82.61 C101.862688,82.6526828 102.318504,82.8069064 102.72,83.06 C102.95,83.18 103.89,84.4 103.47,84.48 Z"/>
    <path fill="#FFF" d="M97.49,93.46 L97.56,93.46 C99.21,93.87 101.61,95.37 102.15,97.04 C102.938598,99.3157203 103.158322,101.749847 102.79,104.13 C102.45,105.64 101.53,106.95 101.15,108.42 C100.877061,110.048644 100.48943,111.655977 99.99,113.23 C99.7549823,113.95632 99.2920921,114.587534 98.67,115.03 C98.1044354,115.308061 97.4800375,115.445291 96.85,115.43 C95,115.53 92.4,116.16 90.85,114.89 C89.7174761,113.829874 89.1411645,112.304126 89.29,110.76 C89.4503109,109.237341 89.848484,107.749253 90.47,106.35 L93.04,99.65 C93.68,98.06 95.18,93 97.49,93.46 Z"/>
    <path fill="url(#progress2-q)" d="M96.14,110 C96.2814656,110.24012 96.3764537,110.50473 96.42,110.78 C96.4196779,110.980061 96.3893402,111.178942 96.33,111.37 C96.0650134,112.45914 95.9539336,113.580035 96,114.7 C95.9773101,114.902096 96.0387915,115.104623 96.17,115.26 C96.3144922,115.365942 96.4910521,115.41891 96.67,115.41 C97.3121647,115.519685 97.9720282,115.454044 98.58,115.22 C99.2389147,114.815995 99.7345565,114.192903 99.98,113.46 C100.795628,111.422779 101.418356,109.31354 101.84,107.16 C101.947776,106.814248 101.981843,106.449735 101.94,106.09 C101.793925,105.545435 101.433038,105.0835 100.94,104.81 C100.49,104.5 99.94,104.28 99.55,103.95 C98.7,103.29 98.07,102.11 96.91,101.95 C96.0791186,101.884184 95.3206142,102.423565 95.11,103.23 C94.41,105.23 95.2,108.1 96.14,110 Z"/>
    <path fill="#FFF" d="M98.93,98.35 C98.93,98.35 101.28,104.72 101.75,105.19 C102.22,105.66 97.21,108.47 97.21,108.47 C97.21,108.47 93.95,102.28 94.11,99.59 C94.27,96.9 97.05,95.82 98.93,98.35 Z"/>
    <path fill="#FFBBAB" d="M97.21,107.61 C97.3014389,108.231962 97.6362378,108.792113 98.1407265,109.167198 C98.6452152,109.542282 99.2780572,109.701566 99.9,109.61 L104.16,109.55 C106.16,109.55 108.08,109.46 110.04,109.47 C110.518985,109.535624 110.988773,109.656427 111.44,109.83 C112.050069,109.966318 112.678116,110.003461 113.3,109.94 C114.526341,109.809768 115.675599,109.279071 116.57,108.43 C117.188724,107.968407 117.455803,107.171159 117.24,106.43 C117.198895,106.334387 117.128979,106.253983 117.04,106.2 C116.960739,106.184621 116.879261,106.184621 116.8,106.2 C115.62992,106.40074 114.432582,106.380389 113.27,106.14 C113.365893,105.991208 113.414684,105.816954 113.41,105.64 C113.41,105.47 113.23,105.3 113.06,105.34 C112.9699,105.370815 112.890226,105.42624 112.83,105.5 C112.251655,106.15181 111.397752,106.489658 110.53,106.41 C107.3,106.26 104.12,105.57 100.89,105.41 C100.135463,105.330488 99.3726352,105.408814 98.65,105.64 C97.8793458,106.02478 97.3427202,106.758913 97.21,107.61 Z"/>
    <path fill="#FC682D" d="M185.12,92.36 C184.328022,92.7156563 183.603907,93.206295 182.98,93.81 C182.329762,94.4086044 181.965948,95.2562927 181.98,96.14 C182.16924,97.183848 182.752904,98.1148461 183.61,98.74 C184.51,99.53 185.61,100.36 185.68,101.57 C186.33,101.09 186.92,100.57 187.58,100.07 C188.803823,99.360659 190.084979,98.755204 191.41,98.26 C192.748042,97.7552519 193.868778,96.8006819 194.58,95.56 C194.907147,94.7574987 195.096474,93.9055283 195.14,93.04 C195.268156,92.1122364 195.291637,91.1730084 195.21,90.24 C195.120354,89.3015247 194.7108,88.4223958 194.05,87.75 C193.037073,86.9730389 191.842806,86.4671105 190.58,86.28 C189.127558,86.3450636 187.844446,87.2459722 187.29,88.59 C187.03,89.29 187.15,90.09 186.89,90.78 C186.521801,91.5121366 185.889073,92.0769441 185.12,92.36 Z"/>
    <path fill="#FFBBAB" d="M174.05,149.09 C173.798143,149.114292 173.551742,149.178424 173.32,149.28 C173.089868,149.393417 172.940222,149.623642 172.93,149.88 C172.978394,150.12949 173.146777,150.339033 173.38,150.44 C173.6,150.55 173.85,150.6 174.07,150.72 C174.256583,150.847131 174.454014,150.957559 174.66,151.05 C175.026705,151.119939 175.406235,151.067226 175.74,150.9 C177.307356,150.349963 178.959063,150.079191 180.62,150.1 C180.779363,150.120185 180.940637,150.120185 181.1,150.1 C181.592056,149.931766 181.955182,149.511304 182.05,149 C182.279851,147.969326 182.279851,146.900674 182.05,145.87 C182.032845,145.752987 181.992014,145.640701 181.93,145.54 C181.856745,145.462452 181.763199,145.407017 181.66,145.38 C180.03,144.76 179.33,146.38 178.26,147.26 C177.045046,148.234644 175.591457,148.866489 174.05,149.09 Z"/>
    <path fill="#863399" d="M179.48,149.14 L179.16,149.14 C178.426191,149.220075 177.687072,149.240142 176.95,149.2 C176.810326,149.201279 176.67264,149.166858 176.55,149.1 C176.390986,148.970997 176.302055,148.774607 176.31,148.57 C176.33005,148.370503 176.33005,148.169497 176.31,147.97 C176.300093,147.928667 176.279388,147.890707 176.25,147.86 C176.214054,147.849718 176.175946,147.849718 176.14,147.86 C175.574619,147.876151 175.021819,148.03066 174.53,148.31 C173.51647,148.713479 172.646121,149.409759 172.03,150.31 C171.975272,150.386028 171.943986,150.476408 171.94,150.57 C171.944227,150.651408 171.975957,150.728971 172.03,150.79 C172.69,151.79 174.34,151.57 175.35,151.36 C176.36,151.15 177.55,150.69 178.69,150.51 C179.83,150.33 181.29,150.41 182.37,149.75 C182.547339,149.654136 182.695805,149.512576 182.8,149.34 C182.999802,148.71739 182.829288,148.035337 182.36,147.58 C182.324607,147.526724 182.271451,147.487742 182.21,147.47 C182.128473,147.459728 182.04612,147.481212 181.98,147.53 C181.47,147.85 181.13,148.41 180.61,148.73 C180.267317,148.946576 179.881831,149.086443 179.48,149.14 L179.48,149.14 Z"/>
    <path fill="#FF6B00" d="M190.66,107.37 C190.66,107.37 195.75,110.29 194.33,115.62 C193.08,120.28 189.5,123.18 187.21,127.16 C185.94,129.36 186.21,132.97 185.64,135.54 C184.978073,138.688986 184.072002,141.781663 182.93,144.79 C182.69,145.39 182.32,146.1 181.67,146.12 C181.36729,146.078766 181.066895,146.022024 180.77,145.95 C180.480764,145.979761 180.189236,145.979761 179.9,145.95 C179.16,145.78 179.16,144.73 179.33,143.95 C180.140849,140.377636 180.629475,136.739712 180.79,133.08 C180.91,130.26 180.15,127.27 180.95,124.53 C181.58,122.37 185.36,110.77 185.36,110.77 L190.66,107.37 Z"/>
    <path fill="url(#progress2-r)" d="M190.66,107.37 C190.66,107.37 195.75,110.29 194.33,115.62 C193.08,120.28 189.5,123.18 187.21,127.16 C185.94,129.36 186.21,132.97 185.64,135.54 C184.978073,138.688986 184.072002,141.781663 182.93,144.79 C182.69,145.39 182.32,146.1 181.67,146.12 C181.36729,146.078766 181.066895,146.022024 180.77,145.95 C180.480764,145.979761 180.189236,145.979761 179.9,145.95 C179.16,145.78 179.16,144.73 179.33,143.95 C180.140849,140.377636 180.629475,136.739712 180.79,133.08 C180.91,130.26 180.15,127.27 180.95,124.53 C181.58,122.37 185.36,110.77 185.36,110.77 L190.66,107.37 Z"/>
    <path fill="#FFBBAB" d="M184.79,151.91 C184.551133,151.991605 184.327933,152.113351 184.13,152.27 C183.928131,152.43301 183.838529,152.69792 183.9,152.95 C184.005209,153.180381 184.219584,153.342102 184.47,153.38 C184.71,153.43 184.96,153.38 185.2,153.48 C185.419354,153.553938 185.643125,153.614056 185.87,153.66 C186.239568,153.63012 186.589929,153.482969 186.87,153.24 C188.251508,152.313707 189.784717,151.636794 191.4,151.24 C191.558279,151.20668 191.712504,151.156389 191.86,151.09 C192.256335,150.792531 192.474725,150.314331 192.44,149.82 C192.40092,148.771525 192.123937,147.745663 191.63,146.82 C191.590874,146.709478 191.525702,146.610006 191.44,146.53 C191.349351,146.474819 191.246054,146.443831 191.14,146.44 C189.4,146.25 189.14,148 188.32,149.11 C187.404933,150.332567 186.188763,151.297234 184.79,151.91 L184.79,151.91 Z"/>
    <path fill="#FF6B00" d="M190.05,111 C191.394548,111.195857 192.6453,111.803765 193.63,112.74 C195.76,114.55 195.63,118.25 194.89,120.96 C194.51,122.38 192.25,126.85 191.89,128.12 C191.26,130.52 192.52,133.5 192.63,135.93 C192.77022,139.147029 192.659887,142.370091 192.3,145.57 C192.23,146.21 192.04,146.98 191.42,147.17 C191.12,147.25 190.8,147.17 190.5,147.23 C190.232485,147.338799 189.954297,147.419239 189.67,147.47 C188.91,147.47 188.67,146.47 188.67,145.72 C188.560487,142.055867 188.128823,138.408472 187.38,134.82 C186.8,132.06 185.31,129.35 185.38,126.5 L185.59,119.5 C185.67,116.92 185.31,114.31 186.1,111.83 C186.164035,111.529554 186.325793,111.258784 186.56,111.06 C186.784066,110.927698 187.039794,110.858583 187.3,110.86 C188.065498,110.800135 188.834502,110.800135 189.6,110.86 L190.05,111 Z"/>
    <path fill="#FFBBAB" d="M186.37,84.88 C186.18,85.2 185.78,85.39 185.65,85.75 C185.52,86.11 185.8,86.63 185.95,87.06 C186.17,87.66 186.1,88.34 186.31,88.94 C186.345475,89.0713313 186.418449,89.1894801 186.52,89.28 C186.615669,89.344757 186.725341,89.385884 186.84,89.4 C187.289192,89.5015979 187.752036,89.5286253 188.21,89.48 C188.294779,89.4544176 188.385221,89.4544176 188.47,89.48 C188.536447,89.5396718 188.579069,89.6213635 188.59,89.71 C188.850424,90.8545494 188.829837,92.0451381 188.53,93.18 C188.44,93.55 188.33,94.01 188.61,94.28 C188.708854,94.3677146 188.829942,94.4265291 188.96,94.45 C189.86279,94.521499 190.734094,94.1011334 191.24,93.35 C191.759015,92.7368818 192.205318,92.0657492 192.57,91.35 C192.680241,91.1538241 192.757917,90.9410589 192.8,90.72 C192.819191,90.428145 192.77835,90.135454 192.68,89.86 C192.437873,88.9170312 192.290476,87.9522487 192.24,86.98 C192.295234,85.7295977 192.139731,84.4788122 191.78,83.28 C191.643263,82.8750965 191.380421,82.5246403 191.03,82.28 C190.608538,82.084983 190.140786,82.0122217 189.68,82.07 C188.767831,82.0007754 187.865369,82.2956038 187.17,82.89 C186.99,83.19 186.61,84.47 186.37,84.88 Z"/>
    <path fill="#FFF" d="M192.73,90.88 C192.73,90.88 189,92.81 187.87,94.32 C186.74,95.83 184.87,96.95 185.61,99.82 C186.19,102.14 185.56,104.3 185.53,106.6 C185.53,107.23 185.8,107.74 185.79,108.38 C185.79,109.5 184.79,110.49 185.17,111.65 C185.46,112.6 186.56,113.01 187.52,113.28 L191.27,114.37 C192.074417,114.713782 192.98019,114.735263 193.8,114.43 C194.74,113.91 194.95,112.66 195.04,111.59 C195.26,108.82 195.18,105.49 196.32,102.9 C197.023264,101.429433 197.260518,99.7791237 197,98.17 C196.76,96.07 195.85,90.51 192.73,90.88 Z"/>
    <path fill="#FC682D" d="M187.57,82.87 C187.645308,83.4857755 187.93997,84.0537988 188.4,84.47 C188.84,84.88 189.4,85.16 189.84,85.56 C190.335713,85.9286433 190.610586,86.5235733 190.57,87.14 C190.933786,86.9759205 191.362814,87.1089193 191.57,87.45 C191.673273,87.6799341 191.6343,87.9488446 191.47,88.14 C191.303304,88.3208112 191.065744,88.4194898 190.82,88.41 C191.291791,88.6005817 191.695778,88.9279505 191.98,89.35 C192.3,89.82 192.46,90.35 192.75,90.88 C193.112884,91.3747406 193.563727,91.7984657 194.08,92.13 C194.320004,92.2874637 194.518868,92.5000431 194.66,92.75 C194.766064,93.1247184 194.896338,93.4921574 195.05,93.85 C195.380652,94.3200204 195.737902,94.7707556 196.12,95.2 C196.62749,95.9499624 196.91816,96.8254345 196.96,97.73 C196.935038,97.460577 196.935038,97.189423 196.96,96.92 C197.05,96.76 197.14,96.6 197.22,96.44 C197.367037,96.1468635 197.481069,95.8383062 197.56,95.52 C197.669925,94.7918826 197.690076,94.0530265 197.62,93.32 C197.62,91.75 199.1,88.79 197.91,87.44 C197.433187,87.0473102 196.92853,86.6897062 196.4,86.37 C195.4,85.5 195.2,83.97 194.54,82.78 C193.949959,81.7225093 192.958613,80.9474568 191.79,80.63 C190.2,80.2 187.38,80.69 187.57,82.87 Z"/>
    <path fill="#FFF" d="M192.61,93.31 C192.61,93.31 185.9,94.39 185.27,94.22 C184.64,94.05 184.64,99.78 184.64,99.78 C184.64,99.78 191.64,99.57 193.9,98.11 C196.16,96.65 195.72,93.66 192.61,93.31 Z"/>
    <path fill="#FFBBAB" d="M185.4,99.36 C184.812713,99.5916124 184.157289,99.5793407 183.579083,99.3259064 C183.000878,99.0724721 182.547681,98.5988225 182.32,98.01 L176.95,88.19 C176.95,87.33 176.46,86.39 176.73,85.58 C176.87,85.19 177.15,84.87 177.29,84.49 C177.47017,83.9890404 177.47017,83.4409596 177.29,82.94 C177.093316,82.4548967 176.845234,81.9922575 176.55,81.56 C176.662355,81.2550621 176.982658,81.079963 177.3,81.15 C177.602897,81.2322356 177.87444,81.4028198 178.08,81.64 C179.002585,82.5966421 179.506344,83.8812289 179.48,85.21 C179.41986,85.6110915 179.41986,86.0189085 179.48,86.42 C179.563793,86.692594 179.6922,86.9494095 179.86,87.18 C181.58,89.92 183.74,92.35 185.46,95.09 C185.89475,95.7132397 186.200727,96.4169875 186.36,97.16 C186.406252,98.0039451 186.050177,98.8199512 185.4,99.36 Z"/>
    <path fill="#863399" d="M190.22 151L189.93 151.08C189.272382 151.239165 188.603892 151.349466 187.93 151.41 187.805686 151.444526 187.674314 151.444526 187.55 151.41 187.387661 151.309499 187.280681 151.139807 187.26 150.95 187.243669 150.76318 187.206779 150.578731 187.15 150.4 187.139422 150.361956 187.11427 150.329617 187.08 150.31 187.047421 150.299974 187.012579 150.299974 186.98 150.31 186.460214 150.398002 185.969524 150.610749 185.55 150.93 184.684844 151.44588 183.989597 152.203699 183.55 153.11 183.51324 153.188024 183.496076 153.27384 183.5 153.36 183.520418 153.431444 183.558209 153.49672 183.61 153.55 184.35 154.42 185.83 153.98 186.73 153.65 187.63 153.32 188.67 152.77 189.73 152.46 190.79 152.15 192.1 152.03 193.01 151.29 193.160153 151.181685 193.280538 151.037224 193.36 150.87 193.464015 150.269615 193.220175 149.661952 192.73 149.3 192.689499 149.258432 192.637083 149.230477 192.58 149.22 192.503603 149.220353 192.430931 149.253055 192.38 149.31 191.94 149.67 191.7 150.22 191.27 150.58 190.954901 150.795054 190.596489 150.938419 190.22 151L190.22 151zM176.8 104.38L114.05 104.38 114.05 60.67 176.85 60.67 176.8 104.38zM114.56 103.82L176.24 103.82 176.24 61.23 114.56 61.23 114.56 103.82z"/>
    <polygon fill="#863399" points="119.65 96.53 117.31 94.11 128.59 83.21 135.88 86.55 148.53 74.81 155.18 79.01 168.14 68.41 170.27 71.01 155.44 83.15 148.92 79.04 136.52 90.55 129.28 87.23"/>
    <polygon fill="#863399" points="172.64 75.64 169.28 75.64 169.28 69.9 163.38 69.9 163.38 66.53 172.64 66.53"/>
  </g>
</svg>
