<svg xmlns="http://www.w3.org/2000/svg" width="187" height="187" viewBox="0 0 187 187">
  <path fill="#FF6B00" d="M674.5,530.834 L609.458,530.834 C606.9937,530.834 604.6303,529.855 602.8878,528.113 C601.1453,526.37 600.1663,524.007 600.1663,521.542 L600.1663,391.459 C600.1663,388.9947 601.1453,386.6313 602.8878,384.8888 C604.6303,383.1463 606.9937,382.1673 609.458,382.1673 L655.9163,382.1673 L655.9163,410.0423 C655.9163,417.4352 658.8532,424.5253 664.081,429.7529 C669.308,434.9805 676.398,437.9173 683.791,437.9173 L711.666,437.9173 L711.666,447.209 C711.666,449.673 712.645,452.037 714.388,453.779 C716.13,455.522 718.494,456.501 720.958,456.501 C723.422,456.501 725.786,455.522 727.528,453.779 C729.271,452.037 730.25,449.673 730.25,447.209 L730.25,428.6257 C730.25,428.6257 730.25,428.6256 730.25,428.0681 C730.153,427.2146 729.966,426.3736 729.692,425.5594 L729.692,424.7232 C729.245,423.7678 728.65,422.8896 727.927,422.1215 L727.927,422.1215 L672.177,366.3715 C671.409,365.6487 670.53,365.0528 669.575,364.6061 C669.298,364.5667 669.016,364.5667 668.739,364.6061 C667.795,364.0647 666.753,363.7173 665.673,363.584 L609.458,363.584 C602.0651,363.584 594.975,366.5208 589.7474,371.7484 C584.5198,376.976 581.583,384.0661 581.583,391.459 L581.583,521.542 C581.583,528.935 584.5198,536.025 589.7474,541.253 C594.975,546.481 602.0651,549.417 609.458,549.417 L674.5,549.417 C676.964,549.417 679.327,548.438 681.07,546.696 C682.812,544.953 683.791,542.59 683.791,540.126 C683.791,537.661 682.812,535.298 681.07,533.555 C679.327,531.813 676.964,530.834 674.5,530.834 Z M674.5,395.2686 L698.565,419.334 L683.791,419.334 C681.327,419.334 678.964,418.355 677.221,416.6125 C675.479,414.87 674.5,412.5066 674.5,410.0423 L674.5,395.2686 Z M628.0413,419.334 C625.577,419.334 623.2137,420.3129 621.4711,422.0555 C619.7286,423.798 618.7497,426.1613 618.7497,428.6257 C618.7497,431.09 619.7286,433.4533 621.4711,435.1959 C623.2137,436.9384 625.577,437.9173 628.0413,437.9173 L637.333,437.9173 C639.7973,437.9173 642.1607,436.9384 643.9032,435.1959 C645.6457,433.4533 646.6247,431.09 646.6247,428.6257 C646.6247,426.1613 645.6457,423.798 643.9032,422.0555 C642.1607,420.3129 639.7973,419.334 637.333,419.334 L628.0413,419.334 Z M764.722,533.529 L753.851,522.75 C757.325,516.685 758.716,509.648 757.81,502.717 C756.904,495.786 753.75,489.344 748.833,484.376 L748.833,484.376 C744.308,479.69 738.477,476.475 732.099,475.15 C725.721,473.826 719.092,474.453 713.075,476.95 C707.059,479.446 701.934,483.697 698.368,489.149 C694.802,494.6 692.96,500.999 693.083,507.512 C693.051,513.117 694.485,518.632 697.242,523.512 C699.999,528.391 703.985,532.465 708.802,535.329 C713.62,538.194 719.102,539.749 724.706,539.84 C730.31,539.932 735.841,538.557 740.749,535.851 L751.528,546.723 C752.391,547.594 753.419,548.285 754.551,548.757 C755.684,549.228 756.898,549.471 758.125,549.471 C759.351,549.471 760.566,549.228 761.698,548.757 C762.83,548.285 763.858,547.594 764.722,546.723 C765.593,545.859 766.284,544.831 766.756,543.699 C767.227,542.567 767.47,541.352 767.47,540.126 C767.47,538.899 767.227,537.685 766.756,536.552 C766.284,535.42 765.593,534.392 764.722,533.529 L764.722,533.529 Z M735.267,517.268 C732.613,519.764 729.107,521.153 725.464,521.153 C721.821,521.153 718.316,519.764 715.662,517.268 C713.104,514.665 711.669,511.162 711.666,507.512 C711.647,505.679 711.999,503.862 712.702,502.169 C713.405,500.476 714.443,498.943 715.755,497.663 C718.232,495.199 721.554,493.77 725.046,493.667 C726.925,493.552 728.807,493.826 730.575,494.472 C732.342,495.118 733.957,496.123 735.318,497.423 C736.679,498.723 737.757,500.29 738.484,502.026 C739.21,503.762 739.57,505.63 739.541,507.512 C739.464,511.202 737.927,514.71 735.267,517.268 L735.267,517.268 Z M683.791,456.501 L628.0413,456.501 C625.577,456.501 623.2137,457.48 621.4711,459.222 C619.7286,460.965 618.7497,463.328 618.7497,465.792 C618.7497,468.257 619.7286,470.62 621.4711,472.363 C623.2137,474.105 625.577,475.084 628.0413,475.084 L683.791,475.084 C686.256,475.084 688.619,474.105 690.362,472.363 C692.104,470.62 693.083,468.257 693.083,465.792 C693.083,463.328 692.104,460.965 690.362,459.222 C688.619,457.48 686.256,456.501 683.791,456.501 Z M665.208,512.251 C667.672,512.251 670.036,511.272 671.778,509.529 C673.521,507.787 674.5,505.423 674.5,502.959 C674.5,500.495 673.521,498.131 671.778,496.389 C670.036,494.646 667.672,493.667 665.208,493.667 L628.0413,493.667 C625.577,493.667 623.2137,494.646 621.4711,496.389 C619.7286,498.131 618.7497,500.495 618.7497,502.959 C618.7497,505.423 619.7286,507.787 621.4711,509.529 C623.2137,511.272 625.577,512.251 628.0413,512.251 L665.208,512.251 Z" transform="translate(-581 -363)"/>
</svg>
