<svg xmlns="http://www.w3.org/2000/svg" width="156" height="196" viewBox="0 0 156 196">
  <path fill="#FF6B00" d="M518.393,422.59 C517.26,421.6737 515.936,421.0229 514.519,420.6855 C513.102,420.348 511.627,420.3325 510.203,420.64 C499.784,422.8235 489.029,422.8513 478.599,420.7218 C468.17,418.5922 458.286,414.3504 449.558,408.2575 C447.925,407.1253 445.986,406.5186 444,406.5186 C442.014,406.5186 440.075,407.1253 438.443,408.2575 C429.714,414.3504 419.8305,418.5922 409.4009,420.7218 C398.9712,422.8513 388.2161,422.8235 377.7976,420.64 C376.3735,420.3325 374.8985,420.348 373.4812,420.6855 C372.0639,421.0229 370.7403,421.6737 369.6076,422.59 C368.4764,423.5077 367.5651,424.6671 366.9409,425.9832 C366.3166,427.2992 365.9951,428.7384 366.000043,430.195 L366.000043,502.833 C365.9914,516.812 369.3226,530.59 375.7163,543.022 C382.1099,555.453 391.3811,566.177 402.7576,574.3 L438.345,599.65 C439.996,600.826 441.973,601.458 444,601.458 C446.027,601.458 448.004,600.826 449.655,599.65 L485.243,574.3 C496.619,566.177 505.89,555.453 512.284,543.022 C518.678,530.59 522.009,516.812 522.000058,502.833 L522.000058,430.195 C522.005,428.7384 521.684,427.2992 521.059,425.9832 C520.435,424.6671 519.524,423.5077 518.393,422.59 Z M502.500018,502.833 C502.508,513.701 499.919,524.415 494.95,534.081 C489.981,543.748 482.775,552.088 473.933,558.408 L444,579.76 L414.0676,558.408 C405.2247,552.088 398.0189,543.748 393.05,534.081 C388.081,524.415 385.4926,513.701 385.500084,502.833 L385.500084,441.4075 C405.9402,443.157 426.4114,438.4145 444,427.855 C461.589,438.4145 482.06,443.157 502.500018,441.4075 L502.500018,502.833 Z M459.015,480.505 L432.788,506.83 L424.1101,498.055 C422.2741,496.219 419.784,495.188 417.1876,495.188 C414.5911,495.188 412.101,496.219 410.2651,498.055 C408.4291,499.891 407.3977,502.381 407.3977,504.978 C407.3977,507.574 408.4291,510.064 410.2651,511.9 L425.8651,527.5 C426.7714,528.414 427.85,529.139 429.038,529.634 C430.226,530.129 431.5,530.384 432.788,530.384 C434.075,530.384 435.349,530.129 436.537,529.634 C437.725,529.139 438.804,528.414 439.71,527.5 L473.25,494.253 C475.086,492.417 476.117,489.926 476.117,487.33 C476.117,484.7336 475.086,482.2435 473.25,480.4075 C471.414,478.5716 468.924,477.5401 466.328,477.5401 C463.731,477.5401 461.241,478.5716 459.405,480.4075 L459.015,480.505 Z" transform="translate(-366 -406)"/>
</svg>
