<?xml version="1.0" encoding="UTF-8"?>
<svg width="24px" height="20px" viewBox="0 0 24 20" version="1.1" xmlns="http://www.w3.org/2000/svg" xmlns:xlink="http://www.w3.org/1999/xlink">
    <title>swimming</title>
    <g id="a" stroke="none" stroke-width="1" fill="none" fill-rule="evenodd" stroke-linecap="round" stroke-linejoin="round">
        <g id="Artboard" transform="translate(-29.000000, -137.000000)" stroke-width="2">
            <g id="Stroke" transform="translate(30.000300, 138.500000)">
                <path d="M21,2.5 C21,3.881 19.881,5 18.5,5 C17.119,5 16,3.881 16,2.5 C16,1.119 17.119,0 18.5,0 C19.881,0 21,1.119 21,2.5 Z" stroke="#2A5491"></path>
                <path d="M0,14.8916 C1.125,15.9976 2.763,16.9996 5,16.9996 C10,16.9996 11,13.9996 16,13.9996 C18.313,13.9996 20.412,15.0706 22,16.2196" stroke="#8DCCF4"></path>
                <path d="M3,5 L4.877,4.625 C6.915,4.217 9.028,4.411 10.958,5.183 C12.306,5.722 13.529,6.529 14.556,7.556 L17,10" stroke="#2A5491"></path>
                <line x1="5" y1="13" x2="12.842" y2="6.159" stroke="#2A5491"></line>
            </g>
        </g>
    </g>
</svg>