<svg xmlns="http://www.w3.org/2000/svg" width="384" height="295" viewBox="0 0 384 295">
  <defs>
    <linearGradient id="team_success2-a" x1="46.019%" x2="51.369%" y1="5.161%" y2="67.831%">
      <stop offset="1%"/>
      <stop offset="8%" stop-opacity=".69"/>
      <stop offset="21%" stop-opacity=".32"/>
      <stop offset="100%" stop-opacity="0"/>
    </linearGradient>
    <linearGradient id="team_success2-b" x1="4.517%" x2="73.846%" y1="59.504%" y2="66.577%">
      <stop offset="1%"/>
      <stop offset="8%" stop-opacity=".69"/>
      <stop offset="21%" stop-opacity=".32"/>
      <stop offset="100%" stop-opacity="0"/>
    </linearGradient>
    <linearGradient id="team_success2-c" x1="36.604%" x2="68.482%" y1="-46.968%" y2="-170.365%">
      <stop offset="1%"/>
      <stop offset="8%" stop-opacity=".69"/>
      <stop offset="21%" stop-opacity=".32"/>
      <stop offset="100%" stop-opacity="0"/>
    </linearGradient>
  </defs>
  <g fill="none" fill-rule="evenodd">
    <path fill="#863399" fill-rule="nonzero" d="M2.47,194.61 C0.56,203.75 -0.74,213.02 0.47,222.24 C3.09,242.83 18,260.29 35.9,270.8 C57.47,283.46 80.9,285.72 104.63,290.13 C130.77,294.98 156.05,295.83 182.28,290.65 C197.5,287.65 212.54,283.01 228.03,282.65 C239.78,282.35 251.43,284.48 263.03,286.03 C302.45,291.29 373.62,294.38 382.75,243.48 C385.04,230.7 382.6,218.48 379.15,206.17 C377.666161,201.038304 375.26025,196.219705 372.05,191.95 C355.54,168.38 348.44,145.75 339.91,118.5 C333.06,96.59 320.49,73.59 298.5,67.02 C287.6,63.76 275.73,65.02 264.82,61.8 C243.03,55.27 230.5,32.94 212.51,19 C185.07,-2.22 146.92,-2.4 112.63,2.9 C102.5,4.46 92.15,6.52 83.49,12 C76.39,16.49 70.86,23 65.49,29.43 C57.3,39.08 49.1,48.8 42.85,59.77 C35.42,72.77 30.92,87.23 26.68,101.6 C18.38,129.74 10.9,158.1 4.24,186.68 C3.63,189.31 3.02,192 2.47,194.61 Z" opacity=".18"/>
    <path fill="url(#team_success2-a)" fill-rule="nonzero" d="M111.91,200 C107.86,202 103.81,205 102.91,209.39 C101.05,218.09 112.08,225.17 111.38,234.04 C111.01,238.79 107.38,242.51 104.66,246.43 C98.82,254.83 97.17,267.14 103.79,274.94 C109.15,281.26 118.55,282.94 126.62,281.03 C134.69,279.12 141.7,274.26 148.26,269.19 C161.06,259.29 173.92,247.81 189.93,245.47 C198.16,244.26 206.54,245.63 214.85,245.28 C220.593929,244.930379 226.305307,244.168416 231.94,243 L254.78,238.72 C258.5,238.02 262.46,237.2 265.12,234.51 C270.25,229.32 267.65,220.28 262.87,214.77 C250.09,200.02 227.52,199.14 208.29,202.54 C198.77,204.23 189.29,206.68 179.66,206.88 C155.32,207.33 137.1,187.81 111.91,200 Z"/>
    <path fill="#F99885" fill-rule="nonzero" d="M203.63,209.07 C198.63,207.95 199.63,215 198.32,217.62 C197.500991,218.956962 196.463219,220.146851 195.25,221.14 C194.029768,222.146613 193.230645,223.573619 193.01,225.14 C192.989387,225.434587 193.051745,225.729055 193.19,225.99 C193.442037,226.299942 193.796828,226.509269 194.19,226.58 C197.025227,227.41106 200.072284,227.109939 202.69,225.74 C203.930629,225.153942 204.958134,224.196336 205.63,223 C206.170356,221.737541 206.429682,220.372666 206.39,219 C206.49,216.08 207.79,210 203.63,209.07 Z"/>
    <path fill="#863399" fill-rule="nonzero" d="M199.25,223.58 C199.25,223.58 185.11,224.19 191.09,228.58 C197.07,232.97 206.03,227.49 206.9,226.48 C207.77,225.47 207.06,223.73 207.06,223.73 L199.25,223.58 Z"/>
    <path fill="#FFF" fill-rule="nonzero" d="M206.28,225.53 C205.02,227.07 198.38,229.13 195.44,228.92 C192.5,228.71 189.86,227.34 190.15,225.44 C190.44,223.54 195.63,219.11 196.6,219.129933 C197.57,219.15 198.36,221.4 200.32,221.87 C202.106405,222.160652 203.916551,221.510662 205.11,220.15 C205.475517,219.639941 206.155044,219.466894 206.72,219.74 C207.533206,221.625124 207.368735,223.78941 206.28,225.53 Z"/>
    <path fill="#F99885" fill-rule="nonzero" d="M220.69,211.86 C215.69,210.7 216.69,217.75 215.39,220.36 C214.571898,221.700526 213.534079,222.89385 212.32,223.89 C211.097353,224.893167 210.300474,226.322546 210.09,227.89 C210.0601,228.180764 210.119393,228.473743 210.26,228.73 C210.506642,229.047938 210.8634,229.261993 211.26,229.33 C214.099568,230.150124 217.145573,229.849461 219.77,228.49 C220.995231,227.903096 222.013451,226.958104 222.69,225.78 C223.231929,224.518293 223.488047,223.152328 223.44,221.78 C223.53,218.81 224.84,212.74 220.69,211.86 Z"/>
    <path fill="#863399" fill-rule="nonzero" d="M216.3,226.3 C216.3,226.3 202.15,226.89 208.14,231.3 C214.13,235.71 223.08,230.23 223.95,229.21 C224.82,228.19 224.11,226.46 224.11,226.46 L216.3,226.3 Z"/>
    <path fill="#FFF" fill-rule="nonzero" d="M223.33,228.22 C222.07,229.77 215.43,231.83 212.49,231.62 C209.55,231.41 206.91,230.04 207.19,228.14 C207.47,226.24 212.68,221.81 213.65,221.819983 C214.62,221.83 215.41,224.09 217.37,224.56 C219.1533,224.848986 220.959694,224.198986 222.15,222.84 C222.52258,222.34039 223.193838,222.169448 223.76,222.43 C224.579708,224.31291 224.418854,226.478831 223.33,228.22 Z"/>
    <path fill="#473F47" fill-rule="nonzero" d="M207.88,147.71 L214.52,217.63 L224.1,216.45 C227.89,199.39 226.96,148.34 226.96,148.34 L207.88,147.71 Z"/>
    <path fill="#473F47" fill-rule="nonzero" d="M214.52,145.82 L207.88,215.74 L198.28,214.56 C192.8,170.31 197.28,142.77 197.28,142.77 L214.52,145.82 Z"/>
    <path fill="#93D500" fill-rule="nonzero" d="M231.95,126 C231.95,126.71 231.87,127.42 231.81,128.12 C231.4,133.48 230.96,139.03 229.44,144.2 C228.96,145.82 228.44,147.45 226.95,148.32 C224.931246,149.318966 222.669428,149.721375 220.43,149.48 C218.25,149.37 216.04,148.98 214.2,148.72 C209.14,148 203.94,147.24 199.45,144.79 C198.523027,144.400498 197.76703,143.690641 197.32,142.79 C196.92,141.69 197.4,140.5 197.74,139.38 C199.26,134.38 198.08,129.13 198.08,124.03 C198.08,123.11 198.2,122.16 198.2,121.24 L198.2,120.55 C198.08,119.27 197.74,118 197.6,116.69 C197.309907,114.287397 197.330072,111.857458 197.66,109.46 L197.66,109.4 C197.674553,109.184778 197.704631,108.970888 197.75,108.76 C198.193869,105.961256 199.035725,103.240376 200.25,100.68 C201.35,98.46 203.35,97.52 205.59,96.41 C207.464218,95.4128062 209.492309,94.7367758 211.59,94.41 C213.080368,94.269653 214.583299,94.3505282 216.05,94.65 C220.56,95.51 226.51,97.84 229.59,101.4 C230.602434,102.619066 231.308734,104.062524 231.65,105.61 C232.067498,107.528308 232.272069,109.486823 232.26,111.45 C232.353333,116.29 232.25,121.14 231.95,126 Z"/>
    <path fill="#020202" fill-rule="nonzero" d="M231.95,126 C231.95,126.71 231.87,127.42 231.81,128.12 C231.4,133.48 230.96,139.03 229.44,144.2 C228.96,145.82 228.44,147.45 226.95,148.32 C224.931246,149.318966 222.669428,149.721375 220.43,149.48 C218.34,147.38 217.33,144.25 216.86,141.26 C216.3,137.7 216.27,134 214.97,130.64 C211.63,122 200.97,118 197.63,109.41 L197.63,109.34 L197.63,109.34 L213.63,112.59 C215.96,113.06 223.21,115.59 224.99,113.68 C225.91,112.68 225.99,110.58 226.91,109.39 C228.107745,107.943858 229.549529,106.71868 231.17,105.77 C231.31,105.68 231.45,105.59 231.6,105.51 C232.017498,107.428308 232.222069,109.386823 232.21,111.35 C232.336667,116.256667 232.25,121.14 231.95,126 Z" opacity=".1"/>
    <path fill="#93D500" fill-rule="nonzero" d="M171.63,82.25 C171.67466,83.2214825 171.846113,84.1829601 172.14,85.11 C173.167444,87.7979863 174.682903,90.2728971 176.61,92.41 C180.123733,96.7201102 183.876285,100.829889 187.85,104.72 C189.75,106.58 195.93,114.32 199.14,112.55 C200.2,111.97 200.33,110.55 200.45,109.33 C200.763046,106.750146 201.618448,104.265731 202.96,102.04 C203.62,100.86 204.36,99.72 205.09,98.57 C205.63,97.71 207.03,96.66 207.17,95.69 C206.88,97.69 191.22,89.08 190.1,88.42 C184.259415,84.9291528 178.632714,81.0923106 173.25,76.93 C172.078904,78.446234 171.50272,80.3383958 171.63,82.25 Z"/>
    <path fill="#F99885" fill-rule="nonzero" d="M207.9,87.33 C207.906687,85.9929801 207.990158,84.6574478 208.15,83.33 C208.27,82.17 208.46,81 208.69,79.85 C208.708568,79.156975 209.034782,78.5082123 209.58,78.08 C211.380571,76.9674786 213.463872,76.3980429 215.58,76.44 C218.201796,76.0322412 220.660125,77.8201173 221.08,80.44 C221.119847,80.6812932 221.139914,80.9254387 221.14,81.17 C221.46,84.11 220.69,87.04 220.27,89.96 C219.930122,92.2230982 219.809563,94.5137274 219.91,96.8 C218.804552,97.5296809 217.538092,97.9792914 216.22,98.11 C215.600884,98.1021535 214.986802,97.9975571 214.4,97.8 C214.069777,97.7392886 213.777862,97.5482823 213.59,97.27 C213.500593,97.0269821 213.479835,96.7640368 213.53,96.51 C213.53,96.27 213.59,96.04 213.59,95.79 L213.59,95.79 C213.68836,94.4570955 213.661576,93.1179058 213.51,91.79 C213.515254,91.6773539 213.471491,91.5679481 213.39,91.49 C213.302453,91.4602829 213.207547,91.4602829 213.12,91.49 L212.75,91.49 C212.084271,91.5400078 211.415729,91.5400078 210.75,91.49 C209.959148,91.417003 209.220908,91.0620798 208.67,90.49 C208.013423,89.5762995 207.73735,88.4433222 207.9,87.33 L207.9,87.33 Z"/>
    <path fill="#473F47" fill-rule="nonzero" d="M210.63,78.72 C210.165246,78.9095242 209.644754,78.9095242 209.18,78.72 C208.695739,78.4540617 208.294319,78.0595632 208.02,77.58 C207.808671,77.2508964 207.643781,76.8941966 207.53,76.52 C207.182899,74.9832763 207.770156,73.3859351 209.03,72.44 C210.295094,71.5205398 211.881493,71.1591733 213.42,71.44 C213.814636,71.1791274 214.261906,71.0084137 214.73,70.94 C216.527865,70.3937038 218.428896,70.2772442 220.28,70.6 C221.334053,70.9020257 222.321426,71.4008018 223.19,72.07 C224.039005,72.6225065 224.761495,73.3484044 225.31,74.2 C225.844542,75.2854241 226.18308,76.4567658 226.31,77.66 C226.592934,78.9549426 226.747018,80.2747076 226.77,81.6 C226.769356,82.1783313 226.660833,82.7514678 226.45,83.29 C226.185965,83.8866036 225.809045,84.426516 225.34,84.88 C224.655254,85.5806474 223.87405,86.1800195 223.02,86.66 C222.42,86.99 221.73,87.33 221.53,87.98 C221.470324,88.2864079 221.440186,88.597835 221.44,88.91 C221.407308,89.3661874 221.224455,89.7987043 220.92,90.14 C220.72,90.36 220.36,90.91 220.06,90.96 C219.76,91.01 219.5,90.67 219.41,90.37 C219.038706,89.0451484 219.13403,87.6329363 219.68,86.37 C220.048526,85.7626204 220.271033,85.0779862 220.33,84.37 C220.26,83.66 219.33,83.1 218.83,83.52 C218.33,83.94 218.28,84.96 217.71,84.76 C218.36,82.76 217.51,80.16 215.55,79.35 C214.500354,79.0306859 213.406936,78.8788222 212.31,78.9 C211.789141,78.7984065 211.260549,78.7415327 210.73,78.73 L210.63,78.72 Z"/>
    <path fill="#DE9F93" fill-rule="nonzero" d="M212.72,91.44 C214.271808,91.1492446 215.789737,90.7002326 217.25,90.1 C217.38,94.82 213.54,95.79 213.54,95.79 L213.54,95.79 C213.63836,94.4570955 213.611576,93.1179058 213.46,91.79 C213.465254,91.6773539 213.421491,91.5679481 213.34,91.49 C213.252453,91.4602829 213.157547,91.4602829 213.07,91.49 L212.72,91.49 L212.72,91.44 Z"/>
    <path fill="#A67C52" fill-rule="nonzero" d="M108.77,168.78 L109.37,166.47 L110.94,160.47 C110.982149,160.187547 111.111511,159.925326 111.31,159.72 C111.54,159.51 112.31,161.77 112.59,161.72 C114.302194,161.617941 116.020368,161.742349 117.7,162.09 C118.15,162.18 116.32,187.78 116.15,190.29 C115.78,196.04 116.09,207.43 116.93,207.36 C115.25,207.5 111.81,207.68 111.08,206.93 C109.77,205.62 112.01,197.19 109.57,187.29 C108.972699,184.859465 108.637453,182.371943 108.57,179.87 C108.48,176.3 107.87,172.32 108.77,168.78 Z"/>
    <path fill="#473F47" fill-rule="nonzero" d="M116.09,204.73 C116.427037,204.556937 116.782653,204.422742 117.15,204.33 C117.744266,204.352572 118.297665,204.638434 118.66,205.11 L126,212.02 C126.23,212.23 126.47,212.51 126.36,212.8 C126.25,213.09 126.02,213.12 125.8,213.19 C121.37,214.46 112.04,214.7 108.8,210.65 C108.094029,209.85723 107.732138,208.816347 107.794035,207.756607 C107.855931,206.696867 108.336537,205.705193 109.13,205 L109.43,204.76 C112.27,202.45 113.4,205.61 116.09,204.73 Z"/>
    <path fill="#EFAC88" fill-rule="nonzero" d="M120.8,197.26 C120.993034,196.916943 121.150518,196.555065 121.27,196.18 C121.67,194.9 121.37,193.56 121.46,192.27 C121.510097,191.587585 121.510097,190.902415 121.46,190.22 C121.33,188.47 121.1,186.71 120.88,184.97 C120.333413,181.995639 119.976029,178.989605 119.81,175.97 C119.81,173.68 121.67,166.47 121.67,166.47 L119.81,157.09 L129.2,157.09 C129.2,157.09 130.4,164.95 130.07,165.82 C129.392399,167.602361 128.987838,169.476827 128.87,171.38 C128.87,174.76 128.42,178.18 128.16,181.54 C127.873333,185.22 127.576667,188.886667 127.27,192.54 L126.94,196.54 C126.849073,198.48075 127.190643,200.417448 127.94,202.21 C128.25,203.03 128.57,204.03 128.01,204.69 C127.45,205.35 126.2,205.12 125.36,204.69 C124.203754,203.91855 122.982465,203.249351 121.71,202.69 C121.20396,202.578938 120.720431,202.382822 120.28,202.11 C119.509119,201.307806 119.321387,200.109515 119.81,199.11 C120.11,198.48 120.44,197.86 120.8,197.26 Z"/>
    <path fill="#473F47" fill-rule="nonzero" d="M124.51,60.93 C127.56,62.18 128.3,66.68 128.08,69.53 C127.81,73.1 124.82,76.67 125.85,80.25 C126.516775,82.0881971 126.832248,84.0353062 126.78,85.99 C126.58,87.93 125.38,89.92 123.49,90.38 C123.037107,90.4410689 122.593652,90.5586516 122.17,90.73 C121.619094,91.1098852 121.199779,91.6515008 120.97,92.28 C119.210894,95.8478258 116.106628,98.5708032 112.34,99.85 C108.509622,101.066023 104.320826,100.052542 101.47,97.22 C98.8,94.33 98.39,89.44 100.92,86.44 C101.65,85.58 102.62,84.78 102.69,83.66 C102.668028,83.1465548 102.590919,82.6369598 102.46,82.14 C102.163879,80.1539484 103.176067,78.2021602 104.97,77.3 C106.38,76.63 108.18,76.66 109.27,75.53 C110.36,74.4 110.19,72.26 110.09,70.53 C109.56,61.35 116.48,57.62 124.51,60.93 Z"/>
    <path fill="#863399" fill-rule="nonzero" d="M104.68,137.49 C103.95,144.65 105.23,151.96 106.51,159.09 C106.81,160.77 107.18,162.57 108.42,163.74 C109.399618,164.529312 110.568001,165.049742 111.81,165.25 C119.939315,167.135336 128.465809,166.244666 136.03,162.72 L134.11,144.93 C133.6,140.2 133.05,135.36 131.35,130.88 C131.04,130.05 126.14,121.82 127.29,121.11 C124.97,122.54 122.29,122.33 119.62,122.95 C116.471184,123.69036 113.441703,124.868491 110.62,126.45 C107.681435,127.752247 105.64781,130.508093 105.27,133.7 C105.008482,134.952382 104.811555,136.217386 104.68,137.49 L104.68,137.49 Z"/>
    <path fill="url(#team_success2-b)" fill-rule="nonzero" d="M104.68,137.49 C103.95,144.65 105.23,151.96 106.51,159.09 C106.81,160.77 107.18,162.57 108.42,163.74 C109.399618,164.529312 110.568001,165.049742 111.81,165.25 C119.939315,167.135336 128.465809,166.244666 136.03,162.72 L134.11,144.93 C133.6,140.2 133.05,135.36 131.35,130.88 C131.04,130.05 126.14,121.82 127.29,121.11 C124.97,122.54 122.29,122.33 119.62,122.95 C116.471184,123.69036 113.441703,124.868491 110.62,126.45 C107.681435,127.752247 105.64781,130.508093 105.27,133.7 C105.008482,134.952382 104.811555,136.217386 104.68,137.49 L104.68,137.49 Z"/>
    <path fill="#A67C52" fill-rule="nonzero" d="M124.36,79.82 C124.36,79.82 122,82.82 121.99,84.65 C121.963947,85.8686559 121.796152,87.080139 121.49,88.26 C121.49,88.26 121.12,90.47 119.9,89.61 C118.68,88.75 114.39,83 114.39,83 L119.07,76.71 L124.36,79.82 Z"/>
    <path fill="#863399" fill-rule="nonzero" d="M129.25,132.81 C129.25,132.81 128.01,128.48 126.42,123.32 C126.48,126.64 126.09,131.62 125.42,132.32 C124.9,132.85 117.74,134.52 113.81,134.37 C112.68,134.37 111.59,134.28 110.64,134.22 C108.76,134.12 107.44,134.03 107.44,134.03 C107.44,134.03 106.21,128.4 106.44,125.71 C106.67,123.02 109.86,116.9 110.23,115.31 C110.55,113.92 109.23,108.76 108.91,107.51 L108.83,107.23 C108.788329,106.078214 108.681492,104.92971 108.51,103.79 C108.009025,101.925165 107.641429,100.027035 107.41,98.11 C107.378746,96.8248313 107.271895,95.5426152 107.09,94.27 C106.91,93.27 106.57,92.27 106.35,91.27 C106.080032,90.3732104 106.080032,89.4167896 106.35,88.52 C106.901629,87.4653756 107.754447,86.5986344 108.8,86.03 C110.03,85.19 111.24,84.31 112.43,83.41 C113.43,82.63 114.83,82.03 115.49,80.86 C115.91,81.24 115.75,82.02 115.82,82.56 C116.111819,84.8003545 117.147095,86.8779491 118.76,88.46 C119.3384,89.1943283 120.290538,89.5260156 121.2,89.31 C121.610225,89.0924154 121.931954,88.738867 122.11,88.31 C122.78,86.88 122.32,85.2 121.83,83.71 L126.49,85.45 C127.300938,85.6489122 127.902967,86.33068 128,87.16 C128.87,90.35 129.64,93.58 130.29,96.82 C130.717373,98.4501309 130.842773,100.144718 130.66,101.82 C130.04,105.56 128.88,109.18 128.53,112.97 C128.260164,114.574922 128.380205,116.221197 128.88,117.77 C130.65,122.06 131.61,132.77 131.61,132.77 L129.25,132.81 Z"/>
    <path fill="#020202" fill-rule="nonzero" d="M111.83,123.19 C111.661922,123.778503 111.631132,124.397727 111.74,125 L110.74,126.93 C111.519007,128.349448 111.931468,129.940861 111.94,131.56 C111.853684,132.595378 111.356768,133.553202 110.56,134.22 C108.68,134.12 107.36,134.03 107.36,134.03 C107.36,134.03 106.13,128.4 106.36,125.71 C106.59,123.02 109.78,116.9 110.15,115.31 C110.47,113.92 109.15,108.76 108.83,107.51 C109.13,106.45 109.45,105.38 109.76,104.32 L111.76,97.67 C112.881501,100.022386 113.669102,102.519823 114.1,105.09 C114.341129,105.950799 114.528162,106.825842 114.66,107.71 C114.72,108.59 115.07,111.14 115.11,112.02 C115.042489,113.230934 114.700537,114.410668 114.11,115.47 C113.096951,117.961735 112.333222,120.547694 111.83,123.19 L111.83,123.19 Z" opacity=".1"/>
    <path fill="#863399" fill-rule="nonzero" d="M143.22,84.78 C148.92,82.58 153.92,78.95 159.15,75.78 C160.32,75.08 161.75,74.39 162.97,74.98 C164.077919,75.6892852 164.62192,77.0172866 164.33,78.3 C163.83,81.62 160.53,83.63 157.84,85.66 C153.33,89.05 149.84,93.57 145.56,97.29 C141.28,101.01 135.87,103.99 130.27,103.29 C129.521822,103.246256 128.802559,102.985654 128.2,102.54 C127.764284,102.139853 127.422748,101.648042 127.2,101.1 C125.91,98.28 123.49,88.01 127.2,86.25 C129,85.39 132.27,86.67 134.2,86.64 C137.29192,86.5489742 140.344294,85.9195491 143.22,84.78 L143.22,84.78 Z"/>
    <path fill="#A67C52" fill-rule="nonzero" d="M125.56,63.91 C125.665629,63.9704675 125.757565,64.0521891 125.83,64.15 C126.279435,64.9351456 126.58109,65.7960483 126.72,66.69 C127.95,71.04 129.63,75.2 127.23,79.53 C126.920894,80.2434828 126.268108,80.7491092 125.5,80.87 C123.734319,81.2356799 121.895873,80.9440889 120.33,80.05 C119.429505,79.6248787 118.554674,79.1473949 117.71,78.62 C117.31972,78.3715194 116.999554,78.0272558 116.78,77.62 C116.59,77.21 116.28,76.81 116.41,76.33 C116.546756,76.002939 116.666909,75.6691807 116.77,75.33 C116.838513,74.7968271 116.740726,74.255504 116.49,73.78 C116.371843,73.5703116 116.339583,73.3229807 116.4,73.09 C116.56,72.72 117.09,72.75 117.48,72.65 C118.139617,72.4003607 118.660361,71.8796167 118.91,71.22 C119.299675,70.439127 119.601521,69.617435 119.81,68.77 C119.921476,68.035687 120.129965,67.3194274 120.43,66.64 C121.015045,65.6996889 121.863533,64.9520461 122.87,64.49 C123.51,64.15 124.81,63.44 125.56,63.91 Z"/>
    <path fill="#8A3C1F" fill-rule="nonzero" d="M127.51,70.25 L127.9,69.91 C127.9,69.91 128.01,70.15 128.15,70.13 C128.274723,70.0965302 128.395434,70.0495872 128.51,69.99 C128.51,69.99 128.29,70.3 128.14,70.33 C127.933817,70.3500052 127.726183,70.3500052 127.52,70.33 L127.51,70.25 Z"/>
    <path fill="#8A3C1F" fill-rule="nonzero" d="M127.85,69.94 L128.01,69.64 C128.01,69.64 128.15,69.76 128.23,69.71 C128.297923,69.6586822 128.361474,69.6018208 128.42,69.54 C128.42,69.54 128.36,69.78 128.27,69.84 C128.143309,69.8994948 128.008519,69.939932 127.87,69.96 L127.85,69.94 Z"/>
    <path fill="#020202" fill-rule="nonzero" d="M164.03,136 C163.03,136.92 162.03,137.82 161.03,138.65 C159.190287,139.947144 157.473128,141.409909 155.9,143.019995 C154.558417,144.758836 153.389554,146.624327 152.41,148.59 C151.41,150.36 149.55,151.74 148.7,153.44 C146.80684,157.305057 145.998097,161.61144 146.36,165.9 C146.71,170.37 148.28,174.99 146.73,179.21 C146.423115,180.10451 145.913107,180.915731 145.24,181.58 C144.582349,182.148412 143.82669,182.592319 143.01,182.89 C141.261392,183.592323 139.471367,184.186772 137.65,184.67 C136.769566,184.94114 135.837343,184.999404 134.93,184.84 C134.41,184.74 133.09,183.84 132.73,183.84 C135.443502,183.45262 137.700692,181.556115 138.55,178.95 C139.18,176.95 138.87,174.77 138.88,172.66 C138.961235,170.211823 139.259065,167.775645 139.77,165.38 L141.63,155.17 C142.32,151.4 143.44,148.35 146.21,145.68 C149.59,142.43 152.28,138.54 156.05,135.61 C158.95,133.35 162.22,131.61 165.29,129.61 C169.62,126.73 173.03,123.1 177.38,120.51 C179.92,118.99 181.57,116.38 183.12,113.87 L191.39,100.519995 C192.445731,100.517768 193.32138,101.336499 193.39,102.39 C193.428473,103.397065 193.193488,104.39575 192.71,105.28 C190.79,109.64 188.65,113.92 186.42,118.12 C184.57,121.61 181.57,122.43 178.14,124.18 C172.57,126.92 168.54,131.77 164.03,136 Z" opacity=".1"/>
    <path d="M200.72,94.29 C199.49066,95.6687154 199.266126,97.6734847 200.16,99.29 C201.069894,100.857746 202.342045,102.184762 203.87,103.16 C210.512069,108.073828 217.927111,111.845563 225.81,114.32 C226.866158,114.741542 228.009114,114.899428 229.14,114.78 C233.14,114.09 232.97,109.36 231.68,106.55 C230.46,103.9 229.08,102.66 226.15,102.33 C221.57,101.8 217.39,101.71 212.98,100.13 C208.752931,98.4929158 204.654746,96.540762 200.72,94.29 L200.72,94.29 Z"/>
    <path fill="#863399" fill-rule="nonzero" d="M105.68,89.79 C105.459395,90.7051762 105.299051,91.633836 105.2,92.57 C104.914526,94.8097296 104.425845,97.0188373 103.74,99.17 L97.49,95.77 C95.98,94.96 91.81,93.44 90.63,95.67 C89.45,97.9 93.8,101.98 95.16,103.36 C97.6524132,105.783976 100.28351,108.061144 103.04,110.18 C103.570323,110.663869 104.213112,111.007607 104.91,111.18 C106.151645,111.232825 107.351613,110.726417 108.18,109.8 C110.151954,108.246938 111.642982,106.166433 112.48,103.8 C113.21,101.27 112.73,98.57 112.21,95.99 C111.52,92.55 110.45,88.7 107.34,87.1 C106.488239,87.7741706 105.90064,88.7263643 105.68,89.79 Z"/>
    <path fill="#A67C52" fill-rule="nonzero" d="M90.54,91.9 C88.7943407,91.0267302 86.8718462,90.5649211 84.92,90.55 C84.6982556,90.5090973 84.4691958,90.5443373 84.27,90.65 C84.1164129,90.7710321 84.001681,90.9344382 83.94,91.12 C82.9797787,93.3821073 83.1012258,95.9582596 84.27,98.12 C84.67,98.84 85.18,99.5 85.58,100.22 C85.8532468,100.804244 86.1885061,101.357421 86.58,101.87 C87.2194834,102.531234 88.0906674,102.918427 89.01,102.95 C89.9225441,102.968105 90.8255982,102.762085 91.64,102.35 C92.4119718,102.078125 93.0117093,101.459877 93.26,100.68 C93.44,99.68 92.87,98.81 93.07,97.82 C93.3168673,97.2026162 93.47185,96.552363 93.53,95.89 C93.2072531,94.1677438 92.1023609,92.6933224 90.54,91.9 L90.54,91.9 Z"/>
    <path fill="#262836" fill-rule="nonzero" d="M119.91 266.67L119.97 266.87C120.37 267.87 121.62 268.22 122.7 268.35 123.695922 268.461467 124.698025 268.508232 125.7 268.49 126.177936 268.503692 126.654724 268.436063 127.11 268.29 127.543487 268.110827 127.947913 267.868172 128.31 267.57L131.22 265.41C132.037912 264.835256 132.783323 264.163715 133.44 263.41 134.10632 262.655086 134.463416 261.676643 134.44 260.67 134.36965 259.65335 133.669943 258.789711 132.69 258.51 132.082628 258.429921 131.467372 258.429921 130.86 258.51 129.62 258.57 127.86 258.05 127.4 256.79 127.27692 256.245512 126.982511 255.754829 126.56 255.39 126.140404 255.187715 125.665256 255.131402 125.21 255.23 124.186047 255.267239 123.174045 255.462893 122.21 255.81 121.244354 256.167506 120.488872 256.937658 120.15 257.91 120.050171 258.356053 120.009821 258.813358 120.03 259.27 120.080008 260.216006 120.080008 261.163994 120.03 262.11 119.888364 263.297962 119.821565 264.493654 119.83 265.69 119.811466 266.018791 119.838387 266.348568 119.91 266.67zM148.17 267C146.223783 267.900214 144.219266 268.668612 142.17 269.3 141.35002 269.648135 140.434688 269.701146 139.58 269.45 138.887605 269.109793 138.382044 268.479674 138.2 267.73 138.013433 266.995333 137.935937 266.23722 137.97 265.48 138.107265 264.310087 138.351624 263.155243 138.7 262.03 138.88 261.03 139.02 259.94 139.17 258.89 139.38 257.39 139.58 255.89 139.76 254.38L145 255.5C145.55 255.62 146.07 257.73 146.4 258.18 146.898738 258.845478 147.66921 259.252728 148.5 259.29 149.398026 259.161688 150.303037 259.088219 151.21 259.07 152.402168 259.359384 153.251243 260.413549 153.28 261.64 153.26925 262.840556 152.758221 263.982217 151.87 264.79 150.981461 265.584228 149.967813 266.226205 148.87 266.69L148.17 267z"/>
    <path fill="#863399" fill-rule="nonzero" d="M148.26,261.19 C146.880312,261.967375 145.450496,262.652217 143.98,263.24 L143.84,263.29 C141.41,264.24 138.69,260.44 138.69,260.44 C138.69,260.44 135.27,239.26 135.42,230.49 C135.53,224.49 134.11,215.88 131.96,200.3 C131.41,216.22 128.72,223.2 129.41,228.91 C130.46,237.58 129.21,259.13 129.21,259.13 C129.21,259.13 126.92,263.32 124.4,262.76 L124.25,262.76 C122.736381,262.40823 121.249379,261.950434 119.8,261.39 C119.8,261.39 116.87,231.73 116.87,223.89 C116.87,216.05 117.2,209.07 117.2,209.07 L115.63,184.26 L122.17,174.77 L122.7,174.55 L123.21,174.05 L130.45,168.74 C130.45,168.74 130.45,169.98 130.31,172.1 L135.93,175.1 L136.48,175.51 L137.02,175.64 L146.44,177.32 C146.44,177.32 148.91,215.32 149.71,223.1 C150.51,230.88 148.26,261.19 148.26,261.19 Z"/>
    <path fill="url(#team_success2-c)" fill-rule="nonzero" d="M148.26,261.19 C146.880312,261.967375 145.450496,262.652217 143.98,263.24 L143.84,263.29 C141.41,264.24 138.69,260.44 138.69,260.44 C138.69,260.44 135.27,239.26 135.42,230.49 C135.53,224.49 134.11,215.88 131.96,200.3 C131.41,216.22 128.72,223.2 129.41,228.91 C130.46,237.58 129.21,259.13 129.21,259.13 C129.21,259.13 126.92,263.32 124.4,262.76 L124.25,262.76 C122.736381,262.40823 121.249379,261.950434 119.8,261.39 C119.8,261.39 116.87,231.73 116.87,223.89 C116.87,216.05 117.2,209.07 117.2,209.07 L115.63,184.26 L122.17,174.77 L122.7,174.55 L123.21,174.05 L130.45,168.74 C130.45,168.74 130.45,169.98 130.31,172.1 L135.93,175.1 L136.48,175.51 L137.02,175.64 L146.44,177.32 C146.44,177.32 148.91,215.32 149.71,223.1 C150.51,230.88 148.26,261.19 148.26,261.19 Z"/>
    <path fill="#FDB9A9" fill-rule="nonzero" d="M140.44,111.21 C141.03,111.81 141.93,112.41 141.68,113.21 C141.54,113.63 141.1,113.87 140.76,114.21 C139.931956,115.081265 139.488753,116.248726 139.53,117.45 C139.559868,118.639675 139.390878,119.825987 139.03,120.96 C138.613586,122.1297 137.428237,122.841746 136.2,122.66 C135.51,122.47 134.83,121.87 134.2,122.15 C133.57,122.43 133.53,122.99 133.27,123.46 C132.505946,124.600554 131.161099,125.209029 129.8,125.03 C128.46591,124.839884 127.179907,124.398775 126.01,123.73 C125.50706,123.526304 125.075622,123.17837 124.77,122.73 C124.567403,122.310075 124.517883,121.832562 124.63,121.38 C125.041888,120.01902 125.7219,118.754199 126.63,117.66 C128.068709,115.451347 128.931606,112.917661 129.14,110.29 C129.28,108.46 129.14,106.44 130.32,105.03 C131.91,103.11 135.76,103.12 137.75,104.53 C139.91,106 138.63,109.32 140.44,111.21 Z"/>
    <path fill="#FF681C" fill-rule="nonzero" d="M138.08,102.92 C137.852523,103.373176 137.507066,103.756634 137.08,104.03 C136.21,104.54 135.46,105.15 134.61,105.71 C133.809368,106.245236 133.246786,107.0694 133.04,108.01 C132.69,109.71 133.62,111.58 133.09,113.26 C132.88,113.6 132.32,113.39 132.09,113.06 C131.86,112.73 131.75,112.31 131.41,112.11 C130.84,111.78 130.13,112.34 129.88,112.95 C129.369079,114.447261 130.108653,116.083952 131.57,116.69 C131.49,117.22 130.79,117.44 130.25,117.36 C129.716502,117.210384 129.163983,117.139635 128.61,117.15 C127.36,117.38 126.89,119.15 125.61,119.34 C124.73838,119.278335 123.94277,118.821597 123.45,118.1 L121.94,116.37 C121.697874,116.042827 121.430382,115.735212 121.14,115.45 C120.8,115.19 120.23,115.17 119.95,114.85 C119.67,114.53 119.95,113.78 119.65,113.39 C119.499437,113.250123 119.322719,113.141373 119.13,113.07 C118.22982,112.616481 117.770778,111.594067 118.03,110.62 C118.060053,110.501882 118.060053,110.378118 118.03,110.26 C117.98,110.09 117.79,110.02 117.63,109.94 C116.679281,109.327375 116.318196,108.112431 116.78,107.08 C117.012668,106.507902 117.352033,105.985281 117.78,105.54 C118.114125,105.041107 118.706329,104.78007 119.3,104.87 L119.53,102.69 C119.551024,102.246378 119.659787,101.811325 119.85,101.41 C120.489798,100.61159 121.467312,100.159861 122.49,100.19 L121.99,98.38 C121.89029,98.1538356 121.89029,97.8961644 121.99,97.67 C122.120205,97.5040355 122.310691,97.3962137 122.52,97.37 C123.10493,97.2094678 123.704693,97.1089488 124.31,97.07 C124.080371,96.5679499 123.909247,96.0411552 123.8,95.5 C123.76047,95.4004472 123.76047,95.2895528 123.8,95.19 C123.897843,94.9862458 124.116103,94.8690321 124.34,94.9 C124.561551,94.9399014 124.788449,94.9399014 125.01,94.9 C125.01,94.9 124.68,93.38 124.66,93.24 C124.558055,92.760531 124.651641,92.2602034 124.92,91.85 C125.279063,91.4207448 125.837354,91.2118607 126.39,91.3 C126.933108,91.3914973 127.454978,91.5812682 127.93,91.86 C127.93,91.27 128.63,90.97 129.23,90.93 C131.509612,90.7995036 133.696366,91.8494475 135.02,93.71 C135.123741,93.8720834 135.248117,94.01999 135.39,94.15 C135.653187,94.3308567 135.948467,94.4598299 136.26,94.53 C137.214063,94.9578499 137.92603,95.7909251 138.2,96.8 C138.449384,97.7793844 138.550508,98.7906263 138.5,99.8 C138.52495,100.582315 138.454429,101.364754 138.29,102.13 C138.240023,102.398252 138.169823,102.662339 138.08,102.92 L138.08,102.92 Z"/>
    <path fill="#FFF" fill-rule="nonzero" d="M129.8,121.79 C131.174009,122.372009 132.509988,123.039999 133.8,123.79 C134.196682,124.002369 134.53892,124.303538 134.8,124.67 C135.089055,125.076025 135.142282,125.604488 134.94,126.06 C134.58,126.69 133.75,126.46 133.12,126.24 C130.187781,125.243887 127.092464,124.816245 124,124.98 C123.576848,125.039011 123.155175,124.862675 122.9,124.52 C122.748392,124.110049 122.792596,123.653273 123.02,123.28 C124.63,120.11 127.23,120.62 129.8,121.79 Z"/>
    <path fill="#FFF" fill-rule="nonzero" d="M175.04,125.75 C171.59,127.75 168.13,129.66 165.47,132.57 C163.47,134.74 162.06,137.36 160.06,139.5 C158.06,141.64 155.56,143.27 153.38,145.23 C149.13,149.06 146.83,156.3 146.33,161.91 C146.219983,163.241064 146.219983,164.578936 146.33,165.91 C146.68,170.38 148.25,175 146.7,179.22 C146.393115,180.11451 145.883107,180.925731 145.21,181.59 C144.552349,182.158412 143.79669,182.602319 142.98,182.9 C141.548606,183.487775 140.05601,183.913752 138.53,184.17 C137.654228,184.326391 136.768868,184.423279 135.88,184.46 C132.62,184.58 129.38,183.94 126.13,184.11 C123.36,184.25 120.62,184.96 117.85,184.87 C116.813776,184.94749 115.79626,184.563177 115.07,183.82 C114.760356,183.338005 114.568516,182.78989 114.51,182.22 C113.41939,176.281569 112.86051,170.257713 112.84,164.22 C112.846896,160.281821 112.60307,156.347197 112.11,152.44 C111.38,147.08 107.79,142.64 105.11,138.08 C103.53,135.43 101.95,132.77 100.21,130.21 C98.47,127.65 96.7,125.38 95.13,122.85 C93.2490863,119.628164 91.5789206,116.287833 90.13,112.85 C89.03,110.43 87.94,108 87.07,105.48 L90.86,102.34 C94.73,105.46 96.86,110.18 100.04,114.03 C102.756977,117.167283 105.88918,119.919315 109.35,122.21 C110.977798,123.477528 112.815777,124.448983 114.78,125.08 C117.500471,125.690183 120.338694,125.509758 122.96,124.56 C129.82,122.21 137.47,126.89 144.51,126.14 C148.61,125.71 152.35,123.54 156.16,122.14 C160.51,120.49 164.93,119 169.39,117.69 C170.361266,117.458141 171.291817,117.080526 172.15,116.57 C172.838081,116.051858 173.459461,115.45063 174,114.78 C178.378534,109.718278 183.01116,104.882057 187.88,100.29 C188.122411,100.010974 188.448705,99.8180046 188.81,99.74 C189.173508,99.7486206 189.524408,99.8749445 189.81,100.1 L193.11,102.1 C192.530709,105.077587 191.308987,107.893008 189.53,110.35 C188.43888,111.689849 187.417526,113.085032 186.47,114.53 C185.2,116.75 184.69,119.29 182.67,120.95 C180.266391,122.762032 177.713979,124.367743 175.04,125.75 L175.04,125.75 Z"/>
    <path fill="#FDB9A9" fill-rule="nonzero" d="M83.05,101.33 C82.7177378,100.9406 82.5119419,100.459247 82.46,99.95 C82.4062112,99.4178091 82.7807454,98.937524 83.31,98.86 C82.6901743,96.8715231 82.5395684,94.7664628 82.87,92.71 C82.9384497,92.0344258 83.198682,91.3925194 83.62,90.86 C84.2706289,90.2851938 85.12366,89.9936515 85.99,90.05 C86.4492948,89.9924921 86.9127554,90.1182372 87.28,90.4 C87.4582522,90.5932534 87.5944576,90.8213975 87.68,91.07 C88.952092,94.0698987 90.0571164,97.1379272 90.99,100.26 C91.3695819,101.236232 91.4800955,102.296472 91.31,103.33 C90.04,108.23 84.72,103.56 83.05,101.33 Z"/>
    <path fill="#93D500" fill-rule="nonzero" d="M216.99,122.14 C215.690139,121.753216 214.473008,121.129394 213.4,120.3 C208.153333,116.686667 202.993333,112.946667 197.92,109.08 C196.54,108.02 195.03,106.72 194.97,104.98 C194.91,103.07 196.73,101.53 198.62,101.22 C200.526205,101.055633 202.443909,101.354095 204.21,102.09 L215.7,105.84 C216.217173,106.058849 216.785389,106.128144 217.34,106.04 C217.972129,105.799028 218.504257,105.351477 218.85,104.77 C220.5,102.66 222.65,100.59 225.33,100.46 C231.83,100.15 233.42,109.25 231.06,113.8 C228.99,117.78 221.46,123.17 216.99,122.14 Z"/>
    <path fill="#A67C52" fill-rule="nonzero" d="M164.51,66.53 C164.848247,65.9286396 165.514755,65.5894697 166.2,65.67 C167.09,65.86 167.47,66.9 167.65,67.79 C168.190117,70.5875016 168.190117,73.4624984 167.65,76.26 C167.588972,76.6778974 167.460643,77.0831475 167.27,77.46 C166.988671,77.8896947 166.612308,78.2489497 166.17,78.51 C163.64,80.16 160.47,78.46 161.5,75.4 C161.94,74.11 162.74,72.98 163.16,71.67 C163.72,70.07 163.63,68 164.51,66.53 Z"/>
    <path fill="#F99885" fill-rule="nonzero" d="M170.86 72.2C170.42 70.29 170.04 68.2 168.69 66.82 168.574405 66.6803907 168.426923 66.5706366 168.26 66.5 167.797171 66.3985206 167.332042 66.6612324 167.18 67.11 167.044249 67.5465041 167.010045 68.0082584 167.08 68.46 167.21241 70.2831369 167.077653 72.1158384 166.68 73.9 166.313202 75.0280153 166.177168 76.2183126 166.28 77.4 166.709435 78.8436269 167.580181 80.1165258 168.77 81.04 169.47 81.7 170.4 82.42 171.29 82.04 171.527305 81.9324658 171.741314 81.7796022 171.92 81.59 172.92 80.59 173.99 78.42 173.29 77.01 172.92 76.27 172.11 75.71 171.73 74.9 171.34155 74.0347482 171.049784 73.1292665 170.86 72.2L170.86 72.2zM201.63 99.58C201.996134 101.340731 201.793018 103.172273 201.05 104.81 200.26512 106.172727 198.849502 107.051386 197.28 107.15 195.716435 107.2137 194.233403 106.455116 193.37 105.15 192.648803 103.89006 192.430888 102.403951 192.76 100.99 193.090231 99.6004502 193.590679 98.2569637 194.25 96.99 195.04 95.3 196.25 91.24 198.83 92.59 200.63 93.51 201.63 97.72 201.63 99.58z"/>
    <path fill="#FDB9A9" fill-rule="nonzero" d="M194.05,92.09 C194.78,91.09 196.05,90.23 197.19,90.64 C198.33,91.05 198.8,92.73 198.81,94.08 C198.82691,97.0599271 198.25249,100.013604 197.12,102.77 C196.948485,103.236859 196.70191,103.672589 196.39,104.06 C195.68,104.85 193.08,105.76 192.11,105.06 C191.34,104.48 191.11,102.06 191.11,101.11 C191.230344,97.8881164 192.248636,94.7639678 194.05,92.09 L194.05,92.09 Z"/>
  </g>
</svg>
