<?xml version="1.0" encoding="UTF-8"?>
<svg width="399px" height="341px" viewBox="0 0 399 341" version="1.1" xmlns="http://www.w3.org/2000/svg" xmlns:xlink="http://www.w3.org/1999/xlink">
    <title>team_meeting (1)</title>
    <defs>
        <linearGradient x1="148.682114%" y1="38.4942461%" x2="-68.0846717%" y2="63.7695008%" id="linearGradient-1">
            <stop stop-color="#000000" stop-opacity="0" offset="0%"></stop>
            <stop stop-color="#000000" offset="99%"></stop>
        </linearGradient>
        <linearGradient x1="94.0868783%" y1="54.7893209%" x2="-60.2059581%" y2="38.0291372%" id="linearGradient-2">
            <stop stop-color="#FFFFFF" stop-opacity="0" offset="2%"></stop>
            <stop stop-color="#FFFFFF" stop-opacity="0.39" offset="32%"></stop>
            <stop stop-color="#FFFFFF" stop-opacity="0.68" offset="68%"></stop>
            <stop stop-color="#FFFFFF" offset="100%"></stop>
        </linearGradient>
        <linearGradient x1="51.4806369%" y1="31.6592795%" x2="45.7601224%" y2="78.0558467%" id="linearGradient-3">
            <stop stop-color="#000000" stop-opacity="0" offset="0%"></stop>
            <stop stop-color="#000000" offset="99%"></stop>
        </linearGradient>
        <linearGradient x1="54.4497405%" y1="19.2082551%" x2="42.8793561%" y2="101.172193%" id="linearGradient-4">
            <stop stop-color="#000000" stop-opacity="0" offset="0%"></stop>
            <stop stop-color="#000000" offset="99%"></stop>
        </linearGradient>
        <linearGradient x1="14.1491207%" y1="33.8132192%" x2="197.451594%" y2="97.7875573%" id="linearGradient-5">
            <stop stop-color="#000000" stop-opacity="0" offset="0%"></stop>
            <stop stop-color="#000000" offset="99%"></stop>
        </linearGradient>
        <linearGradient x1="50.0409235%" y1="33.8008451%" x2="50.2980854%" y2="122.517908%" id="linearGradient-6">
            <stop stop-color="#000000" stop-opacity="0" offset="0%"></stop>
            <stop stop-color="#000000" offset="99%"></stop>
        </linearGradient>
        <linearGradient x1="40.3126881%" y1="58.2750504%" x2="70.9685289%" y2="28.8774519%" id="linearGradient-7">
            <stop stop-color="#000000" stop-opacity="0" offset="0%"></stop>
            <stop stop-color="#000000" offset="99%"></stop>
        </linearGradient>
        <linearGradient x1="28.9237256%" y1="-3.8371662%" x2="101.725359%" y2="167.048184%" id="linearGradient-8">
            <stop stop-color="#000000" stop-opacity="0" offset="0%"></stop>
            <stop stop-color="#000000" offset="99%"></stop>
        </linearGradient>
        <linearGradient x1="47.8211658%" y1="72.3015604%" x2="52.6127146%" y2="23.2705984%" id="linearGradient-9">
            <stop stop-color="#000000" stop-opacity="0" offset="0%"></stop>
            <stop stop-color="#000000" offset="99%"></stop>
        </linearGradient>
        <linearGradient x1="-28.4578696%" y1="49.6158133%" x2="133.306836%" y2="50.43221%" id="linearGradient-10">
            <stop stop-color="#FFFFFF" stop-opacity="0" offset="2%"></stop>
            <stop stop-color="#FFFFFF" stop-opacity="0.39" offset="32%"></stop>
            <stop stop-color="#FFFFFF" stop-opacity="0.68" offset="68%"></stop>
            <stop stop-color="#FFFFFF" offset="100%"></stop>
        </linearGradient>
        <linearGradient x1="0%" y1="49.9607227%" x2="100%" y2="49.9607227%" id="linearGradient-11">
            <stop stop-color="#FFFFFF" stop-opacity="0" offset="2%"></stop>
            <stop stop-color="#FFFFFF" stop-opacity="0.39" offset="32%"></stop>
            <stop stop-color="#FFFFFF" stop-opacity="0.68" offset="68%"></stop>
            <stop stop-color="#FFFFFF" offset="100%"></stop>
        </linearGradient>
        <linearGradient x1="41.9693292%" y1="4.80794455%" x2="47.2469169%" y2="44.9264298%" id="linearGradient-12">
            <stop stop-color="#FFFFFF" stop-opacity="0" offset="0%"></stop>
            <stop stop-color="#FFFFFF" stop-opacity="0.39" offset="32%"></stop>
            <stop stop-color="#FFFFFF" stop-opacity="0.68" offset="68%"></stop>
            <stop stop-color="#FFFFFF" offset="100%"></stop>
        </linearGradient>
        <linearGradient x1="-0.0539939964%" y1="50.0654357%" x2="99.9880847%" y2="50.0654357%" id="linearGradient-13">
            <stop stop-color="#E5C5D5" offset="0%"></stop>
            <stop stop-color="#EAD4D1" offset="42%"></stop>
            <stop stop-color="#F0E9CB" offset="100%"></stop>
        </linearGradient>
        <linearGradient x1="0.0782316448%" y1="49.9315707%" x2="100.035313%" y2="49.9315707%" id="linearGradient-14">
            <stop stop-color="#E5C5D5" offset="0%"></stop>
            <stop stop-color="#EAD4D1" offset="42%"></stop>
            <stop stop-color="#F0E9CB" offset="100%"></stop>
        </linearGradient>
        <linearGradient x1="-0.701628335%" y1="50.0102661%" x2="99.7364277%" y2="50.0102661%" id="linearGradient-15">
            <stop stop-color="#E5C5D5" offset="0%"></stop>
            <stop stop-color="#EAD4D1" offset="42%"></stop>
            <stop stop-color="#F0E9CB" offset="100%"></stop>
        </linearGradient>
        <linearGradient x1="0.0595285415%" y1="49.9348626%" x2="99.9442421%" y2="49.9348626%" id="linearGradient-16">
            <stop stop-color="#E5C5D5" offset="0%"></stop>
            <stop stop-color="#EAD4D1" offset="42%"></stop>
            <stop stop-color="#F0E9CB" offset="100%"></stop>
        </linearGradient>
        <linearGradient x1="0.102378033%" y1="50.0493868%" x2="100.114958%" y2="50.0493868%" id="linearGradient-17">
            <stop stop-color="#E5C5D5" offset="0%"></stop>
            <stop stop-color="#EAD4D1" offset="42%"></stop>
            <stop stop-color="#F0E9CB" offset="100%"></stop>
        </linearGradient>
        <linearGradient x1="-0.122609536%" y1="50.1205732%" x2="99.7251491%" y2="50.1205732%" id="linearGradient-18">
            <stop stop-color="#E5C5D5" offset="0%"></stop>
            <stop stop-color="#EAD4D1" offset="42%"></stop>
            <stop stop-color="#F0E9CB" offset="100%"></stop>
        </linearGradient>
        <linearGradient x1="-0.0420858624%" y1="49.952079%" x2="100.028463%" y2="49.952079%" id="linearGradient-19">
            <stop stop-color="#E5C5D5" offset="0%"></stop>
            <stop stop-color="#EAD4D1" offset="42%"></stop>
            <stop stop-color="#F0E9CB" offset="100%"></stop>
        </linearGradient>
        <linearGradient x1="-1.60864449e-13%" y1="49.9903788%" x2="99.6710965%" y2="49.9903788%" id="linearGradient-20">
            <stop stop-color="#E5C5D5" offset="0%"></stop>
            <stop stop-color="#EAD4D1" offset="42%"></stop>
            <stop stop-color="#F0E9CB" offset="100%"></stop>
        </linearGradient>
        <linearGradient x1="-0.143367081%" y1="49.4690503%" x2="99.8724901%" y2="49.4690503%" id="linearGradient-21">
            <stop stop-color="#E5C5D5" offset="0%"></stop>
            <stop stop-color="#EAD4D1" offset="42%"></stop>
            <stop stop-color="#F0E9CB" offset="100%"></stop>
        </linearGradient>
        <linearGradient x1="-0.120025621%" y1="50.0340243%" x2="100.08465%" y2="50.0340243%" id="linearGradient-22">
            <stop stop-color="#E5C5D5" offset="0%"></stop>
            <stop stop-color="#EAD4D1" offset="42%"></stop>
            <stop stop-color="#F0E9CB" offset="100%"></stop>
        </linearGradient>
        <linearGradient x1="-0.040611315%" y1="50.0445753%" x2="99.9964003%" y2="50.0445753%" id="linearGradient-23">
            <stop stop-color="#E5C5D5" offset="0%"></stop>
            <stop stop-color="#EAD4D1" offset="42%"></stop>
            <stop stop-color="#F0E9CB" offset="100%"></stop>
        </linearGradient>
        <linearGradient x1="-0.0384271453%" y1="49.9556818%" x2="99.994361%" y2="49.9556818%" id="linearGradient-24">
            <stop stop-color="#E5C5D5" offset="0%"></stop>
            <stop stop-color="#EAD4D1" offset="42%"></stop>
            <stop stop-color="#F0E9CB" offset="100%"></stop>
        </linearGradient>
        <linearGradient x1="0%" y1="50.0370096%" x2="100%" y2="50.0370096%" id="linearGradient-25">
            <stop stop-color="#000000" stop-opacity="0" offset="0%"></stop>
            <stop stop-color="#000000" offset="99%"></stop>
        </linearGradient>
    </defs>
    <g id="6---Full-Width---2560px" stroke="none" stroke-width="1" fill="none" fill-rule="evenodd">
        <g id="Front-Page" transform="translate(-46.000000, -928.000000)" fill-rule="nonzero">
            <g id="team_meeting-(1)" transform="translate(46.000000, 928.000000)">
                <path d="M93.73,21.02 C67.17,39.74 45.6,67.76 41.49,100.02 C40.49,108.09 40.49,116.29 38.95,124.27 C33.13,153.74 6.09,175.72 0.95,205.27 C-3.72,231.86 10.31,257.93 25.3,280.39 C31.88,290.24 38.93,300.09 48.55,306.99 C57.71,313.56 68.66,317.07 79.41,320.48 C124.64,334.82 173.98,349.14 218.48,332.67 C230.33,328.28 241.48,321.79 253.88,319.31 C270.72,315.95 288.03,320.31 305.19,320.98 C329.97,321.9 355.52,314.38 373.9,297.75 C392.28,281.12 402.38,254.91 397.18,230.68 C394.47,218.14 387.99,206.74 384.18,194.47 C380.684888,183.058105 379.575214,171.049119 380.92,159.19 C382.05,149.33 384.87,139.53 383.92,129.67 C382.51,115.54 373.49,103.32 363.37,93.36 C353.25,83.4 341.67,74.85 332.85,63.73 C323.63,52.12 318.57,37.52 308.85,26.3 C274.64,-13.31 237.06,11.85 210.44,11.18 C198.38,10.85 118.63,3.48 93.73,21.02 Z" id="Path" fill="#853694" opacity="0.18"></path>
                <rect id="Rectangle" fill="url(#linearGradient-1)" x="78.52" y="73.72" width="244.71" height="194.77" rx="43.47"></rect>
                <path d="M115.22,270.1 C115.22582,270.940677 115.542892,271.749388 116.11,272.37 C116.703152,272.756155 117.403098,272.94514 118.11,272.91 C129.65,273.576667 141.2,273.693333 152.76,273.26 C154.055589,273.327025 155.338491,272.976506 156.42,272.26 C157.144362,271.564737 157.675121,270.692775 157.96,269.73 C159.129916,266.64956 160.020174,263.470065 160.62,260.23 C160.89,258.8 161.05,257.17 160.14,256.04 C159.23,254.91 157.49,254.71 155.98,254.65 C144.54,254.223333 133.096667,254.066667 121.65,254.18 C118.87,254.18 114.41,254.4 113.65,257.63 C112.89,260.86 114.81,266.75 115.22,270.1 Z" id="Path" fill="#3E3E54"></path>
                <path d="M235.12,268.57 C236.827091,269.626051 238.767039,270.247521 240.77,270.38 C252.051633,271.952173 263.465243,272.357648 274.83,271.59 C276.18,271.5 277.68,271.31 278.52,270.25 C279.52,268.97 279.04,267.1 278.45,265.57 C277.12,262.11 275.23,258.44 271.79,257.08 C270.081197,256.523057 268.285141,256.282453 266.49,256.37 C258.49,256.27 249.31,254.64 241.4,255.47 C235.22,256.12 229.16,263.46 235.12,268.57 Z" id="Path" fill="#3E3E54"></path>
                <path d="M233.78,71.07 C234.38221,71.509665 235.131048,71.6995616 235.87,71.6 L252.56,71.44 C259.21,71.37 265.92,71.3 272.43,69.93 C273.64,69.68 275.02,69.21 275.38,68.03 C275.526847,67.2889591 275.428566,66.5202575 275.1,65.84 C273.406236,61.283776 270.92144,57.0623317 267.76,53.37 C267.12031,52.4072692 265.984423,51.8976762 264.84,52.06 C256.64,52.06 249.39,56.46 241.97,59.33 C238.89,60.52 228.84,66.28 233.78,71.07 Z" id="Path" fill="#3E3E54"></path>
                <path d="M116.48,70.85 C116.254793,71.4426602 116.254793,72.0973398 116.48,72.69 C116.9,73.48 117.96,73.69 118.85,73.69 C134.283333,74.69 149.733333,75 165.2,74.62 C166.151873,74.6855271 167.102622,74.4773339 167.94,74.02 C169.14,73.22 169.42,71.6 169.49,70.16 C169.748945,64.9886159 168.71802,59.8339909 166.49,55.16 C165.975067,53.9053613 165.177742,52.7863686 164.16,51.89 C162.45,50.54 160.11,50.41 157.93,50.33 L140.58,49.75 C137.16,49.63 132.29,48.5 128.92,49.52 C120.86,52.01 119.63,64.5 116.48,70.85 Z" id="Path" fill="#3E3E54"></path>
                <path d="M119.53,23.57 C116.082268,27.3044385 114.648584,32.4731467 115.68,37.45 C116.43689,40.5496833 117.913448,43.4274292 119.99,45.85 C124.99,51.93 132.29,55.79 139.99,57.43 C147.69,59.07 155.66,58.59 163.36,57.06 C167.66,56.2 171.99,54.97 175.59,52.46 C177.431012,51.3122875 178.838156,49.5850184 179.59,47.55 C180.28,45.33 179.73,42.91 178.97,40.71 C176.52,33.62 171.61,27.14 164.77,24.08 C161.359583,22.6981109 157.76443,21.8254355 154.1,21.49 C147.55,20.65 140.22,21.49 133.89,19.77 C128.52,18.28 123.54,19.31 119.53,23.57 Z" id="Path" fill="#93D500"></path>
                <rect id="Rectangle" fill="#853694" x="73.45" y="66.96" width="244.71" height="194.77" rx="43.47"></rect>
                <rect id="Rectangle" fill="url(#linearGradient-2)" x="73.45" y="66.96" width="244.71" height="194.77" rx="43.47"></rect>
                <path d="M238.25,90.69 L227.64,145.31 L267.59,153.43 C267.59,153.43 277.27,100.05 277.27,99.12 C277.27,98.19 238.25,90.69 238.25,90.69 Z" id="Path" fill="#FFFFFF"></path>
                <path d="M269.06,77.85 C267.768887,77.6188482 266.449487,77.5918528 265.15,77.77 C264.34986,77.9957034 263.573023,78.2970627 262.83,78.67 C258.62,80.49 253.83,80.45 249.29,80.37 C249.62,78.92 251.07,78.06 252.37,77.37 C256.04,75.37 259.94,72.56 260.57,68.37 C259.664402,67.6356914 258.49484,67.3098074 257.34,67.47 L236.43,67.47 C235.792942,67.4045915 235.15167,67.5447602 234.6,67.87 C234.175163,68.2391391 233.89227,68.7448094 233.8,69.3 C233.42487,71.5505929 233.830654,73.8617959 234.95,75.85 C235.95,77.85 237.19,79.75 237.95,81.85 C238.71,83.95 239,86.11 240.22,87.9 C241.32,89.5 243.13,90.69 243.62,92.56 C242.22,93.92 239.88,93.09 238.24,92.04 C230.733078,87.1453203 225.778948,79.1777031 224.71,70.28 C224.507729,69.5135874 224.707202,68.6968797 225.24,68.11 C225.589187,67.8906233 225.988279,67.7633267 226.4,67.74 C236.367974,66.3874163 246.411104,65.6626543 256.47,65.57 C263.967225,65.3731373 271.465832,65.9056422 278.86,67.16 C280.86,67.54 287.86,68.16 286.96,70.64 C286.16,72.97 281.51,75.25 279.45,76.16 C276.187197,77.5992818 272.610752,78.1810135 269.06,77.85 L269.06,77.85 Z" id="Path" fill="url(#linearGradient-3)"></path>
                <path d="M238.79,258.21 C239.377705,257.991716 240.003967,257.896415 240.63,257.93 C241.809705,258.021627 242.992074,257.789993 244.05,257.26 C244.525969,256.847421 245.075611,256.528493 245.67,256.32 C246.001543,256.271148 246.338457,256.271148 246.67,256.32 C247.925662,256.447251 249.191097,256.203898 250.31,255.62 C250.84,255.35 251.39,254.88 251.31,254.29 C251.275363,254.042793 251.171339,253.810475 251.01,253.62 C250.07,252.4 248.3,252.26 246.76,252.23 L240.98,252.1 C239.474782,251.97665 237.959556,252.111938 236.5,252.5 C233.254963,253.559446 231.322525,256.886339 232.01,260.23 C232.038265,260.47603 232.14322,260.706931 232.31,260.89 C232.493536,261.037016 232.715934,261.127365 232.95,261.15 C233.95,261.36 235.95,262.15 236.75,261.2 C237.55,260.25 237.43,258.85 238.79,258.21 Z" id="Path" fill="url(#linearGradient-4)"></path>
                <path d="M262.47,246.7 C261.58916,245.799494 260.49543,245.135689 259.29,244.77 C257.944395,244.524989 256.565605,244.524989 255.22,244.77 C250.04656,245.329394 244.818495,245.110294 239.71,244.12 C239.333414,244.09507 238.978411,243.935319 238.71,243.67 C238.51973,243.344204 238.455679,242.959895 238.53,242.59 C238.8,239.44 239.92,235.8 242.93,234.82 C243.812821,234.583344 244.727093,234.485507 245.64,234.53 C251.51,234.53 257.69,235.02 262.64,238.23 C267.07,241.12 269.9,245.83 272.59,250.38 C274.81,254.14 277.12,258.29 276.49,262.62 C273.49,262.47 269.43,262.95 266.59,262 C266.99,259.13 267.37,256.57 266.59,253.68 C265.81,250.79 263.72,249.2 262.47,246.7 Z" id="Path" fill="url(#linearGradient-5)"></path>
                <path d="M152.73,255.56 C151.98,255.11 151.1,254.69 150.73,253.88 C150,252.14 152.29,250.32 151.82,248.49 C150.455421,247.992246 149.119972,247.418003 147.82,246.77 C147.462295,246.621705 147.143928,246.392344 146.89,246.1 C146.31,245.34 146.72,244.28 147.06,243.39 C147.4,242.5 147.55,241.29 146.74,240.79 C146.262741,240.574314 145.725191,240.531876 145.22,240.67 L136.77,241.96 C135.829199,242.042501 134.912796,242.303845 134.07,242.73 C133.219128,243.178771 132.693216,244.068181 132.71,245.03 L134.76,247.12 C133.65,248.99 130.95,249.24 129.5,250.87 C128.34,252.19 128.24,254.1 128.04,255.87 C127.84,257.64 127.33,259.58 125.77,260.4 C124.945729,260.761085 124.048745,260.925418 123.15,260.88 L114.61,261.17 C113.9468,261.258484 113.272824,261.128603 112.69,260.8 C111.55,259.97 112.1,258.17 112.77,256.92 C113.732966,255.287762 114.559122,253.57859 115.24,251.81 C117.39,245.62 115.44,238.5 117.9,232.43 C118.263393,231.396487 118.890829,230.476016 119.72,229.76 C121.082071,228.912909 122.667329,228.494819 124.27,228.56 C131.07,228.173333 137.876667,227.876667 144.69,227.67 C147.691553,227.506401 150.701432,227.586665 153.69,227.91 C156.82,228.33 160.12,229.44 161.86,232.07 C162.422883,232.989219 162.872801,233.972995 163.2,235 L166.14,243 L169.31,251.67 C170.18,254.03 171,256.81 169.63,258.92 C168.4,260.82 165.86,261.35 163.63,261.37 C161.87,261.37 158.07,262.09 156.98,261.09 C156.36,260.51 155.98,258.85 155.45,258.09 C154.71555,257.078638 153.791807,256.219421 152.73,255.56 Z" id="Path" fill="url(#linearGradient-6)"></path>
                <path d="M164.23,71.48 L169.69,84.74 C170.867421,87.2615963 171.691838,89.9333803 172.14,92.68 C172.47,95.52 171.99,98.39 172.19,101.23 C172.52,105.8 174.58,110.04 176.6,114.15 C179.11,113.07 180.06,110.03 180.42,107.32 C181.25,101.04 180.49,94.66 179.55,88.4 C179.114893,84.4357083 178.139169,80.5496353 176.65,76.85 C175.717027,74.8864184 174.623302,73.0033372 173.38,71.22 C172.53463,69.7638288 171.372634,68.5163919 169.98,67.57 C168.41,66.66 164.55,65.84 162.81,66.57 C160.72,67.55 163.66,70.11 164.23,71.48 Z" id="Path" fill="url(#linearGradient-7)"></path>
                <path d="M122.69,83.13 C122.668921,82.0280758 122.391602,80.9461887 121.88,79.97 C121.271556,78.5226753 120.740801,77.043905 120.29,75.54 C120.197762,75.2722712 120.143894,74.9928314 120.13,74.71 C120.151968,74.3083876 120.239806,73.9131178 120.39,73.54 C120.832167,72.1134033 120.887384,70.594944 120.55,69.14 C120.451247,68.3304883 119.96686,67.6188106 119.25,67.23 C118.928122,67.1214156 118.589571,67.070633 118.25,67.08 L114.18,66.95 C113.991534,66.9262458 113.800667,66.9686607 113.64,67.07 C113.507762,67.2177995 113.439446,67.4119589 113.45,67.61 C113.195106,70.9432147 113.278868,74.2936859 113.7,77.61 C114.09,80.61 115.7,83.31 117.37,85.86 C119.29,88.85 122.49,85.85 122.69,83.13 Z" id="Path" fill="url(#linearGradient-8)"></path>
                <rect id="Rectangle" fill="#853694" x="116.89" y="213.12" width="53.01" height="27.65"></rect>
                <rect id="Rectangle" fill="url(#linearGradient-9)" x="116.89" y="213.12" width="53.01" height="27.65"></rect>
                <rect id="Rectangle" fill="url(#linearGradient-10)" x="136.58" y="231.26" width="12.58" height="7.6"></rect>
                <polygon id="Path" fill="#853694" points="169.9 213.12 116.66 212.88 112.31 197.2 176.45 197.2"></polygon>
                <polygon id="Path" fill="#853694" points="169.9 213.12 116.66 212.88 112.31 197.2 176.45 197.2"></polygon>
                <polygon id="Path" fill="url(#linearGradient-11)" points="167.37 211.99 119.03 211.8 115.55 199.26 172.61 199.26"></polygon>
                <path d="M292.38,62.13 C291.678353,64.4524594 290.282461,66.5044207 288.38,68.01 C285.481011,70.4254021 282.272704,72.4432053 278.84,74.01 C275.56,75.61 271.98,77.1 268.39,76.53 C264.8,75.96 261.39,72.53 262.32,68.95 C263.14,65.72 266.74,64.21 269.76,62.79 C271.762515,61.850695 273.685495,60.7504166 275.51,59.5 C276.348336,59.0305114 277.040511,58.3383357 277.51,57.5 C278.16,56.03 277.45,54.33 276.66,52.93 C274.91336,49.8060345 272.742768,46.9388339 270.21,44.41 C268.74,46.88 269.12,50.07 267.92,52.69 C266.25,56.34 261.92,58.01 257.92,58.26 C255.84,58.39 253.63,58.26 251.84,59.34 C251.081868,59.8594882 250.363237,60.4343929 249.69,61.06 C245.028974,64.6432965 238.443749,64.2599393 234.23,60.16 C232.23,62.8 230.11,65.75 230.23,69.07 C230.380164,70.523639 230.768696,71.9426256 231.38,73.27 C232.399624,75.7825382 233.571808,78.230432 234.89,80.6 C236.064768,82.4209114 236.980227,84.3965529 237.61,86.47 C238.208563,88.5759754 237.683653,90.8417712 236.22,92.47 C235.86079,92.8411048 235.402677,93.1013962 234.9,93.22 C233.81,93.42 232.79,92.66 231.9,91.95 C228.428737,89.2445102 225.239257,86.195742 222.38,82.85 C219.513705,79.4547833 217.742663,75.271221 217.3,70.85 C217.12,68.07 217.66,65.29 217.67,62.51 C217.67,59.37 217.04,56.24 217.23,53.11 C217.53,48.11 220.01,43.37 223.35,39.61 C226.193382,36.5505139 229.431902,33.8836958 232.98,31.68 C233.37,31.43 234.39,30.68 235.87,29.68 C234.63,31.79 234.93,34.68 235.81,37.56 C236.684823,40.574924 238.77545,43.0894736 241.58,44.5 C242.153242,44.7162074 242.689585,45.0197978 243.17,45.4 C243.53,45.72 243.79,46.16 244.17,46.48 C245.42,47.48 247.59,46.98 248.65,48.22 C249.02,48.64 249.21,49.22 249.71,49.51 C250.21,49.8 250.94,49.51 251.56,49.51 C252.573805,49.6256849 253.559061,49.9202458 254.47,50.38 C256.891958,50.9909185 259.453777,50.222757 261.14,48.38 C262.771631,46.5413515 263.901363,44.3128867 264.42,41.91 C265.42,38.17 265.7,33.98 263.78,30.62 C262.382731,28.1240596 260.168616,26.1853849 257.51,25.13 C249.33,22.07 240.43,26.76 235.88,29.68 C236.351597,28.8946203 237.007094,28.2356919 237.79,27.76 C241.292426,25.7911879 244.976042,24.1636993 248.79,22.9 C255.3,20.65 261.26,22.56 268.1,23.38 C270.018024,23.5228715 271.886439,24.0571908 273.59,24.95 C275.263929,26.0687452 276.701255,27.5060706 277.82,29.18 C283.478901,36.7495598 288.00321,45.1042045 291.25,53.98 C292.2,56.61 293.05,59.43 292.38,62.13 Z" id="Path" fill="#FFFFFF"></path>
                <path d="M126.04,303.85 C130.14,305.69 134.83,305.46 139.32,305.14 C143.57,304.84 148.05,304.4 151.53,301.93 C156.69,298.27 158.15,291.19 157.74,284.93 C157.293489,277.42372 154.677649,270.208448 150.21,264.16 C149.515467,263.122916 148.600309,262.25215 147.53,261.61 C146.128716,261.019883 144.604874,260.779637 143.09,260.91 C137.963333,260.95 132.84,261.153333 127.72,261.52 C126.595202,261.506066 125.487068,261.792593 124.51,262.35 C123.618585,263.085912 122.967398,264.071398 122.64,265.18 C121.225388,268.862427 120.545924,272.786328 120.64,276.73 C120.78,282.42 122.16,287.73 120.39,293.25 C118.97,297.69 121.78,301.93 126.04,303.85 Z" id="Path" fill="#853694"></path>
                <path d="M126.04,303.85 C130.14,305.69 134.83,305.46 139.32,305.14 C143.57,304.84 148.05,304.4 151.53,301.93 C156.69,298.27 158.15,291.19 157.74,284.93 C157.293489,277.42372 154.677649,270.208448 150.21,264.16 C149.515467,263.122916 148.600309,262.25215 147.53,261.61 C146.128716,261.019883 144.604874,260.779637 143.09,260.91 C137.963333,260.95 132.84,261.153333 127.72,261.52 C126.595202,261.506066 125.487068,261.792593 124.51,262.35 C123.618585,263.085912 122.967398,264.071398 122.64,265.18 C121.225388,268.862427 120.545924,272.786328 120.64,276.73 C120.78,282.42 122.16,287.73 120.39,293.25 C118.97,297.69 121.78,301.93 126.04,303.85 Z" id="Path" fill="url(#linearGradient-12)"></path>
                <path d="M142.6,44.52 C148.036883,46.1411726 153.86381,43.7125896 156.54,38.71 C157.339106,37.2145788 157.686521,35.5191972 157.54,33.83 C157.012356,30.6917407 154.809697,28.0938303 151.8,27.06 C148.810097,26.099631 145.586893,26.1523552 142.63,27.21 C140.48,27.9 137.05,29.04 135.43,30.68 C134.25,31.88 134.59,33.92 134.89,35.48 C135.68322,39.6434552 138.613894,43.0796806 142.6,44.52 Z" id="Path" fill="url(#linearGradient-13)"></path>
                <path d="M130.3,27.95 C130.204823,29.4086568 130.391559,30.8719906 130.85,32.26 C131.38816,33.4615412 132.179544,34.5326391 133.17,35.4 C135.66,37.75 139.24,39.47 142.49,38.4 C143.561291,37.985845 144.555188,37.3942394 145.43,36.65 C145.580502,36.4954637 145.776941,36.3937366 145.99,36.36 C146.211068,36.3691176 146.424002,36.4459135 146.6,36.58 C150.327164,38.7337426 155.001988,38.3345261 158.31,35.58 C160.57458,33.5526592 161.899371,30.6786584 161.97,27.64 C162.012131,24.6116747 161.020987,21.659405 159.16,19.27 C158.184237,18.0260035 157.089012,16.8805385 155.89,15.85 C154.556101,14.6130024 153.074956,13.5449658 151.48,12.67 C147.625055,10.7340375 143.098785,10.6567597 139.18,12.46 C136.302876,13.8294142 133.925464,16.0634822 132.38,18.85 C131.674013,19.9555396 131.071463,21.1238178 130.58,22.34 C130.05,23.98 130.32,26.2 130.3,27.95 Z" id="Path" fill="#3E3E54"></path>
                <path d="M142.3,12.5 C142.875601,13.0422121 143.629623,13.3552025 144.42,13.38 C145.623822,13.5316112 146.836809,13.5984425 148.05,13.58 C148.441129,13.5910371 148.83095,13.5300215 149.2,13.4 C149.796075,13.0553841 150.271081,12.534973 150.56,11.91 C150.703672,11.699036 150.802386,11.4607595 150.85,11.21 C150.872236,10.9626749 150.827324,10.7139324 150.72,10.49 C150.227123,9.55194618 149.31025,8.91088071 148.26,8.77 C147.227167,8.64682059 146.181504,8.68392475 145.16,8.88 C144.33,8.99 142.4,8.67 141.86,9.33 C141.32,9.99 141.86,11.97 142.3,12.5 Z" id="Path" fill="#853694"></path>
                <path d="M141.75,9.48 C142.792198,9.7398423 143.867631,9.8409802 144.94,9.78 L147.52,9.78 C148.161023,9.80873564 148.802505,9.73445875 149.42,9.56 C150.235897,9.25616355 150.935573,8.70341949 151.42,7.98 C152.169175,6.95851563 152.638035,5.75878465 152.78,4.5 C152.853981,4.05046653 152.798486,3.58916144 152.62,3.17 C152.426904,2.85518157 152.171719,2.58298411 151.87,2.37 C150.887435,1.4585545 149.740353,0.742476389 148.49,0.26 C146.803709,-0.150447608 145.031377,-0.0246015482 143.42,0.62 C141.881176,1.02272061 140.506957,1.8969056 139.49,3.12 C138.760801,4.22754734 138.593173,5.61294886 139.037178,6.86244939 C139.481183,8.11194993 140.485431,9.08092992 141.75,9.48 L141.75,9.48 Z" id="Path" fill="#3E3E54"></path>
                <path d="M121.01,48.55 C119.01,51.1 116.68,53.55 115.93,56.74 C115.59817,58.5136336 115.530773,60.3266245 115.73,62.12 L116.49,74.24 C116.618877,75.0246495 116.507323,75.8299323 116.17,76.55 C115.54,77.55 114.17,77.81 112.97,77.93 C111.158414,78.2516605 109.297122,78.1524372 107.53,77.64 C103.81,76.25 102.47,71.76 101.76,67.85 C100.76,62.11 99.95,56.12 101.55,50.51 C103.01,45.35 106.33,40.95 109.55,36.68 C112.18,33.24 114.92,29.68 118.7,27.58 C119.255757,27.2325135 119.886725,27.023334 120.54,26.97 C121.240283,27.0130978 121.913538,27.2560248 122.48,27.67 C131.29,33.24 125.81,42.42 121.01,48.55 Z" id="Path" fill="#93D500"></path>
                <path d="M179.18,52.25 L182.1,72.52 C182.67,76.52 183.24,80.41 183.68,84.37 C184.066667,87.9833333 184.353333,91.6033333 184.54,95.23 C184.62,96.79 184.59,98.57 183.42,99.6 C182.06,100.79 179.8,100.24 178.56,98.93 C177.430903,97.5062804 176.668593,95.8271388 176.34,94.04 C174.035607,85.7757138 171.038318,77.7204999 167.38,69.96 C165.62,66.22 163.69,62.5 162.83,58.46 C161.44,52 163.58,45.57 169.73,42.46 C177.09,38.85 178.38,46.53 179.18,52.25 Z" id="Path" fill="#93D500"></path>
                <path d="M185.38,95.9 C184.721137,94.9901718 183.783868,94.3196906 182.71,93.99 C181.63168,93.8364757 180.536228,94.1130325 179.66,94.76 C177.466786,96.2305064 176.165133,98.7096663 176.2,101.35 C176.2,102.75 176.66,104.11 176.82,105.5 C177.03,107.27 176.82,109.09 177.32,110.81 C178.182541,113.599118 180.685507,115.560041 183.6,115.73 C184.179784,115.77754 184.762002,115.674188 185.29,115.43 C186.6,114.75 186.91,113.04 186.94,111.56 C186.988733,109.444211 186.790731,107.32995 186.35,105.26 C187.43074,105.900786 188.615269,106.347523 189.85,106.58 C189.97,102.48 187.99,98.95 185.38,95.9 Z" id="Path" fill="url(#linearGradient-14)"></path>
                <path d="M114.07,86.21 C114.963137,86.9650602 116.039109,87.4720083 117.19,87.68 C118.373838,87.8750904 119.547512,87.2801591 120.09,86.21 C120.256415,85.6973717 120.324276,85.1578724 120.29,84.62 L120.29,80.19 C120.435247,78.6032238 120.085938,77.010376 119.29,75.63 C118.321721,74.4284049 116.830067,73.7720774 115.29,73.87 C112.98,73.99 108.29,76.21 108.13,78.87 C107.97,81.53 112.19,84.85 114.07,86.21 Z" id="Path" fill="url(#linearGradient-15)"></path>
                <path d="M246.5,54.97 C249.02,54.91 251.37,53.75 253.61,52.6 C254.580202,52.1657303 255.472164,51.5744674 256.25,50.85 C257.444804,49.480036 257.929559,47.629827 257.56,45.85 C257.171895,44.0779604 256.279336,42.4560727 254.99,41.18 C251.165786,37.0314889 244.968027,36.1074442 240.1,38.96 C236.1,41.24 236.78,48.03 239.17,51.25 C240.883256,53.5844818 243.604308,54.9654248 246.5,54.97 Z" id="Path" fill="url(#linearGradient-16)"></path>
                <path d="M264.43,41.94 C263.911363,44.3428867 262.781631,46.5713515 261.15,48.41 C259.463777,50.252757 256.901958,51.0209185 254.48,50.41 C253.569061,49.9502458 252.583805,49.6556849 251.57,49.54 C250.95,49.54 250.27,49.83 249.72,49.54 C249.17,49.25 249.03,48.67 248.66,48.25 C247.6,47.01 245.43,47.56 244.18,46.51 C243.81,46.19 243.55,45.75 243.18,45.43 C242.699585,45.0497978 242.163242,44.7462074 241.59,44.53 C238.78545,43.1194736 236.694823,40.604924 235.82,37.59 C234.94,34.67 234.64,31.82 235.88,29.71 C240.43,26.79 249.33,22.1 257.51,25.16 C260.168616,26.2153849 262.382731,28.1540596 263.78,30.65 C265.71,34.01 265.43,38.2 264.43,41.94 Z" id="Path" fill="#3E3E54"></path>
                <path d="M241.54,91.59 C243.4,93.59 245.39,95.84 245.21,98.53 C245.077489,99.2655611 245.043858,100.015531 245.11,100.76 C245.27,101.49 246.03,102.17 246.72,101.88 C247.41,101.59 247.61,100.46 248.38,100.34 C248.99,100.24 249.47,100.95 249.38,101.56 C249.244374,102.163083 248.918308,102.706526 248.45,103.11 C247.71,103.89 246.94,104.64 246.13,105.35 C245.715569,105.781754 245.189334,106.089878 244.61,106.24 C243.994168,106.275231 243.380836,106.136625 242.84,105.84 C240.51,104.84 237.84,103.49 237.39,101 C237.298048,100.246808 237.251297,99.4887834 237.25,98.73 C237.03,95.62 231.43,90.1 233.06,87.35 C235.38,83.51 240.2,90.19 241.54,91.59 Z" id="Path" fill="url(#linearGradient-17)"></path>
                <path d="M236.97,93.05 C236.831108,93.5881694 236.965709,94.1602266 237.33,94.58 C237.699309,94.9808726 238.13168,95.3186622 238.61,95.58 L245.78,100.13 C246.84,100.81 247.58,99.53 247.01,98.62 C246.6,97.97 245.4,97.75 244.76,97.4 C242.15,95.99 239.6,94.46 236.97,93.05 Z" id="Path" fill="#3E3E54"></path>
                <path d="M252.78,69.3 C252.12,69.3 251.33,69.36 250.99,69.93 C250.755562,70.4192248 250.869321,71.0042702 251.27,71.37 C251.666475,71.7206665 252.1633,71.9375903 252.69,71.99 C252.95,71.99 253.25,72.07 253.39,72.29 C253.442765,72.4023582 253.466818,72.5260562 253.46,72.65 C253.302571,73.6007606 252.544677,74.3383897 251.59,74.47 C250.68,74.68 249.72,74.57 248.8,74.71 C247.833383,74.908395 246.900441,75.2451971 246.03,75.71 C245.146502,76.016849 244.411006,76.6452342 243.97,77.47 C243.700944,78.5446263 244.189596,79.6656515 245.16,80.2 C246.121452,80.691724 247.190408,80.9357623 248.27,80.91 C250.609684,80.9938846 252.952197,80.8700661 255.27,80.54 C256.282855,80.4311204 257.275675,80.1820738 258.22,79.8 C258.920195,79.4860291 259.589734,79.1077396 260.22,78.67 L263.94,76.25 C267.4,74 265.17,71.07 262.08,69.75 C259.38,68.65 255.58,69.32 252.78,69.3 Z" id="Path" fill="url(#linearGradient-18)"></path>
                <rect id="Rectangle" fill="#FFFFFF" x="122.38" y="76.87" width="33.48" height="44.24"></rect>
                <rect id="Rectangle" fill="#FFFFFF" transform="translate(254.450874, 220.991273) rotate(175.980000) translate(-254.450874, -220.991273) " x="237.710874" y="198.871273" width="33.48" height="44.24"></rect>
                <path d="M115.71,308.53 C113.38,307.53 110.99,306.38 109.39,304.41 C108.379551,303.012485 107.590305,301.46772 107.05,299.83 L100.05,281.68 C99.1865356,279.584743 98.4779668,277.428956 97.93,275.23 C97.4981408,272.986615 97.2407041,270.713148 97.16,268.43 C96.9100654,266.383581 97.0183491,264.309272 97.48,262.3 C98.19,259.84 99.9,257.82 101.6,255.92 C103.6,253.74 105.6,251.62 107.6,249.52 C109.104395,247.811162 110.845336,246.326142 112.77,245.11 C114.532613,244.096635 116.517834,243.533355 118.55,243.47 C119.012664,243.43675 119.477449,243.491032 119.92,243.63 C120.33648,243.811016 120.721338,244.05746 121.06,244.36 C122.699543,245.708056 124.268303,247.139967 125.76,248.65 C126.59,249.49 127.46,250.6 127.14,251.74 C126.73,253.25 124.76,253.49 123.29,254 C119.52,255.32 117.91,259.68 115.09,262.52 C114.09,263.52 112.87,264.41 112.29,265.72 C111.71,267.03 112.22,268.95 113.63,269.18 C114.027181,266.866421 115.475202,264.868004 117.55,263.77 C118.809154,263.171584 120.162532,262.796021 121.55,262.66 C123.273247,262.430249 125.012226,262.339956 126.75,262.39 C127.057637,262.371538 127.36385,262.444611 127.63,262.6 C127.910844,262.841969 128.098315,263.174463 128.16,263.54 C129.70892,268.610124 130.698146,273.834577 131.11,279.12 C131.27995,282.869301 131.239887,286.625177 130.99,290.37 L130.38,302.42 C130.25,305.23 131.08,310.86 127.38,311.42 C123.54,312.07 119.13,310.03 115.71,308.53 Z" id="Path" fill="#853694"></path>
                <path d="M148.83,286.39 C148.815327,284.209447 148.634806,282.033169 148.29,279.88 C147.14,273.72 143.29,268.36 141.72,262.3 C141.551664,261.924031 141.593444,261.48724 141.83,261.15 C142.073042,260.966527 142.377603,260.884116 142.68,260.92 C146.606667,260.92 150.536667,261.026667 154.47,261.24 C154.841386,261.242107 155.209804,261.306326 155.56,261.43 C156.82,261.93 157.04,263.56 157.27,264.9 C157.93221,267.81336 159.056427,270.60196 160.6,273.16 C162.09,270.97 163.6,268.51 163.3,265.89 C163.013432,264.445602 162.416313,263.080759 161.55,261.89 C159.317096,258.381972 156.751951,255.096846 153.89,252.08 C153.489897,251.740298 153.209462,251.281086 153.09,250.77 C153.118943,250.059313 153.45907,249.397345 154.02,248.96 C156.498355,246.419702 159.119258,244.022494 161.87,241.78 C162.131683,241.507642 162.49231,241.352573 162.87,241.35 C163.211906,241.446174 163.502623,241.672287 163.68,241.98 C167.68,247.2 171.503333,252.56 175.15,258.06 C177.52,261.63 179.87,265.48 180.05,269.75 C180.025219,272.398714 179.55882,275.024745 178.67,277.52 C176.563333,284.56 174.196667,291.51 171.57,298.37 C170.681716,301.141813 169.299473,303.730131 167.49,306.01 C163.99,309.94 158.19,311.27 153.12,310.57 C147.55,309.81 149.33,301.89 149.2,297.72 L148.83,286.39 Z" id="Path" fill="#853694"></path>
                <path d="M134.45,238.14 C134.921052,238.247983 135.353427,238.483195 135.7,238.82 C136.49,239.71 135.94,241.14 135.18,242.06 C134.132369,243.336441 132.776216,244.324298 131.24,244.93 C130.14,245.36 128.84,245.69 128.32,246.75 C129.375937,247.02925 130.474443,247.11062 131.56,246.99 C131.75,247.53 131.25,248.07 130.75,248.36 C128.74826,249.393935 126.357039,249.333589 124.41,248.2 C122.98,247.43 120.81,245.77 120.55,244.04 C120.29,242.31 122.25,240.77 123.55,239.89 C126.742924,237.716314 130.737111,237.075045 134.45,238.14 L134.45,238.14 Z" id="Path" fill="url(#linearGradient-19)"></path>
                <path d="M154.56,235.07 C152.340596,232.12836 148.822264,230.458833 145.14,230.6 C143.68,230.67 141.92,231.38 141.85,232.84 C141.89214,233.549465 142.1622,234.226369 142.62,234.77 C143.730346,236.391678 144.971127,237.92008 146.33,239.34 C147.15,240.2 148.1,241.34 147.62,242.46 C147.14,243.58 145.43,243.83 145.09,245 C145.050377,245.116729 145.050377,245.243271 145.09,245.36 C145.17639,245.52302 145.329898,245.639978 145.51,245.68 C147.62,246.42 150.02,245.35 152.15,246.02 C152.82,246.23 153.43,246.61 154.15,246.83 C156.48,247.58 160.4,245.63 159.34,242.78 C158.85,241.48 157.65,240.33 156.97,239.1 C156.255474,237.705513 155.450419,236.359301 154.56,235.07 L154.56,235.07 Z" id="Path" fill="url(#linearGradient-20)"></path>
                <path d="M218.38,274.7 C216.06,268.7 216.38,261.94 217.25,255.54 C217.337427,254.288073 217.677604,253.066838 218.25,251.95 C219.258431,250.50034 220.706402,249.413485 222.38,248.85 C228.92,246.2 236.26,246.66 243.28,247.37 C243.698622,247.372022 244.107978,247.493441 244.46,247.72 C244.778591,248.035539 244.994659,248.439793 245.08,248.88 C245.8,251.31 246.29,254.45 244.22,255.88 C241.86,257.55 238.01,255.48 235.92,257.47 C235.020258,258.483768 234.649835,259.86174 234.92,261.19 C235.1,262.5 235.57,263.77 235.69,265.09 C235.81166,267.965703 234.57014,270.7304 232.34,272.55 C230.112963,274.322874 227.475082,275.505965 224.67,275.99 C222.832224,276.493815 220.88595,276.438107 219.08,275.83 C217.33,275.1 215.95,273.19 216.4,271.35" id="Path" fill="#FF6B00"></path>
                <path d="M254.09,248.5 C255.084251,248.887801 255.947802,249.550203 256.58,250.41 C257.221143,251.307234 257.221143,252.512766 256.58,253.41 C256.132314,253.898507 255.552001,254.246 254.91,254.41 C253.042184,255.008078 251.072735,255.222371 249.12,255.04 C249.27,255.69 249.21,256.66 248.54,256.69 C248.344648,256.676171 248.155729,256.614343 247.99,256.51 C245.99,255.46 237.8,252.39 241.78,249.01 C244.8,246.35 250.77,246.99 254.09,248.5 Z" id="Path" fill="url(#linearGradient-21)"></path>
                <path d="M271.64,259.65 C271.093264,257.05767 270.205543,254.549186 269,252.19 C266.93,248.53 263.45,245.92 260.68,242.75 C260.134175,242.266424 259.842557,241.557681 259.89,240.83 C260.014516,240.452251 260.227021,240.109502 260.51,239.83 L262.71,237.3 C263.122332,236.697746 263.729859,236.25623 264.43,236.05 C264.90924,236.002528 265.392866,236.071127 265.84,236.25 C274.3,238.94 281.16,245.64 285.15,253.57 C289.14,261.5 290.42,270.57 290.04,279.47 C290.045648,281.645864 289.641963,283.803375 288.85,285.83 C288.025403,287.871006 286.281414,289.399779 284.15,289.95 C283.519076,290.116606 282.847512,290.019121 282.29,289.68 C281.893852,289.338018 281.591053,288.901024 281.41,288.41 C277.274034,279.144885 274.003451,269.517253 271.64,259.65 L271.64,259.65 Z" id="Path" fill="#FF6B00"></path>
                <path d="M279.28,294.85 C282.461089,290.887031 283.530226,285.630749 282.15,280.74 C281.178369,277.704678 279.506729,274.940306 277.27,272.67 C271.89,266.96 264.27,263.62 256.52,262.52 C248.77,261.42 240.81,262.46 233.24,264.52 C229,265.67 224.77,267.2 221.35,269.96 C219.594894,271.236422 218.311515,273.057766 217.7,275.14 C217.17,277.41 217.88,279.78 218.8,281.92 C221.74,288.82 227.09,294.92 234.13,297.51 C237.630869,298.648534 241.279553,299.268439 244.96,299.35 C251.55,299.73 258.8,298.35 265.23,299.65 C270.68,300.75 275.58,299.37 279.28,294.85 Z" id="Path" fill="#FF6B00"></path>
                <path d="M261.38,233.05 C258.520152,232.015119 255.44674,231.712591 252.44,232.17 C251.598021,232.233065 250.782705,232.493418 250.06,232.93 C249.341696,233.395381 248.953123,234.230814 249.06,235.08 C249.306439,235.851249 249.870349,236.480645 250.61,236.81 C251.334831,237.133911 252.00858,237.561741 252.61,238.08 C253.231462,238.628574 253.36666,239.54539 252.93,240.25 C252.54,240.74 251.73,240.97 251.68,241.61 C251.63,242.25 252.56,242.61 253.26,242.61 C255.66,242.61 258.02,241.97 260.42,242.01 C261.97,242.01 263.52,242.36 265.08,242.28 C265.549627,242.277184 266.012033,242.164152 266.43,241.95 C268.16,240.95 268.09,238.35 267.02,237.01 C265.521214,235.216705 263.575707,233.850711 261.38,233.05 L261.38,233.05 Z" id="Path" fill="url(#linearGradient-22)"></path>
                <path d="M129.47,290.53 C130.749798,287.963016 132.938221,285.963496 135.61,284.92 C137.751754,284.2699 140.038246,284.2699 142.18,284.92 C144.300927,285.586365 146.34036,286.48868 148.26,287.61 C148.963961,287.947883 149.60889,288.39697 150.17,288.94 C150.610102,289.464571 150.976798,290.046573 151.26,290.67 L152.62,293.33 C153.512169,294.89737 154.185108,296.579719 154.62,298.33 C154.871542,299.837205 154.908576,301.372419 154.73,302.89 C154.585275,305.559492 153.983191,308.184305 152.95,310.65 C151.890716,313.127193 149.978334,315.142469 147.56,316.33 C145.170178,317.23781 142.583354,317.499941 140.06,317.09 C138.373328,316.957503 136.715456,316.576732 135.14,315.96 C131.970345,314.489027 129.513918,311.820405 128.31,308.54 C126.087475,302.649376 126.510159,296.086834 129.47,290.53 L129.47,290.53 Z" id="Path" fill="url(#linearGradient-23)"></path>
                <path d="M128.58,299.65 C128.152938,300.486385 128.198547,301.485981 128.7,302.28 C128.966366,302.600332 129.179119,302.961672 129.33,303.35 C129.43,303.75 129.17,304.28 128.75,304.24 C128.33,304.2 128.23,303.83 127.95,303.64 C127.469113,303.388706 126.876618,303.52937 126.56,303.97 C126.262321,304.406926 126.098946,304.921382 126.09,305.45 C125.793728,310.410843 128.110642,315.166015 132.2,317.99 C136.313879,320.737238 141.377072,321.670312 146.2,320.57 C148.423163,320.20199 150.487023,319.182241 152.13,317.64 C154.88,314.8 155.07,310.42 155.07,306.47 C155.07,305.1 155.02,303.6 154.07,302.59 C153.11564,301.69202 151.781962,301.31844 150.5,301.59 C149.235364,301.845847 147.994364,302.207109 146.79,302.67 C144.032732,303.408272 141.183408,303.745072 138.33,303.67 C136.874712,303.758336 135.414477,303.623441 134,303.27 C131.8,302.56 130.68,300.54 128.58,299.65 Z" id="Path" fill="#3E3E54"></path>
                <path d="M254.8,275.57 C249.265628,274.331226 243.623476,277.156482 241.3,282.33 C240.613117,283.880038 240.390794,285.596096 240.66,287.27 C241.402601,290.365254 243.783379,292.803632 246.86,293.62 C249.906828,294.375203 253.118178,294.097332 255.99,292.83 C258.09,291.99 261.43,290.62 262.93,288.83 C264.03,287.54 263.54,285.54 263.13,284 C262.031437,279.919248 258.867353,276.717179 254.8,275.57 Z" id="Path" fill="url(#linearGradient-24)"></path>
                <path d="M240.6,300.73 C245.087922,303.668518 250.482365,304.896463 255.8,304.19 C261.14499,303.404869 265.783798,300.091435 268.26,295.29 C269.202321,293.110212 269.873993,290.82317 270.26,288.48 C270.849804,286.257926 271.0461,283.949761 270.84,281.66 C270.600897,279.338865 269.167933,277.310728 267.06,276.31 C264.92,275.48 262.06,276.64 261.61,278.89 C261.16,281.14 262.93,283.78 261.37,285.39 C260.25,286.55 258.37,286.09 256.78,285.78 C251.214836,284.78381 245.541287,286.835134 241.9,291.16 C241.263589,290.054074 240.753712,288.880013 240.38,287.66 C240.214104,286.254966 240.392571,284.830666 240.9,283.51 C237.14,282.68 232.13,284.61 232.159866,289 C232.17,293.71 236.92,298.4 240.6,300.73 Z" id="Path" fill="#3E3E54"></path>
                <rect id="Rectangle" fill="url(#linearGradient-25)" x="120.35" y="215.59" width="45.33" height="13.51"></rect>
            </g>
        </g>
    </g>
</svg>